M48
;GenerationSoftware,Autodesk,EAGLE,9.3.2*%
;CreationDate,2019-04-04T17:30:57Z*%
FMAT,2
ICI,OFF
METRIC,TZ,000.000
T7C0.350
T6C0.800
T5C0.813
T4C0.914
T3C1.000
T2C1.016
T1C2.800
%
G90
M71
T1
X22190Y77730
X22190Y46730
X97190Y77730
X97190Y46730
X96300Y15400
X96300Y40400
X61300Y40400
X61300Y15400
X22200Y9200
X97300Y9200
T2
X25339Y10749
X29861Y10749
X25339Y17251
X29861Y17251
X58170Y77730
X54261Y10749
X55630Y77730
X49739Y17251
X50550Y77730
X48010Y77730
X45470Y77730
X42930Y77730
X37850Y77730
X35310Y77730
X32770Y77730
X30230Y77730
X27690Y77730
X49739Y10749
X54261Y17251
X44261Y17251
X39739Y17251
X44261Y10749
X39739Y10749
X65790Y77730
X53090Y77730
X63250Y77730
X60710Y77730
X40390Y77730
T3
X86000Y70500
T4
X26170Y26920
X23630Y29460
X26170Y29460
X23630Y32000
X26170Y32000
X23630Y34540
X23630Y37080
X23630Y39620
X26170Y39620
X26170Y37080
X23630Y26920
X26170Y24380
X23630Y24380
X26170Y34540
X48510Y27090
X48510Y29630
X48510Y32170
X48510Y24550
T5
X52070Y58420
X54610Y58420
X57150Y58420
X59690Y58420
X62230Y58420
X62230Y66040
X59690Y66040
X57150Y66040
X31750Y58420
X52070Y66040
X49530Y66040
X46990Y66040
X44450Y66040
X41910Y66040
X39370Y66040
X36830Y66040
X34290Y66040
X31750Y66040
X29210Y66040
X54610Y66040
X53213Y46990
X48387Y46990
X29210Y58420
X34290Y58420
X36830Y58420
X39370Y58420
X41910Y58420
X44450Y58420
X46990Y58420
X49530Y58420
T6
X21500Y68500
X24000Y71000
X21500Y73500
X92000Y70500
X89000Y75300
T7
X71900Y69700
X30100Y74100
X66500Y74500
X42000Y13900
X40600Y61200
X29800Y68800
X38100Y68800
X46400Y68800
X25200Y62350
X45700Y62700
X27700Y61650
X61000Y71500
X57150Y71500
X56000Y73500
X53500Y72500
X65000Y70000
X62500Y73000
X33000Y28700
X78250Y51000
X81400Y64900
X77400Y64900
X47400Y71400
X97800Y58700
X31000Y26900
X43800Y24700
X70000Y77000
X92210Y63500
X40900Y29700
X40700Y51100
X36600Y15200
X37100Y10700
X43200Y62200
X73290Y71890
X29100Y21100
X21900Y25800
X29600Y41500
X44800Y46900
X84100Y65600
M30