G04 EAGLE Gerber RS-274X export*
G75*
%MOMM*%
%FSLAX34Y34*%
%LPD*%
%INTop Copper*%
%IPPOS*%
%AMOC8*
5,1,8,0,0,1.08239X$1,22.5*%
G01*
%ADD10R,2.600000X2.400000*%
%ADD11R,0.800000X1.200000*%
%ADD12C,1.320800*%
%ADD13R,1.879600X1.879600*%
%ADD14C,1.879600*%
%ADD15R,1.600000X1.803000*%
%ADD16C,1.320800*%
%ADD17R,1.100000X1.400000*%
%ADD18C,1.524000*%
%ADD19R,2.235200X1.219200*%
%ADD20R,2.200000X3.600000*%
%ADD21C,1.308000*%
%ADD22C,1.422400*%
%ADD23P,1.539592X8X292.500000*%
%ADD24R,0.900000X0.700000*%
%ADD25C,2.184400*%
%ADD26R,1.422400X1.422400*%
%ADD27C,0.609600*%
%ADD28C,0.756400*%
%ADD29C,0.406400*%

G36*
X570024Y77800D02*
X570024Y77800D01*
X570049Y77797D01*
X570144Y77819D01*
X570241Y77835D01*
X570262Y77847D01*
X570286Y77853D01*
X570370Y77904D01*
X570456Y77950D01*
X570473Y77968D01*
X570494Y77981D01*
X570556Y78057D01*
X570623Y78128D01*
X570633Y78151D01*
X570649Y78170D01*
X570683Y78261D01*
X570724Y78351D01*
X570726Y78375D01*
X570735Y78398D01*
X570749Y78545D01*
X570749Y441251D01*
X986455Y441251D01*
X986479Y441255D01*
X986504Y441252D01*
X986599Y441275D01*
X986696Y441290D01*
X986717Y441302D01*
X986741Y441308D01*
X986825Y441359D01*
X986911Y441405D01*
X986928Y441423D01*
X986949Y441436D01*
X987011Y441512D01*
X987078Y441584D01*
X987088Y441606D01*
X987104Y441625D01*
X987138Y441716D01*
X987179Y441806D01*
X987181Y441830D01*
X987190Y441853D01*
X987204Y442000D01*
X987204Y446627D01*
X987192Y446699D01*
X987190Y446773D01*
X987173Y446819D01*
X987165Y446868D01*
X987130Y446933D01*
X987104Y447001D01*
X987073Y447039D01*
X987050Y447083D01*
X986996Y447133D01*
X986949Y447190D01*
X986907Y447216D01*
X986872Y447250D01*
X986805Y447280D01*
X986742Y447319D01*
X986694Y447330D01*
X986649Y447351D01*
X986576Y447358D01*
X986505Y447375D01*
X986456Y447370D01*
X986406Y447375D01*
X986335Y447358D01*
X986262Y447351D01*
X986217Y447331D01*
X986169Y447319D01*
X986106Y447281D01*
X986039Y447250D01*
X985983Y447204D01*
X985961Y447191D01*
X985951Y447178D01*
X985925Y447157D01*
X985586Y446818D01*
X976706Y443139D01*
X967094Y443139D01*
X958214Y446817D01*
X951417Y453614D01*
X947739Y462494D01*
X947739Y472106D01*
X951417Y480986D01*
X958214Y487783D01*
X967094Y491461D01*
X976706Y491461D01*
X985586Y487782D01*
X985925Y487443D01*
X985985Y487400D01*
X986039Y487350D01*
X986083Y487330D01*
X986124Y487301D01*
X986194Y487280D01*
X986261Y487249D01*
X986310Y487245D01*
X986357Y487230D01*
X986430Y487233D01*
X986504Y487225D01*
X986552Y487237D01*
X986601Y487238D01*
X986670Y487264D01*
X986741Y487281D01*
X986783Y487307D01*
X986829Y487324D01*
X986886Y487370D01*
X986949Y487409D01*
X986980Y487447D01*
X987018Y487479D01*
X987057Y487541D01*
X987104Y487598D01*
X987121Y487644D01*
X987147Y487686D01*
X987164Y487757D01*
X987190Y487826D01*
X987197Y487899D01*
X987203Y487923D01*
X987201Y487940D01*
X987204Y487973D01*
X987204Y756627D01*
X987201Y756647D01*
X987203Y756665D01*
X987192Y756711D01*
X987190Y756773D01*
X987173Y756819D01*
X987165Y756868D01*
X987149Y756898D01*
X987147Y756902D01*
X987137Y756919D01*
X987130Y756933D01*
X987104Y757001D01*
X987073Y757039D01*
X987050Y757083D01*
X986996Y757133D01*
X986949Y757190D01*
X986907Y757216D01*
X986872Y757250D01*
X986805Y757280D01*
X986742Y757319D01*
X986694Y757330D01*
X986649Y757351D01*
X986576Y757358D01*
X986505Y757375D01*
X986456Y757370D01*
X986406Y757375D01*
X986335Y757358D01*
X986262Y757351D01*
X986217Y757331D01*
X986169Y757319D01*
X986106Y757281D01*
X986039Y757250D01*
X985996Y757215D01*
X985988Y757211D01*
X985981Y757203D01*
X985961Y757191D01*
X985951Y757178D01*
X985925Y757157D01*
X985586Y756818D01*
X976706Y753139D01*
X967094Y753139D01*
X958214Y756817D01*
X951417Y763614D01*
X947739Y772494D01*
X947739Y782106D01*
X951431Y791018D01*
X951450Y791039D01*
X951470Y791083D01*
X951499Y791123D01*
X951520Y791194D01*
X951551Y791261D01*
X951555Y791310D01*
X951570Y791357D01*
X951567Y791430D01*
X951575Y791504D01*
X951564Y791551D01*
X951562Y791601D01*
X951536Y791670D01*
X951519Y791741D01*
X951493Y791783D01*
X951476Y791829D01*
X951430Y791886D01*
X951391Y791949D01*
X951353Y791980D01*
X951322Y792018D01*
X951259Y792057D01*
X951202Y792104D01*
X951156Y792121D01*
X951114Y792147D01*
X951043Y792164D01*
X950974Y792190D01*
X950901Y792197D01*
X950877Y792203D01*
X950860Y792201D01*
X950827Y792204D01*
X638119Y792204D01*
X638023Y792188D01*
X637926Y792179D01*
X637903Y792169D01*
X637879Y792165D01*
X637792Y792118D01*
X637703Y792078D01*
X637685Y792061D01*
X637663Y792050D01*
X637596Y791978D01*
X637525Y791911D01*
X637513Y791890D01*
X637497Y791872D01*
X637456Y791782D01*
X637410Y791696D01*
X637406Y791672D01*
X637396Y791649D01*
X637386Y791552D01*
X637370Y791456D01*
X637374Y791431D01*
X637372Y791406D01*
X637394Y791311D01*
X637410Y791215D01*
X637421Y791193D01*
X637427Y791169D01*
X637478Y791086D01*
X637524Y790999D01*
X637543Y790983D01*
X637556Y790961D01*
X637631Y790899D01*
X637702Y790832D01*
X637731Y790817D01*
X637744Y790807D01*
X637767Y790798D01*
X637833Y790763D01*
X640701Y789575D01*
X644775Y785501D01*
X646979Y780180D01*
X646979Y774420D01*
X644775Y769099D01*
X640701Y765025D01*
X640076Y764766D01*
X640075Y764766D01*
X639987Y764711D01*
X639868Y764638D01*
X639868Y764637D01*
X639780Y764530D01*
X639713Y764449D01*
X639658Y764303D01*
X639627Y764221D01*
X639627Y764220D01*
X639627Y764219D01*
X639613Y764074D01*
X639613Y756757D01*
X639629Y756660D01*
X639638Y756563D01*
X639648Y756541D01*
X639652Y756516D01*
X639698Y756430D01*
X639739Y756341D01*
X639760Y756315D01*
X639767Y756301D01*
X639786Y756284D01*
X639832Y756227D01*
X643727Y752332D01*
X643806Y752275D01*
X643881Y752213D01*
X643905Y752205D01*
X643925Y752190D01*
X644018Y752162D01*
X644110Y752127D01*
X644143Y752124D01*
X644159Y752119D01*
X644183Y752120D01*
X644257Y752113D01*
X659269Y752113D01*
X659365Y752129D01*
X659462Y752138D01*
X659485Y752148D01*
X659509Y752152D01*
X659595Y752198D01*
X659684Y752239D01*
X659710Y752260D01*
X659725Y752267D01*
X659732Y752275D01*
X659733Y752275D01*
X659744Y752287D01*
X659798Y752332D01*
X659980Y752513D01*
X663237Y753863D01*
X666763Y753863D01*
X668672Y753072D01*
X668767Y753050D01*
X668861Y753021D01*
X668886Y753022D01*
X668910Y753016D01*
X669007Y753026D01*
X669104Y753029D01*
X669136Y753039D01*
X669153Y753040D01*
X669176Y753051D01*
X669246Y753072D01*
X669383Y753129D01*
X672617Y753129D01*
X675605Y751891D01*
X720592Y706904D01*
X720652Y706861D01*
X720706Y706811D01*
X720750Y706790D01*
X720791Y706761D01*
X720861Y706740D01*
X720928Y706710D01*
X720977Y706705D01*
X721024Y706691D01*
X721097Y706693D01*
X721171Y706686D01*
X721219Y706697D01*
X721268Y706698D01*
X721337Y706724D01*
X721408Y706741D01*
X721450Y706767D01*
X721496Y706784D01*
X721553Y706831D01*
X721616Y706870D01*
X721647Y706908D01*
X721685Y706939D01*
X721724Y707001D01*
X721771Y707058D01*
X721788Y707104D01*
X721814Y707146D01*
X721831Y707218D01*
X721857Y707286D01*
X721864Y707359D01*
X721870Y707384D01*
X721868Y707400D01*
X721871Y707433D01*
X721871Y717617D01*
X723109Y720605D01*
X724547Y722043D01*
X724590Y722102D01*
X724640Y722155D01*
X724664Y722201D01*
X724671Y722209D01*
X724676Y722222D01*
X724689Y722241D01*
X724694Y722257D01*
X724709Y722286D01*
X724714Y722297D01*
X724731Y722368D01*
X724757Y722437D01*
X724764Y722510D01*
X724770Y722534D01*
X724768Y722551D01*
X724771Y722584D01*
X724771Y727233D01*
X724755Y727330D01*
X724746Y727426D01*
X724736Y727449D01*
X724732Y727474D01*
X724686Y727560D01*
X724645Y727649D01*
X724624Y727674D01*
X724617Y727689D01*
X724598Y727706D01*
X724552Y727763D01*
X723819Y728495D01*
X723819Y744704D01*
X726796Y747681D01*
X739004Y747681D01*
X741981Y744704D01*
X741981Y728495D01*
X741248Y727763D01*
X741191Y727684D01*
X741129Y727608D01*
X741121Y727585D01*
X741106Y727565D01*
X741078Y727471D01*
X741043Y727380D01*
X741040Y727347D01*
X741035Y727331D01*
X741036Y727306D01*
X741029Y727233D01*
X741029Y722584D01*
X741041Y722512D01*
X741043Y722439D01*
X741064Y722368D01*
X741068Y722343D01*
X741076Y722329D01*
X741086Y722297D01*
X741763Y720663D01*
X741763Y717137D01*
X740413Y713880D01*
X738348Y711814D01*
X738291Y711735D01*
X738229Y711660D01*
X738221Y711636D01*
X738206Y711616D01*
X738178Y711523D01*
X738143Y711432D01*
X738140Y711399D01*
X738135Y711383D01*
X738136Y711358D01*
X738129Y711285D01*
X738129Y690930D01*
X738133Y690906D01*
X738130Y690881D01*
X738152Y690786D01*
X738168Y690689D01*
X738180Y690668D01*
X738186Y690644D01*
X738237Y690560D01*
X738283Y690474D01*
X738301Y690457D01*
X738314Y690436D01*
X738390Y690374D01*
X738461Y690307D01*
X738484Y690297D01*
X738503Y690281D01*
X738594Y690247D01*
X738684Y690206D01*
X738708Y690204D01*
X738731Y690195D01*
X738878Y690181D01*
X745104Y690181D01*
X748081Y687204D01*
X748081Y658996D01*
X745104Y656019D01*
X714896Y656019D01*
X711919Y658996D01*
X711919Y687205D01*
X713561Y688846D01*
X713575Y688866D01*
X713594Y688881D01*
X713646Y688965D01*
X713703Y689044D01*
X713710Y689068D01*
X713723Y689088D01*
X713745Y689184D01*
X713774Y689278D01*
X713773Y689302D01*
X713778Y689326D01*
X713769Y689424D01*
X713766Y689522D01*
X713757Y689545D01*
X713755Y689569D01*
X713714Y689658D01*
X713680Y689750D01*
X713664Y689769D01*
X713654Y689791D01*
X713561Y689906D01*
X711487Y691980D01*
X710810Y693614D01*
X710771Y693676D01*
X710741Y693743D01*
X710694Y693800D01*
X710681Y693821D01*
X710668Y693832D01*
X710647Y693857D01*
X668251Y736253D01*
X668133Y736338D01*
X668053Y736395D01*
X667932Y736432D01*
X667820Y736466D01*
X667819Y736466D01*
X667695Y736462D01*
X667576Y736458D01*
X667575Y736458D01*
X667435Y736416D01*
X666763Y736137D01*
X663237Y736137D01*
X659980Y737487D01*
X659798Y737668D01*
X659719Y737725D01*
X659644Y737787D01*
X659620Y737795D01*
X659600Y737810D01*
X659507Y737838D01*
X659416Y737873D01*
X659383Y737876D01*
X659367Y737881D01*
X659342Y737880D01*
X659269Y737887D01*
X639585Y737887D01*
X636971Y738970D01*
X626470Y749471D01*
X625387Y752085D01*
X625387Y764074D01*
X625369Y764184D01*
X625348Y764314D01*
X625348Y764315D01*
X625304Y764397D01*
X625233Y764529D01*
X625233Y764530D01*
X625149Y764608D01*
X625055Y764696D01*
X625055Y764697D01*
X625054Y764697D01*
X624925Y764766D01*
X624299Y765025D01*
X620330Y768994D01*
X620310Y769009D01*
X620294Y769027D01*
X620211Y769079D01*
X620131Y769136D01*
X620108Y769143D01*
X620087Y769156D01*
X619992Y769179D01*
X619898Y769207D01*
X619873Y769206D01*
X619850Y769212D01*
X619752Y769202D01*
X619654Y769199D01*
X619631Y769191D01*
X619607Y769188D01*
X619518Y769148D01*
X619426Y769113D01*
X619407Y769098D01*
X619384Y769088D01*
X619270Y768994D01*
X615301Y765025D01*
X614676Y764766D01*
X614675Y764766D01*
X614587Y764711D01*
X614468Y764638D01*
X614468Y764637D01*
X614380Y764530D01*
X614313Y764449D01*
X614258Y764303D01*
X614227Y764221D01*
X614227Y764220D01*
X614227Y764219D01*
X614213Y764074D01*
X614213Y749157D01*
X614229Y749060D01*
X614238Y748963D01*
X614248Y748941D01*
X614252Y748916D01*
X614298Y748830D01*
X614339Y748741D01*
X614360Y748715D01*
X614367Y748701D01*
X614386Y748684D01*
X614432Y748627D01*
X616030Y747029D01*
X617113Y744415D01*
X617113Y736455D01*
X617125Y736383D01*
X617127Y736309D01*
X617144Y736263D01*
X617152Y736215D01*
X617187Y736150D01*
X617213Y736081D01*
X617244Y736043D01*
X617267Y735999D01*
X617321Y735949D01*
X617368Y735892D01*
X617410Y735866D01*
X617445Y735833D01*
X617512Y735802D01*
X617575Y735763D01*
X617623Y735752D01*
X617668Y735732D01*
X617741Y735724D01*
X617812Y735708D01*
X617861Y735713D01*
X617911Y735708D01*
X617982Y735724D01*
X618055Y735731D01*
X618100Y735752D01*
X618148Y735763D01*
X618211Y735802D01*
X618278Y735832D01*
X618334Y735878D01*
X618356Y735892D01*
X618366Y735905D01*
X618392Y735926D01*
X619980Y737513D01*
X623237Y738863D01*
X626763Y738863D01*
X630020Y737513D01*
X632513Y735020D01*
X633863Y731763D01*
X633863Y728237D01*
X632513Y724980D01*
X630020Y722487D01*
X629876Y722427D01*
X629875Y722426D01*
X629785Y722371D01*
X629668Y722298D01*
X629574Y722183D01*
X629513Y722109D01*
X629457Y721961D01*
X629427Y721881D01*
X629427Y721880D01*
X629413Y721734D01*
X629413Y676726D01*
X629429Y676630D01*
X629438Y676533D01*
X629448Y676510D01*
X629452Y676486D01*
X629498Y676399D01*
X629539Y676311D01*
X629560Y676285D01*
X629567Y676270D01*
X629586Y676253D01*
X629632Y676196D01*
X632206Y673623D01*
X633985Y669328D01*
X633985Y651472D01*
X632206Y647177D01*
X628919Y643890D01*
X624624Y642111D01*
X619976Y642111D01*
X615681Y643890D01*
X612394Y647177D01*
X610615Y651472D01*
X610615Y669328D01*
X612394Y673623D01*
X614968Y676196D01*
X615025Y676276D01*
X615087Y676351D01*
X615095Y676374D01*
X615110Y676395D01*
X615138Y676488D01*
X615173Y676579D01*
X615176Y676612D01*
X615181Y676628D01*
X615180Y676653D01*
X615187Y676726D01*
X615187Y706434D01*
X615184Y706452D01*
X615186Y706465D01*
X615180Y706491D01*
X615181Y706532D01*
X615160Y706602D01*
X615148Y706675D01*
X615124Y706718D01*
X615110Y706765D01*
X615067Y706825D01*
X615033Y706890D01*
X614997Y706924D01*
X614968Y706964D01*
X614908Y707007D01*
X614855Y707057D01*
X614810Y707077D01*
X614770Y707106D01*
X614699Y707128D01*
X614632Y707158D01*
X614583Y707163D01*
X614537Y707177D01*
X614463Y707175D01*
X614389Y707182D01*
X614342Y707171D01*
X614293Y707169D01*
X614153Y707127D01*
X614152Y707127D01*
X614151Y707127D01*
X611763Y706137D01*
X608237Y706137D01*
X604980Y707487D01*
X602487Y709980D01*
X601137Y713237D01*
X601137Y716763D01*
X602487Y720020D01*
X602668Y720202D01*
X602725Y720281D01*
X602787Y720356D01*
X602795Y720380D01*
X602810Y720400D01*
X602838Y720493D01*
X602873Y720584D01*
X602876Y720617D01*
X602881Y720633D01*
X602880Y720658D01*
X602887Y720731D01*
X602887Y739743D01*
X602871Y739840D01*
X602862Y739937D01*
X602852Y739959D01*
X602848Y739984D01*
X602802Y740070D01*
X602761Y740159D01*
X602740Y740185D01*
X602733Y740199D01*
X602714Y740216D01*
X602668Y740273D01*
X601070Y741871D01*
X599987Y744485D01*
X599987Y764074D01*
X599969Y764184D01*
X599948Y764314D01*
X599948Y764315D01*
X599904Y764397D01*
X599833Y764529D01*
X599833Y764530D01*
X599749Y764608D01*
X599655Y764696D01*
X599655Y764697D01*
X599654Y764697D01*
X599525Y764766D01*
X598899Y765025D01*
X594930Y768994D01*
X594910Y769009D01*
X594894Y769027D01*
X594811Y769079D01*
X594731Y769136D01*
X594708Y769143D01*
X594687Y769156D01*
X594592Y769179D01*
X594498Y769207D01*
X594473Y769206D01*
X594450Y769212D01*
X594352Y769202D01*
X594254Y769199D01*
X594231Y769191D01*
X594207Y769188D01*
X594118Y769148D01*
X594026Y769113D01*
X594007Y769098D01*
X593984Y769088D01*
X593870Y768994D01*
X589901Y765025D01*
X589276Y764766D01*
X589275Y764766D01*
X589187Y764711D01*
X589068Y764638D01*
X589068Y764637D01*
X588980Y764530D01*
X588913Y764449D01*
X588858Y764303D01*
X588827Y764221D01*
X588827Y764220D01*
X588827Y764219D01*
X588813Y764074D01*
X588813Y755557D01*
X588829Y755460D01*
X588838Y755363D01*
X588848Y755341D01*
X588852Y755316D01*
X588898Y755230D01*
X588939Y755141D01*
X588960Y755115D01*
X588967Y755101D01*
X588986Y755084D01*
X589032Y755027D01*
X591030Y753029D01*
X592113Y750415D01*
X592113Y718257D01*
X592129Y718160D01*
X592138Y718063D01*
X592148Y718041D01*
X592152Y718016D01*
X592198Y717930D01*
X592239Y717841D01*
X592260Y717815D01*
X592267Y717801D01*
X592286Y717784D01*
X592332Y717727D01*
X602930Y707129D01*
X604013Y704515D01*
X604013Y676726D01*
X604029Y676630D01*
X604038Y676533D01*
X604048Y676510D01*
X604052Y676486D01*
X604098Y676399D01*
X604139Y676311D01*
X604160Y676285D01*
X604167Y676270D01*
X604186Y676253D01*
X604232Y676197D01*
X606806Y673623D01*
X608585Y669328D01*
X608585Y651472D01*
X606806Y647177D01*
X603519Y643890D01*
X599224Y642111D01*
X594576Y642111D01*
X590281Y643890D01*
X586994Y647177D01*
X585215Y651472D01*
X585215Y669328D01*
X586994Y673623D01*
X589568Y676197D01*
X589625Y676276D01*
X589687Y676351D01*
X589695Y676374D01*
X589710Y676395D01*
X589738Y676488D01*
X589773Y676579D01*
X589776Y676612D01*
X589781Y676628D01*
X589780Y676653D01*
X589787Y676726D01*
X589787Y699843D01*
X589771Y699940D01*
X589762Y700037D01*
X589752Y700059D01*
X589748Y700084D01*
X589702Y700170D01*
X589661Y700259D01*
X589640Y700285D01*
X589633Y700299D01*
X589614Y700316D01*
X589568Y700373D01*
X580017Y709924D01*
X579997Y709938D01*
X579982Y709957D01*
X579899Y710009D01*
X579819Y710066D01*
X579796Y710073D01*
X579775Y710086D01*
X579679Y710108D01*
X579585Y710137D01*
X579561Y710136D01*
X579537Y710142D01*
X579440Y710132D01*
X579342Y710129D01*
X579319Y710120D01*
X579294Y710118D01*
X579205Y710078D01*
X579113Y710043D01*
X579094Y710028D01*
X579072Y710017D01*
X578958Y709924D01*
X578832Y709798D01*
X578775Y709719D01*
X578713Y709644D01*
X578705Y709620D01*
X578690Y709600D01*
X578662Y709507D01*
X578627Y709416D01*
X578624Y709383D01*
X578619Y709367D01*
X578620Y709342D01*
X578613Y709269D01*
X578613Y676726D01*
X578629Y676630D01*
X578638Y676533D01*
X578648Y676510D01*
X578652Y676486D01*
X578698Y676399D01*
X578739Y676311D01*
X578760Y676285D01*
X578767Y676270D01*
X578786Y676253D01*
X578832Y676197D01*
X581406Y673623D01*
X583185Y669328D01*
X583185Y651472D01*
X581406Y647177D01*
X578119Y643890D01*
X573824Y642111D01*
X569176Y642111D01*
X564881Y643890D01*
X561594Y647177D01*
X559815Y651472D01*
X559815Y669328D01*
X561594Y673623D01*
X564168Y676197D01*
X564225Y676276D01*
X564287Y676351D01*
X564295Y676374D01*
X564310Y676395D01*
X564338Y676488D01*
X564373Y676579D01*
X564376Y676612D01*
X564381Y676628D01*
X564380Y676653D01*
X564387Y676726D01*
X564387Y694638D01*
X564383Y694662D01*
X564386Y694687D01*
X564364Y694782D01*
X564348Y694879D01*
X564336Y694900D01*
X564330Y694924D01*
X564279Y695008D01*
X564233Y695094D01*
X564215Y695111D01*
X564202Y695132D01*
X564126Y695194D01*
X564055Y695261D01*
X564032Y695271D01*
X564013Y695287D01*
X563922Y695321D01*
X563832Y695362D01*
X563808Y695364D01*
X563785Y695373D01*
X563638Y695387D01*
X523585Y695387D01*
X520971Y696470D01*
X510773Y706668D01*
X510694Y706725D01*
X510619Y706787D01*
X510595Y706795D01*
X510575Y706810D01*
X510482Y706838D01*
X510390Y706873D01*
X510357Y706876D01*
X510341Y706881D01*
X510317Y706880D01*
X510243Y706887D01*
X479731Y706887D01*
X479635Y706871D01*
X479538Y706862D01*
X479515Y706852D01*
X479491Y706848D01*
X479404Y706802D01*
X479316Y706761D01*
X479290Y706740D01*
X479275Y706733D01*
X479258Y706714D01*
X479202Y706668D01*
X479020Y706487D01*
X478513Y706276D01*
X478511Y706275D01*
X478384Y706208D01*
X477768Y705797D01*
X477051Y705655D01*
X476971Y705631D01*
X476951Y705628D01*
X476939Y705621D01*
X476910Y705612D01*
X475763Y705137D01*
X472237Y705137D01*
X468980Y706487D01*
X466487Y708980D01*
X465137Y712237D01*
X465137Y715763D01*
X466487Y719020D01*
X468980Y721513D01*
X472237Y722863D01*
X475763Y722863D01*
X479020Y721513D01*
X479202Y721332D01*
X479281Y721275D01*
X479356Y721213D01*
X479379Y721205D01*
X479400Y721190D01*
X479493Y721162D01*
X479584Y721127D01*
X479617Y721124D01*
X479633Y721119D01*
X479658Y721120D01*
X479731Y721113D01*
X514915Y721113D01*
X517529Y720030D01*
X527727Y709832D01*
X527806Y709775D01*
X527881Y709713D01*
X527905Y709705D01*
X527925Y709690D01*
X528018Y709662D01*
X528110Y709627D01*
X528143Y709624D01*
X528159Y709619D01*
X528183Y709620D01*
X528257Y709613D01*
X563017Y709613D01*
X563066Y709621D01*
X563115Y709619D01*
X563185Y709640D01*
X563258Y709652D01*
X563301Y709676D01*
X563348Y709690D01*
X563408Y709733D01*
X563473Y709767D01*
X563507Y709803D01*
X563547Y709832D01*
X563590Y709892D01*
X563640Y709945D01*
X563660Y709990D01*
X563689Y710030D01*
X563710Y710101D01*
X563741Y710168D01*
X563746Y710217D01*
X563760Y710263D01*
X563758Y710337D01*
X563765Y710411D01*
X563754Y710458D01*
X563752Y710507D01*
X563710Y710647D01*
X563710Y710648D01*
X563709Y710649D01*
X562637Y713237D01*
X562637Y716763D01*
X563987Y720020D01*
X566480Y722513D01*
X569737Y723863D01*
X573263Y723863D01*
X576520Y722513D01*
X576608Y722426D01*
X576668Y722383D01*
X576722Y722333D01*
X576766Y722312D01*
X576806Y722283D01*
X576877Y722262D01*
X576944Y722232D01*
X576993Y722227D01*
X577040Y722213D01*
X577113Y722215D01*
X577187Y722208D01*
X577235Y722219D01*
X577284Y722220D01*
X577353Y722246D01*
X577424Y722263D01*
X577466Y722289D01*
X577512Y722306D01*
X577569Y722353D01*
X577632Y722392D01*
X577663Y722430D01*
X577701Y722461D01*
X577740Y722523D01*
X577787Y722580D01*
X577804Y722626D01*
X577830Y722668D01*
X577847Y722740D01*
X577873Y722808D01*
X577880Y722881D01*
X577886Y722906D01*
X577884Y722922D01*
X577887Y722955D01*
X577887Y745743D01*
X577871Y745840D01*
X577862Y745937D01*
X577852Y745959D01*
X577848Y745984D01*
X577802Y746070D01*
X577761Y746159D01*
X577740Y746185D01*
X577733Y746199D01*
X577714Y746216D01*
X577668Y746273D01*
X575670Y748271D01*
X574587Y750885D01*
X574587Y764074D01*
X574569Y764184D01*
X574548Y764314D01*
X574548Y764315D01*
X574504Y764397D01*
X574433Y764529D01*
X574433Y764530D01*
X574349Y764608D01*
X574255Y764696D01*
X574255Y764697D01*
X574254Y764697D01*
X574125Y764766D01*
X573499Y765025D01*
X569530Y768994D01*
X569510Y769009D01*
X569494Y769027D01*
X569411Y769079D01*
X569331Y769136D01*
X569308Y769143D01*
X569287Y769156D01*
X569192Y769179D01*
X569098Y769207D01*
X569073Y769206D01*
X569050Y769212D01*
X568952Y769202D01*
X568854Y769199D01*
X568831Y769191D01*
X568807Y769188D01*
X568718Y769148D01*
X568626Y769113D01*
X568607Y769098D01*
X568584Y769088D01*
X568470Y768994D01*
X564501Y765025D01*
X563876Y764766D01*
X563875Y764766D01*
X563787Y764711D01*
X563668Y764638D01*
X563668Y764637D01*
X563580Y764530D01*
X563513Y764449D01*
X563458Y764303D01*
X563427Y764221D01*
X563427Y764220D01*
X563427Y764219D01*
X563413Y764074D01*
X563413Y760957D01*
X563429Y760860D01*
X563438Y760763D01*
X563448Y760741D01*
X563452Y760716D01*
X563498Y760630D01*
X563539Y760541D01*
X563560Y760515D01*
X563567Y760501D01*
X563586Y760484D01*
X563632Y760427D01*
X563924Y760135D01*
X566030Y758029D01*
X567113Y755415D01*
X567113Y740731D01*
X567129Y740635D01*
X567138Y740538D01*
X567148Y740515D01*
X567152Y740491D01*
X567198Y740405D01*
X567239Y740316D01*
X567260Y740290D01*
X567267Y740275D01*
X567286Y740258D01*
X567332Y740202D01*
X567513Y740020D01*
X568863Y736763D01*
X568863Y733237D01*
X567513Y729980D01*
X565020Y727487D01*
X561763Y726137D01*
X558237Y726137D01*
X554980Y727487D01*
X552487Y729980D01*
X551137Y733237D01*
X551137Y736763D01*
X552487Y740020D01*
X552668Y740202D01*
X552725Y740281D01*
X552787Y740356D01*
X552795Y740380D01*
X552810Y740400D01*
X552838Y740493D01*
X552873Y740584D01*
X552876Y740617D01*
X552881Y740633D01*
X552880Y740658D01*
X552887Y740731D01*
X552887Y750743D01*
X552871Y750840D01*
X552862Y750937D01*
X552852Y750959D01*
X552848Y750984D01*
X552802Y751070D01*
X552761Y751159D01*
X552740Y751185D01*
X552733Y751199D01*
X552714Y751217D01*
X552668Y751273D01*
X550270Y753671D01*
X549187Y756285D01*
X549187Y764074D01*
X549169Y764184D01*
X549148Y764314D01*
X549148Y764315D01*
X549104Y764397D01*
X549033Y764529D01*
X549033Y764530D01*
X548949Y764608D01*
X548855Y764696D01*
X548855Y764697D01*
X548854Y764697D01*
X548725Y764766D01*
X548099Y765025D01*
X544130Y768994D01*
X544110Y769008D01*
X544094Y769027D01*
X544011Y769079D01*
X543931Y769136D01*
X543908Y769143D01*
X543887Y769156D01*
X543792Y769179D01*
X543698Y769207D01*
X543673Y769206D01*
X543650Y769212D01*
X543552Y769202D01*
X543454Y769199D01*
X543431Y769191D01*
X543407Y769188D01*
X543318Y769148D01*
X543226Y769113D01*
X543207Y769098D01*
X543184Y769088D01*
X543070Y768994D01*
X542332Y768256D01*
X542275Y768177D01*
X542213Y768102D01*
X542205Y768078D01*
X542190Y768058D01*
X542162Y767965D01*
X542127Y767873D01*
X542124Y767840D01*
X542119Y767824D01*
X542120Y767799D01*
X542113Y767726D01*
X542113Y730731D01*
X542129Y730635D01*
X542138Y730538D01*
X542148Y730515D01*
X542152Y730491D01*
X542198Y730405D01*
X542239Y730316D01*
X542260Y730290D01*
X542267Y730275D01*
X542286Y730258D01*
X542332Y730202D01*
X542513Y730020D01*
X543863Y726763D01*
X543863Y723237D01*
X542513Y719980D01*
X540020Y717487D01*
X536763Y716137D01*
X533237Y716137D01*
X529980Y717487D01*
X527487Y719980D01*
X526137Y723237D01*
X526137Y726763D01*
X527487Y730020D01*
X527668Y730202D01*
X527725Y730281D01*
X527787Y730356D01*
X527795Y730380D01*
X527810Y730400D01*
X527838Y730493D01*
X527873Y730584D01*
X527876Y730617D01*
X527881Y730633D01*
X527880Y730658D01*
X527887Y730731D01*
X527887Y762376D01*
X527865Y762509D01*
X527848Y762616D01*
X527786Y762732D01*
X527733Y762831D01*
X527733Y762832D01*
X527656Y762903D01*
X527555Y762998D01*
X527554Y762999D01*
X527425Y763068D01*
X522699Y765025D01*
X518625Y769099D01*
X516421Y774420D01*
X516421Y780180D01*
X518625Y785501D01*
X522699Y789575D01*
X525567Y790763D01*
X525650Y790814D01*
X525737Y790860D01*
X525754Y790879D01*
X525775Y790892D01*
X525837Y790967D01*
X525903Y791039D01*
X525914Y791061D01*
X525929Y791080D01*
X525964Y791172D01*
X526004Y791261D01*
X526007Y791285D01*
X526015Y791309D01*
X526019Y791406D01*
X526028Y791504D01*
X526023Y791528D01*
X526024Y791552D01*
X525995Y791646D01*
X525973Y791741D01*
X525960Y791762D01*
X525953Y791786D01*
X525896Y791865D01*
X525844Y791949D01*
X525825Y791964D01*
X525811Y791984D01*
X525731Y792041D01*
X525656Y792104D01*
X525633Y792112D01*
X525613Y792127D01*
X525519Y792155D01*
X525428Y792190D01*
X525395Y792193D01*
X525379Y792198D01*
X525354Y792197D01*
X525281Y792204D01*
X409519Y792204D01*
X409423Y792188D01*
X409326Y792179D01*
X409303Y792169D01*
X409279Y792165D01*
X409192Y792118D01*
X409103Y792078D01*
X409085Y792061D01*
X409063Y792050D01*
X408996Y791978D01*
X408925Y791911D01*
X408913Y791890D01*
X408897Y791872D01*
X408856Y791782D01*
X408810Y791696D01*
X408806Y791672D01*
X408796Y791649D01*
X408786Y791552D01*
X408770Y791456D01*
X408774Y791431D01*
X408772Y791406D01*
X408794Y791311D01*
X408810Y791215D01*
X408821Y791193D01*
X408827Y791169D01*
X408878Y791086D01*
X408924Y790999D01*
X408943Y790983D01*
X408956Y790961D01*
X409031Y790899D01*
X409102Y790832D01*
X409131Y790817D01*
X409144Y790807D01*
X409167Y790798D01*
X409233Y790763D01*
X412101Y789575D01*
X416175Y785501D01*
X418379Y780180D01*
X418379Y774420D01*
X416175Y769099D01*
X412101Y765025D01*
X407576Y763151D01*
X407575Y763151D01*
X407479Y763091D01*
X407368Y763022D01*
X407280Y762914D01*
X407213Y762834D01*
X407213Y762833D01*
X407161Y762696D01*
X407127Y762605D01*
X407127Y762604D01*
X407113Y762458D01*
X407113Y681585D01*
X406030Y678971D01*
X402674Y675615D01*
X402659Y675595D01*
X402640Y675579D01*
X402589Y675496D01*
X402531Y675416D01*
X402524Y675393D01*
X402511Y675372D01*
X402489Y675277D01*
X402461Y675183D01*
X402461Y675158D01*
X402456Y675135D01*
X402465Y675037D01*
X402468Y674939D01*
X402477Y674916D01*
X402479Y674892D01*
X402520Y674802D01*
X402554Y674711D01*
X402570Y674692D01*
X402580Y674669D01*
X402674Y674555D01*
X403606Y673623D01*
X405385Y669328D01*
X405385Y651472D01*
X403606Y647177D01*
X400319Y643890D01*
X399508Y643554D01*
X399425Y643503D01*
X399339Y643457D01*
X399322Y643438D01*
X399301Y643425D01*
X399239Y643350D01*
X399172Y643278D01*
X399161Y643256D01*
X399146Y643237D01*
X399111Y643145D01*
X399071Y643056D01*
X399068Y643032D01*
X399060Y643008D01*
X399056Y642911D01*
X399047Y642813D01*
X399052Y642789D01*
X399052Y642765D01*
X399080Y642671D01*
X399102Y642576D01*
X399115Y642555D01*
X399122Y642531D01*
X399179Y642452D01*
X399231Y642368D01*
X399250Y642353D01*
X399264Y642333D01*
X399344Y642276D01*
X399419Y642213D01*
X399442Y642205D01*
X399463Y642190D01*
X399556Y642162D01*
X399648Y642127D01*
X399680Y642124D01*
X399696Y642119D01*
X399721Y642120D01*
X399794Y642113D01*
X413006Y642113D01*
X413102Y642129D01*
X413199Y642138D01*
X413222Y642148D01*
X413246Y642152D01*
X413333Y642199D01*
X413422Y642239D01*
X413440Y642256D01*
X413461Y642267D01*
X413528Y642339D01*
X413600Y642406D01*
X413611Y642427D01*
X413628Y642445D01*
X413669Y642534D01*
X413715Y642621D01*
X413719Y642645D01*
X413729Y642668D01*
X413739Y642765D01*
X413755Y642861D01*
X413751Y642886D01*
X413753Y642911D01*
X413731Y643006D01*
X413715Y643102D01*
X413704Y643124D01*
X413698Y643148D01*
X413646Y643231D01*
X413600Y643318D01*
X413582Y643334D01*
X413569Y643356D01*
X413494Y643418D01*
X413422Y643485D01*
X413394Y643500D01*
X413381Y643510D01*
X413358Y643519D01*
X413292Y643554D01*
X412481Y643890D01*
X409194Y647177D01*
X407415Y651472D01*
X407415Y669328D01*
X409194Y673623D01*
X412481Y676910D01*
X416776Y678689D01*
X421424Y678689D01*
X425719Y676910D01*
X429006Y673623D01*
X430785Y669328D01*
X430785Y651472D01*
X429006Y647177D01*
X425719Y643890D01*
X424908Y643554D01*
X424825Y643503D01*
X424739Y643457D01*
X424722Y643438D01*
X424701Y643425D01*
X424639Y643350D01*
X424572Y643278D01*
X424561Y643256D01*
X424546Y643237D01*
X424511Y643145D01*
X424471Y643056D01*
X424468Y643032D01*
X424460Y643008D01*
X424456Y642911D01*
X424447Y642813D01*
X424452Y642789D01*
X424452Y642765D01*
X424480Y642671D01*
X424502Y642576D01*
X424515Y642555D01*
X424522Y642531D01*
X424579Y642452D01*
X424631Y642368D01*
X424650Y642353D01*
X424664Y642333D01*
X424744Y642276D01*
X424819Y642213D01*
X424842Y642205D01*
X424863Y642190D01*
X424956Y642162D01*
X425048Y642127D01*
X425080Y642124D01*
X425096Y642119D01*
X425121Y642120D01*
X425194Y642113D01*
X450415Y642113D01*
X453029Y641030D01*
X457977Y636082D01*
X458056Y636025D01*
X458131Y635963D01*
X458155Y635955D01*
X458175Y635940D01*
X458268Y635912D01*
X458360Y635877D01*
X458393Y635874D01*
X458409Y635869D01*
X458433Y635870D01*
X458507Y635863D01*
X458763Y635863D01*
X462020Y634513D01*
X464513Y632020D01*
X465863Y628763D01*
X465863Y625237D01*
X464513Y621980D01*
X462020Y619487D01*
X458763Y618137D01*
X455237Y618137D01*
X451980Y619487D01*
X449487Y621980D01*
X448137Y625237D01*
X448137Y625493D01*
X448131Y625534D01*
X448132Y625546D01*
X448121Y625591D01*
X448112Y625687D01*
X448102Y625709D01*
X448098Y625734D01*
X448081Y625766D01*
X448076Y625784D01*
X448046Y625833D01*
X448011Y625909D01*
X447990Y625935D01*
X447983Y625949D01*
X447964Y625966D01*
X447959Y625974D01*
X447948Y625991D01*
X447937Y626000D01*
X447918Y626023D01*
X446273Y627668D01*
X446194Y627725D01*
X446119Y627787D01*
X446095Y627795D01*
X446075Y627810D01*
X445982Y627838D01*
X445890Y627873D01*
X445857Y627876D01*
X445841Y627881D01*
X445817Y627880D01*
X445743Y627887D01*
X440276Y627887D01*
X440227Y627879D01*
X440178Y627881D01*
X440108Y627860D01*
X440035Y627848D01*
X439992Y627824D01*
X439945Y627810D01*
X439885Y627767D01*
X439820Y627733D01*
X439786Y627697D01*
X439746Y627668D01*
X439703Y627608D01*
X439653Y627555D01*
X439633Y627510D01*
X439604Y627470D01*
X439583Y627399D01*
X439552Y627332D01*
X439547Y627283D01*
X439533Y627237D01*
X439535Y627163D01*
X439528Y627089D01*
X439539Y627042D01*
X439541Y626993D01*
X439583Y626853D01*
X439583Y626852D01*
X439583Y626851D01*
X440863Y623763D01*
X440863Y620237D01*
X439513Y616980D01*
X439332Y616798D01*
X439275Y616719D01*
X439213Y616644D01*
X439205Y616620D01*
X439190Y616600D01*
X439162Y616506D01*
X439127Y616416D01*
X439124Y616383D01*
X439119Y616367D01*
X439120Y616342D01*
X439113Y616269D01*
X439113Y602341D01*
X439121Y602293D01*
X439119Y602244D01*
X439140Y602173D01*
X439152Y602101D01*
X439176Y602057D01*
X439190Y602010D01*
X439233Y601950D01*
X439267Y601885D01*
X439303Y601852D01*
X439332Y601812D01*
X439392Y601769D01*
X439445Y601718D01*
X439490Y601698D01*
X439530Y601670D01*
X439601Y601648D01*
X439668Y601618D01*
X439717Y601613D01*
X439763Y601599D01*
X439837Y601601D01*
X439911Y601594D01*
X439958Y601605D01*
X440007Y601606D01*
X440147Y601649D01*
X440148Y601649D01*
X440149Y601649D01*
X442176Y602489D01*
X446824Y602489D01*
X451119Y600710D01*
X454406Y597423D01*
X456185Y593128D01*
X456185Y575272D01*
X454406Y570977D01*
X451119Y567690D01*
X446824Y565911D01*
X442176Y565911D01*
X440149Y566751D01*
X440101Y566762D01*
X440056Y566782D01*
X439983Y566790D01*
X439911Y566806D01*
X439862Y566802D01*
X439813Y566806D01*
X439742Y566790D01*
X439668Y566782D01*
X439624Y566762D01*
X439576Y566751D01*
X439513Y566712D01*
X439446Y566682D01*
X439410Y566648D01*
X439368Y566622D01*
X439322Y566565D01*
X439268Y566515D01*
X439245Y566472D01*
X439213Y566434D01*
X439187Y566365D01*
X439153Y566300D01*
X439145Y566252D01*
X439127Y566206D01*
X439113Y566060D01*
X439113Y566059D01*
X439113Y516585D01*
X438030Y513971D01*
X416332Y492273D01*
X416275Y492194D01*
X416213Y492119D01*
X416205Y492095D01*
X416190Y492075D01*
X416162Y491982D01*
X416127Y491890D01*
X416124Y491857D01*
X416119Y491841D01*
X416120Y491817D01*
X416113Y491743D01*
X416113Y302731D01*
X416129Y302635D01*
X416138Y302538D01*
X416148Y302515D01*
X416152Y302491D01*
X416198Y302405D01*
X416239Y302316D01*
X416260Y302290D01*
X416267Y302275D01*
X416286Y302258D01*
X416332Y302202D01*
X416513Y302020D01*
X417863Y298763D01*
X417863Y295237D01*
X416513Y291980D01*
X414020Y289487D01*
X410763Y288137D01*
X407237Y288137D01*
X403980Y289487D01*
X401487Y291980D01*
X400554Y294231D01*
X400503Y294314D01*
X400457Y294400D01*
X400438Y294417D01*
X400425Y294438D01*
X400350Y294500D01*
X400278Y294567D01*
X400256Y294577D01*
X400237Y294593D01*
X400145Y294627D01*
X400056Y294667D01*
X400032Y294670D01*
X400008Y294679D01*
X399911Y294682D01*
X399813Y294692D01*
X399789Y294686D01*
X399765Y294687D01*
X399671Y294658D01*
X399576Y294636D01*
X399555Y294623D01*
X399531Y294616D01*
X399452Y294559D01*
X399368Y294508D01*
X399353Y294488D01*
X399333Y294474D01*
X399276Y294395D01*
X399213Y294319D01*
X399205Y294296D01*
X399190Y294276D01*
X399162Y294182D01*
X399127Y294091D01*
X399124Y294058D01*
X399119Y294042D01*
X399120Y294017D01*
X399113Y293944D01*
X399113Y281067D01*
X399129Y280971D01*
X399138Y280874D01*
X399148Y280851D01*
X399152Y280826D01*
X399198Y280740D01*
X399239Y280652D01*
X399260Y280626D01*
X399267Y280611D01*
X399286Y280594D01*
X399332Y280537D01*
X426030Y253840D01*
X427113Y251225D01*
X427113Y144731D01*
X427129Y144635D01*
X427138Y144538D01*
X427148Y144515D01*
X427152Y144491D01*
X427198Y144405D01*
X427239Y144316D01*
X427260Y144290D01*
X427267Y144275D01*
X427286Y144258D01*
X427332Y144202D01*
X427513Y144020D01*
X428863Y140763D01*
X428863Y137237D01*
X427513Y133980D01*
X425020Y131487D01*
X421763Y130137D01*
X418237Y130137D01*
X414980Y131487D01*
X412487Y133980D01*
X411137Y137237D01*
X411137Y140763D01*
X412487Y144020D01*
X412668Y144202D01*
X412725Y144281D01*
X412787Y144356D01*
X412795Y144380D01*
X412810Y144400D01*
X412838Y144493D01*
X412873Y144584D01*
X412876Y144617D01*
X412881Y144633D01*
X412880Y144658D01*
X412887Y144731D01*
X412887Y246554D01*
X412871Y246650D01*
X412862Y246747D01*
X412852Y246770D01*
X412848Y246795D01*
X412802Y246881D01*
X412761Y246970D01*
X412740Y246995D01*
X412733Y247010D01*
X412714Y247027D01*
X412668Y247084D01*
X385970Y273782D01*
X384887Y276396D01*
X384887Y569574D01*
X384871Y569670D01*
X384862Y569767D01*
X384852Y569790D01*
X384848Y569814D01*
X384802Y569900D01*
X384761Y569989D01*
X384740Y570015D01*
X384733Y570030D01*
X384714Y570047D01*
X384668Y570104D01*
X383794Y570977D01*
X382015Y575272D01*
X382015Y593128D01*
X383794Y597423D01*
X387081Y600710D01*
X391376Y602489D01*
X396024Y602489D01*
X398851Y601318D01*
X398899Y601307D01*
X398944Y601286D01*
X399017Y601279D01*
X399089Y601262D01*
X399138Y601267D01*
X399187Y601262D01*
X399258Y601279D01*
X399332Y601286D01*
X399376Y601306D01*
X399424Y601317D01*
X399487Y601356D01*
X399554Y601387D01*
X399590Y601420D01*
X399632Y601446D01*
X399678Y601503D01*
X399732Y601554D01*
X399755Y601597D01*
X399787Y601635D01*
X399813Y601704D01*
X399847Y601769D01*
X399855Y601817D01*
X399873Y601863D01*
X399887Y602009D01*
X399887Y602010D01*
X399887Y605269D01*
X399883Y605292D01*
X399886Y605316D01*
X399869Y605387D01*
X399862Y605462D01*
X399852Y605485D01*
X399848Y605509D01*
X399836Y605532D01*
X399830Y605554D01*
X399793Y605614D01*
X399761Y605684D01*
X399740Y605710D01*
X399733Y605725D01*
X399714Y605742D01*
X399713Y605744D01*
X399702Y605761D01*
X399691Y605770D01*
X399668Y605798D01*
X398487Y606980D01*
X397137Y610237D01*
X397137Y613763D01*
X398487Y617020D01*
X400980Y619513D01*
X404237Y620863D01*
X407763Y620863D01*
X411020Y619513D01*
X413513Y617020D01*
X414863Y613763D01*
X414863Y610237D01*
X414170Y608564D01*
X414153Y608493D01*
X414150Y608486D01*
X414138Y608459D01*
X414138Y608452D01*
X414127Y608424D01*
X414120Y608351D01*
X414114Y608326D01*
X414116Y608310D01*
X414113Y608277D01*
X414113Y602507D01*
X414121Y602459D01*
X414119Y602410D01*
X414140Y602339D01*
X414152Y602266D01*
X414176Y602223D01*
X414190Y602176D01*
X414233Y602116D01*
X414267Y602051D01*
X414303Y602017D01*
X414332Y601978D01*
X414392Y601935D01*
X414445Y601884D01*
X414490Y601864D01*
X414530Y601835D01*
X414600Y601814D01*
X414668Y601783D01*
X414717Y601779D01*
X414763Y601764D01*
X414837Y601767D01*
X414911Y601759D01*
X414958Y601770D01*
X415007Y601772D01*
X415147Y601814D01*
X415148Y601815D01*
X415149Y601815D01*
X416776Y602489D01*
X421424Y602489D01*
X423851Y601483D01*
X423899Y601472D01*
X423944Y601452D01*
X424017Y601445D01*
X424089Y601428D01*
X424138Y601433D01*
X424187Y601428D01*
X424258Y601445D01*
X424332Y601452D01*
X424376Y601472D01*
X424424Y601483D01*
X424487Y601522D01*
X424554Y601552D01*
X424590Y601586D01*
X424632Y601612D01*
X424678Y601669D01*
X424732Y601719D01*
X424755Y601762D01*
X424787Y601800D01*
X424813Y601869D01*
X424847Y601934D01*
X424855Y601983D01*
X424873Y602029D01*
X424887Y602174D01*
X424887Y602175D01*
X424887Y602176D01*
X424887Y616269D01*
X424871Y616365D01*
X424862Y616462D01*
X424852Y616485D01*
X424848Y616509D01*
X424802Y616595D01*
X424761Y616684D01*
X424740Y616710D01*
X424733Y616725D01*
X424714Y616742D01*
X424668Y616798D01*
X424487Y616980D01*
X423137Y620237D01*
X423137Y623763D01*
X424417Y626851D01*
X424428Y626899D01*
X424448Y626944D01*
X424455Y627017D01*
X424472Y627089D01*
X424467Y627138D01*
X424472Y627187D01*
X424455Y627258D01*
X424448Y627332D01*
X424428Y627376D01*
X424417Y627424D01*
X424378Y627487D01*
X424347Y627554D01*
X424314Y627590D01*
X424288Y627632D01*
X424231Y627678D01*
X424181Y627732D01*
X424137Y627755D01*
X424100Y627787D01*
X424031Y627813D01*
X423966Y627847D01*
X423917Y627855D01*
X423871Y627873D01*
X423726Y627887D01*
X423725Y627887D01*
X423724Y627887D01*
X363862Y627887D01*
X363838Y627883D01*
X363813Y627886D01*
X363718Y627864D01*
X363621Y627848D01*
X363600Y627836D01*
X363576Y627830D01*
X363492Y627779D01*
X363406Y627733D01*
X363389Y627715D01*
X363368Y627702D01*
X363306Y627626D01*
X363239Y627555D01*
X363229Y627532D01*
X363213Y627513D01*
X363179Y627422D01*
X363138Y627332D01*
X363136Y627308D01*
X363127Y627285D01*
X363113Y627138D01*
X363113Y623585D01*
X362030Y620971D01*
X360029Y618970D01*
X357415Y617887D01*
X295585Y617887D01*
X292971Y618970D01*
X290865Y621076D01*
X286273Y625668D01*
X286194Y625725D01*
X286119Y625787D01*
X286095Y625795D01*
X286075Y625810D01*
X285982Y625838D01*
X285890Y625873D01*
X285857Y625876D01*
X285841Y625881D01*
X285817Y625880D01*
X285743Y625887D01*
X281263Y625887D01*
X281167Y625871D01*
X281069Y625862D01*
X281047Y625852D01*
X281022Y625848D01*
X280936Y625801D01*
X280847Y625761D01*
X280829Y625744D01*
X280807Y625733D01*
X280741Y625661D01*
X280669Y625594D01*
X280657Y625573D01*
X280640Y625555D01*
X280600Y625466D01*
X280554Y625379D01*
X280550Y625355D01*
X280540Y625332D01*
X280530Y625235D01*
X280514Y625139D01*
X280518Y625114D01*
X280516Y625089D01*
X280538Y624994D01*
X280554Y624898D01*
X280565Y624876D01*
X280571Y624852D01*
X280623Y624768D01*
X280668Y624682D01*
X280686Y624666D01*
X280699Y624644D01*
X280775Y624582D01*
X280846Y624515D01*
X280875Y624500D01*
X280888Y624490D01*
X280911Y624481D01*
X280977Y624446D01*
X282020Y624013D01*
X284513Y621520D01*
X285863Y618263D01*
X285863Y614737D01*
X284513Y611480D01*
X282020Y608987D01*
X278763Y607637D01*
X278507Y607637D01*
X278410Y607621D01*
X278313Y607612D01*
X278291Y607602D01*
X278266Y607598D01*
X278180Y607552D01*
X278091Y607511D01*
X278065Y607490D01*
X278051Y607483D01*
X278034Y607464D01*
X277977Y607418D01*
X270332Y599773D01*
X270283Y599705D01*
X270269Y599690D01*
X270266Y599683D01*
X270213Y599619D01*
X270205Y599595D01*
X270190Y599575D01*
X270162Y599482D01*
X270127Y599390D01*
X270124Y599357D01*
X270119Y599341D01*
X270120Y599317D01*
X270113Y599243D01*
X270113Y448585D01*
X269030Y445971D01*
X232731Y409672D01*
X232688Y409612D01*
X232638Y409558D01*
X232617Y409514D01*
X232589Y409473D01*
X232567Y409403D01*
X232537Y409336D01*
X232532Y409287D01*
X232518Y409240D01*
X232520Y409167D01*
X232513Y409093D01*
X232524Y409045D01*
X232526Y408996D01*
X232551Y408927D01*
X232568Y408856D01*
X232594Y408814D01*
X232611Y408768D01*
X232658Y408711D01*
X232697Y408648D01*
X232735Y408617D01*
X232766Y408579D01*
X232828Y408540D01*
X232885Y408493D01*
X232931Y408476D01*
X232973Y408450D01*
X233045Y408433D01*
X233114Y408407D01*
X233187Y408400D01*
X233211Y408394D01*
X233227Y408396D01*
X233260Y408393D01*
X241350Y408393D01*
X248493Y401250D01*
X248493Y399943D01*
X248495Y399930D01*
X248494Y399925D01*
X248499Y399904D01*
X248509Y399846D01*
X248518Y399749D01*
X248528Y399726D01*
X248532Y399702D01*
X248579Y399616D01*
X248619Y399527D01*
X248636Y399509D01*
X248647Y399487D01*
X248719Y399420D01*
X248786Y399348D01*
X248807Y399337D01*
X248825Y399320D01*
X248914Y399279D01*
X249001Y399233D01*
X249025Y399229D01*
X249048Y399219D01*
X249145Y399209D01*
X249241Y399193D01*
X249266Y399197D01*
X249291Y399195D01*
X249386Y399217D01*
X249482Y399233D01*
X249504Y399245D01*
X249528Y399250D01*
X249611Y399302D01*
X249698Y399348D01*
X249714Y399366D01*
X249736Y399379D01*
X249798Y399454D01*
X249865Y399526D01*
X249880Y399555D01*
X249890Y399567D01*
X249899Y399591D01*
X249934Y399656D01*
X251363Y403107D01*
X254793Y406537D01*
X259275Y408393D01*
X264125Y408393D01*
X268607Y406536D01*
X270311Y404832D01*
X270390Y404775D01*
X270465Y404713D01*
X270489Y404705D01*
X270509Y404690D01*
X270603Y404662D01*
X270694Y404627D01*
X270727Y404624D01*
X270743Y404619D01*
X270768Y404620D01*
X270841Y404613D01*
X297243Y404613D01*
X297340Y404629D01*
X297436Y404638D01*
X297459Y404648D01*
X297484Y404652D01*
X297570Y404698D01*
X297659Y404738D01*
X297685Y404760D01*
X297699Y404767D01*
X297716Y404786D01*
X297773Y404832D01*
X297799Y404858D01*
X297842Y404918D01*
X297892Y404972D01*
X297913Y405016D01*
X297941Y405056D01*
X297963Y405127D01*
X297993Y405194D01*
X297998Y405243D01*
X298012Y405290D01*
X298010Y405363D01*
X298017Y405437D01*
X298006Y405484D01*
X298005Y405533D01*
X297979Y405602D01*
X297962Y405674D01*
X297936Y405716D01*
X297919Y405762D01*
X297872Y405819D01*
X297833Y405882D01*
X297795Y405913D01*
X297764Y405951D01*
X297702Y405990D01*
X297645Y406037D01*
X297599Y406054D01*
X297557Y406080D01*
X297485Y406097D01*
X297416Y406123D01*
X297344Y406130D01*
X297320Y406136D01*
X297303Y406134D01*
X297270Y406137D01*
X294237Y406137D01*
X290980Y407487D01*
X288487Y409980D01*
X287137Y413237D01*
X287137Y413493D01*
X287135Y413505D01*
X287136Y413508D01*
X287133Y413521D01*
X287121Y413590D01*
X287112Y413687D01*
X287102Y413709D01*
X287098Y413734D01*
X287051Y413820D01*
X287011Y413909D01*
X286990Y413935D01*
X286983Y413949D01*
X286964Y413966D01*
X286918Y414023D01*
X286076Y414865D01*
X283970Y416971D01*
X282887Y419585D01*
X282887Y521415D01*
X283970Y524029D01*
X284768Y524827D01*
X284825Y524906D01*
X284887Y524981D01*
X284895Y525005D01*
X284910Y525025D01*
X284938Y525118D01*
X284973Y525210D01*
X284976Y525243D01*
X284981Y525259D01*
X284980Y525283D01*
X284987Y525357D01*
X284987Y567874D01*
X284971Y567970D01*
X284962Y568067D01*
X284952Y568090D01*
X284948Y568114D01*
X284902Y568201D01*
X284861Y568289D01*
X284840Y568315D01*
X284833Y568330D01*
X284814Y568347D01*
X284768Y568404D01*
X282194Y570977D01*
X280415Y575272D01*
X280415Y593128D01*
X282194Y597423D01*
X285481Y600710D01*
X289776Y602489D01*
X294424Y602489D01*
X298719Y600710D01*
X302006Y597423D01*
X303785Y593128D01*
X303785Y575272D01*
X302006Y570977D01*
X299432Y568404D01*
X299375Y568324D01*
X299313Y568249D01*
X299305Y568226D01*
X299290Y568205D01*
X299262Y568112D01*
X299227Y568021D01*
X299224Y567988D01*
X299219Y567972D01*
X299220Y567947D01*
X299213Y567874D01*
X299213Y518585D01*
X298130Y515971D01*
X297332Y515173D01*
X297275Y515094D01*
X297213Y515019D01*
X297205Y514995D01*
X297190Y514975D01*
X297162Y514882D01*
X297127Y514790D01*
X297124Y514757D01*
X297119Y514741D01*
X297120Y514717D01*
X297113Y514643D01*
X297113Y424612D01*
X297117Y424588D01*
X297114Y424563D01*
X297136Y424468D01*
X297152Y424371D01*
X297164Y424350D01*
X297170Y424326D01*
X297221Y424242D01*
X297267Y424156D01*
X297285Y424139D01*
X297298Y424118D01*
X297374Y424056D01*
X297445Y423989D01*
X297468Y423979D01*
X297487Y423963D01*
X297578Y423929D01*
X297668Y423888D01*
X297692Y423886D01*
X297715Y423877D01*
X297732Y423876D01*
X301020Y422513D01*
X303513Y420020D01*
X304863Y416763D01*
X304863Y413730D01*
X304875Y413658D01*
X304877Y413585D01*
X304894Y413538D01*
X304902Y413490D01*
X304937Y413425D01*
X304963Y413356D01*
X304994Y413318D01*
X305017Y413275D01*
X305071Y413224D01*
X305118Y413167D01*
X305159Y413141D01*
X305195Y413108D01*
X305262Y413077D01*
X305325Y413038D01*
X305373Y413027D01*
X305418Y413007D01*
X305491Y413000D01*
X305562Y412983D01*
X305611Y412988D01*
X305661Y412983D01*
X305732Y412999D01*
X305805Y413007D01*
X305850Y413027D01*
X305898Y413038D01*
X305961Y413077D01*
X306028Y413107D01*
X306084Y413154D01*
X306106Y413167D01*
X306116Y413180D01*
X306142Y413201D01*
X310168Y417227D01*
X310225Y417306D01*
X310287Y417381D01*
X310295Y417405D01*
X310310Y417425D01*
X310338Y417518D01*
X310373Y417610D01*
X310376Y417643D01*
X310381Y417659D01*
X310380Y417683D01*
X310387Y417757D01*
X310387Y567874D01*
X310371Y567970D01*
X310362Y568067D01*
X310352Y568090D01*
X310348Y568114D01*
X310302Y568201D01*
X310261Y568289D01*
X310240Y568315D01*
X310233Y568330D01*
X310214Y568347D01*
X310168Y568404D01*
X307594Y570977D01*
X305815Y575272D01*
X305815Y593128D01*
X307594Y597423D01*
X310881Y600710D01*
X315176Y602489D01*
X319824Y602489D01*
X324119Y600710D01*
X327406Y597423D01*
X329185Y593128D01*
X329185Y575272D01*
X327406Y570977D01*
X324832Y568404D01*
X324775Y568324D01*
X324713Y568249D01*
X324705Y568226D01*
X324690Y568205D01*
X324662Y568112D01*
X324627Y568021D01*
X324624Y567988D01*
X324619Y567972D01*
X324620Y567947D01*
X324613Y567874D01*
X324613Y413085D01*
X323530Y410471D01*
X304529Y391470D01*
X301915Y390387D01*
X272990Y390387D01*
X272860Y390366D01*
X272750Y390348D01*
X272749Y390348D01*
X272634Y390286D01*
X272535Y390233D01*
X272534Y390233D01*
X272450Y390143D01*
X272368Y390055D01*
X272367Y390055D01*
X272367Y390054D01*
X272298Y389925D01*
X272037Y389293D01*
X268607Y385863D01*
X265156Y384434D01*
X265073Y384383D01*
X264987Y384337D01*
X264970Y384318D01*
X264949Y384305D01*
X264887Y384230D01*
X264820Y384158D01*
X264810Y384136D01*
X264794Y384117D01*
X264759Y384025D01*
X264719Y383936D01*
X264717Y383912D01*
X264708Y383888D01*
X264705Y383791D01*
X264695Y383693D01*
X264701Y383669D01*
X264700Y383645D01*
X264728Y383551D01*
X264750Y383456D01*
X264763Y383435D01*
X264770Y383411D01*
X264827Y383332D01*
X264879Y383248D01*
X264898Y383233D01*
X264912Y383213D01*
X264992Y383156D01*
X265067Y383093D01*
X265091Y383085D01*
X265111Y383070D01*
X265204Y383042D01*
X265296Y383007D01*
X265328Y383004D01*
X265344Y382999D01*
X265369Y383000D01*
X265443Y382993D01*
X266750Y382993D01*
X269911Y379832D01*
X269990Y379775D01*
X270065Y379713D01*
X270089Y379705D01*
X270109Y379690D01*
X270203Y379662D01*
X270294Y379627D01*
X270327Y379624D01*
X270343Y379619D01*
X270368Y379620D01*
X270441Y379613D01*
X296743Y379613D01*
X296840Y379629D01*
X296937Y379638D01*
X296959Y379648D01*
X296984Y379652D01*
X297070Y379698D01*
X297159Y379739D01*
X297185Y379760D01*
X297199Y379767D01*
X297216Y379786D01*
X297273Y379832D01*
X335168Y417727D01*
X335225Y417806D01*
X335287Y417881D01*
X335295Y417905D01*
X335310Y417925D01*
X335338Y418018D01*
X335373Y418110D01*
X335376Y418143D01*
X335381Y418159D01*
X335380Y418183D01*
X335387Y418257D01*
X335387Y568274D01*
X335371Y568370D01*
X335362Y568467D01*
X335352Y568490D01*
X335348Y568514D01*
X335302Y568601D01*
X335261Y568689D01*
X335240Y568715D01*
X335233Y568730D01*
X335214Y568747D01*
X335168Y568804D01*
X332994Y570977D01*
X331215Y575272D01*
X331215Y593128D01*
X332994Y597423D01*
X336281Y600710D01*
X340576Y602489D01*
X345224Y602489D01*
X349519Y600710D01*
X352806Y597423D01*
X354585Y593128D01*
X354585Y575272D01*
X352806Y570977D01*
X349832Y568004D01*
X349775Y567924D01*
X349713Y567849D01*
X349705Y567826D01*
X349690Y567805D01*
X349662Y567712D01*
X349627Y567621D01*
X349624Y567588D01*
X349619Y567572D01*
X349620Y567547D01*
X349613Y567474D01*
X349613Y413585D01*
X348530Y410971D01*
X346424Y408865D01*
X304029Y366470D01*
X301415Y365387D01*
X273841Y365387D01*
X273744Y365371D01*
X273648Y365362D01*
X273625Y365352D01*
X273600Y365348D01*
X273514Y365302D01*
X273425Y365261D01*
X273400Y365240D01*
X273385Y365233D01*
X273368Y365214D01*
X273311Y365168D01*
X266773Y358630D01*
X266759Y358610D01*
X266740Y358594D01*
X266688Y358511D01*
X266631Y358431D01*
X266624Y358408D01*
X266611Y358387D01*
X266588Y358292D01*
X266560Y358198D01*
X266561Y358173D01*
X266555Y358150D01*
X266565Y358052D01*
X266568Y357954D01*
X266576Y357931D01*
X266579Y357907D01*
X266619Y357818D01*
X266654Y357726D01*
X266669Y357707D01*
X266679Y357684D01*
X266773Y357570D01*
X271611Y352732D01*
X271690Y352675D01*
X271765Y352613D01*
X271789Y352605D01*
X271809Y352590D01*
X271903Y352562D01*
X271994Y352527D01*
X272027Y352524D01*
X272043Y352519D01*
X272068Y352520D01*
X272141Y352513D01*
X318015Y352513D01*
X320629Y351430D01*
X336030Y336029D01*
X337113Y333415D01*
X337113Y292731D01*
X337129Y292635D01*
X337138Y292538D01*
X337148Y292515D01*
X337152Y292491D01*
X337198Y292405D01*
X337239Y292316D01*
X337260Y292290D01*
X337267Y292275D01*
X337286Y292258D01*
X337332Y292202D01*
X337513Y292020D01*
X338863Y288763D01*
X338863Y287167D01*
X338875Y287095D01*
X338877Y287022D01*
X338898Y286951D01*
X338902Y286927D01*
X338910Y286912D01*
X338920Y286881D01*
X339113Y286415D01*
X339113Y191830D01*
X339117Y191806D01*
X339114Y191781D01*
X339136Y191686D01*
X339152Y191589D01*
X339164Y191568D01*
X339170Y191544D01*
X339221Y191460D01*
X339267Y191374D01*
X339285Y191357D01*
X339298Y191336D01*
X339374Y191274D01*
X339445Y191207D01*
X339468Y191197D01*
X339487Y191181D01*
X339514Y191171D01*
X341470Y189215D01*
X341490Y189201D01*
X341506Y189182D01*
X341589Y189130D01*
X341669Y189073D01*
X341692Y189066D01*
X341713Y189053D01*
X341808Y189031D01*
X341902Y189002D01*
X341927Y189003D01*
X341950Y188997D01*
X342048Y189007D01*
X342146Y189010D01*
X342169Y189019D01*
X342193Y189021D01*
X342282Y189061D01*
X342374Y189096D01*
X342393Y189111D01*
X342416Y189121D01*
X342530Y189215D01*
X344395Y191081D01*
X359605Y191081D01*
X359908Y190777D01*
X359968Y190734D01*
X360022Y190684D01*
X360066Y190664D01*
X360107Y190635D01*
X360177Y190614D01*
X360244Y190583D01*
X360293Y190578D01*
X360340Y190564D01*
X360413Y190566D01*
X360487Y190559D01*
X360535Y190570D01*
X360584Y190572D01*
X360653Y190598D01*
X360724Y190614D01*
X360766Y190640D01*
X360812Y190658D01*
X360869Y190704D01*
X360932Y190743D01*
X360963Y190781D01*
X361001Y190812D01*
X361040Y190875D01*
X361087Y190932D01*
X361104Y190978D01*
X361130Y191020D01*
X361147Y191091D01*
X361173Y191160D01*
X361180Y191233D01*
X361186Y191257D01*
X361184Y191274D01*
X361187Y191307D01*
X361187Y567874D01*
X361171Y567970D01*
X361162Y568067D01*
X361152Y568090D01*
X361148Y568114D01*
X361102Y568201D01*
X361061Y568289D01*
X361040Y568315D01*
X361033Y568330D01*
X361014Y568347D01*
X360968Y568403D01*
X358394Y570977D01*
X356615Y575272D01*
X356615Y593128D01*
X358394Y597423D01*
X361681Y600710D01*
X365976Y602489D01*
X370624Y602489D01*
X374919Y600710D01*
X378206Y597423D01*
X379985Y593128D01*
X379985Y575272D01*
X378206Y570977D01*
X375632Y568403D01*
X375575Y568324D01*
X375513Y568249D01*
X375505Y568226D01*
X375490Y568205D01*
X375462Y568112D01*
X375427Y568021D01*
X375424Y567988D01*
X375419Y567972D01*
X375420Y567947D01*
X375413Y567874D01*
X375413Y189362D01*
X375417Y189338D01*
X375414Y189313D01*
X375436Y189218D01*
X375452Y189121D01*
X375464Y189100D01*
X375470Y189076D01*
X375521Y188992D01*
X375567Y188906D01*
X375585Y188889D01*
X375598Y188868D01*
X375674Y188806D01*
X375745Y188739D01*
X375768Y188729D01*
X375787Y188713D01*
X375878Y188679D01*
X375968Y188638D01*
X375992Y188636D01*
X376015Y188627D01*
X376162Y188613D01*
X387500Y188613D01*
X387542Y188603D01*
X387785Y188627D01*
X388007Y188727D01*
X388121Y188821D01*
X390200Y190899D01*
X394868Y192833D01*
X399920Y192833D01*
X404588Y190899D01*
X408161Y187326D01*
X410095Y182658D01*
X410095Y162366D01*
X408161Y157698D01*
X404832Y154369D01*
X404775Y154289D01*
X404713Y154214D01*
X404705Y154191D01*
X404690Y154170D01*
X404662Y154077D01*
X404627Y153986D01*
X404624Y153953D01*
X404619Y153937D01*
X404620Y153912D01*
X404613Y153839D01*
X404613Y126161D01*
X404629Y126065D01*
X404638Y125968D01*
X404648Y125945D01*
X404652Y125920D01*
X404698Y125834D01*
X404739Y125746D01*
X404760Y125720D01*
X404767Y125705D01*
X404786Y125688D01*
X404832Y125631D01*
X408161Y122302D01*
X410095Y117634D01*
X410095Y97342D01*
X408161Y92674D01*
X404588Y89101D01*
X399920Y87167D01*
X394868Y87167D01*
X390200Y89101D01*
X386627Y92674D01*
X384693Y97342D01*
X384693Y117634D01*
X386627Y122302D01*
X390168Y125843D01*
X390225Y125923D01*
X390287Y125998D01*
X390295Y126021D01*
X390310Y126042D01*
X390338Y126135D01*
X390373Y126226D01*
X390376Y126259D01*
X390381Y126275D01*
X390380Y126300D01*
X390387Y126373D01*
X390387Y153627D01*
X390371Y153723D01*
X390362Y153820D01*
X390352Y153843D01*
X390348Y153868D01*
X390302Y153954D01*
X390261Y154042D01*
X390240Y154068D01*
X390233Y154083D01*
X390214Y154100D01*
X390168Y154157D01*
X386627Y157698D01*
X384693Y162366D01*
X384693Y172437D01*
X384677Y172534D01*
X384668Y172631D01*
X384658Y172653D01*
X384654Y172678D01*
X384608Y172764D01*
X384567Y172853D01*
X384546Y172879D01*
X384539Y172893D01*
X384520Y172910D01*
X384474Y172967D01*
X383273Y174168D01*
X383194Y174225D01*
X383119Y174287D01*
X383095Y174295D01*
X383075Y174310D01*
X382982Y174338D01*
X382890Y174373D01*
X382857Y174376D01*
X382841Y174381D01*
X382817Y174380D01*
X382743Y174387D01*
X363330Y174387D01*
X363306Y174383D01*
X363281Y174386D01*
X363186Y174364D01*
X363089Y174348D01*
X363068Y174336D01*
X363044Y174330D01*
X362960Y174279D01*
X362874Y174233D01*
X362857Y174215D01*
X362836Y174202D01*
X362774Y174126D01*
X362707Y174055D01*
X362697Y174032D01*
X362681Y174013D01*
X362647Y173922D01*
X362606Y173832D01*
X362604Y173808D01*
X362595Y173785D01*
X362581Y173638D01*
X362581Y169896D01*
X359604Y166919D01*
X344395Y166919D01*
X342530Y168785D01*
X342510Y168799D01*
X342494Y168818D01*
X342411Y168870D01*
X342331Y168927D01*
X342308Y168934D01*
X342287Y168947D01*
X342192Y168969D01*
X342098Y168998D01*
X342074Y168997D01*
X342050Y169003D01*
X341952Y168993D01*
X341854Y168990D01*
X341831Y168981D01*
X341807Y168979D01*
X341718Y168939D01*
X341626Y168904D01*
X341607Y168889D01*
X341584Y168879D01*
X341470Y168785D01*
X339502Y166816D01*
X339492Y166811D01*
X339406Y166765D01*
X339389Y166747D01*
X339368Y166734D01*
X339306Y166658D01*
X339239Y166587D01*
X339229Y166564D01*
X339213Y166545D01*
X339179Y166454D01*
X339138Y166364D01*
X339136Y166340D01*
X339127Y166317D01*
X339113Y166170D01*
X339113Y151830D01*
X339117Y151806D01*
X339114Y151781D01*
X339136Y151686D01*
X339152Y151589D01*
X339164Y151568D01*
X339170Y151544D01*
X339221Y151460D01*
X339267Y151374D01*
X339285Y151357D01*
X339298Y151336D01*
X339374Y151274D01*
X339445Y151207D01*
X339468Y151197D01*
X339487Y151181D01*
X339514Y151171D01*
X341470Y149215D01*
X341490Y149201D01*
X341506Y149182D01*
X341589Y149130D01*
X341669Y149073D01*
X341692Y149066D01*
X341713Y149053D01*
X341808Y149031D01*
X341902Y149002D01*
X341927Y149003D01*
X341950Y148997D01*
X342048Y149007D01*
X342146Y149010D01*
X342169Y149019D01*
X342193Y149021D01*
X342282Y149061D01*
X342374Y149096D01*
X342393Y149111D01*
X342416Y149121D01*
X342530Y149215D01*
X344395Y151081D01*
X353711Y151081D01*
X353808Y151097D01*
X353905Y151106D01*
X353927Y151116D01*
X353952Y151120D01*
X354038Y151166D01*
X354127Y151207D01*
X354153Y151228D01*
X354167Y151235D01*
X354184Y151254D01*
X354241Y151300D01*
X357338Y154397D01*
X357381Y154457D01*
X357431Y154510D01*
X357466Y154575D01*
X357480Y154596D01*
X357485Y154611D01*
X357501Y154640D01*
X358487Y157020D01*
X360980Y159513D01*
X364237Y160863D01*
X367763Y160863D01*
X371020Y159513D01*
X373513Y157020D01*
X374863Y153763D01*
X374863Y150237D01*
X373513Y146980D01*
X371020Y144487D01*
X367763Y143137D01*
X366507Y143137D01*
X366410Y143121D01*
X366313Y143112D01*
X366291Y143102D01*
X366266Y143098D01*
X366180Y143052D01*
X366091Y143011D01*
X366065Y142990D01*
X366051Y142983D01*
X366034Y142964D01*
X365977Y142918D01*
X362800Y139741D01*
X362753Y139675D01*
X362730Y139651D01*
X362725Y139639D01*
X362681Y139587D01*
X362673Y139563D01*
X362658Y139543D01*
X362630Y139450D01*
X362595Y139358D01*
X362592Y139325D01*
X362587Y139309D01*
X362588Y139285D01*
X362581Y139211D01*
X362581Y129896D01*
X359604Y126919D01*
X344395Y126919D01*
X342530Y128785D01*
X342510Y128799D01*
X342494Y128818D01*
X342411Y128870D01*
X342331Y128927D01*
X342308Y128934D01*
X342287Y128947D01*
X342192Y128969D01*
X342098Y128998D01*
X342074Y128997D01*
X342050Y129003D01*
X341952Y128993D01*
X341854Y128990D01*
X341831Y128981D01*
X341807Y128979D01*
X341718Y128939D01*
X341626Y128904D01*
X341607Y128889D01*
X341584Y128879D01*
X341470Y128785D01*
X339502Y126816D01*
X339492Y126811D01*
X339406Y126765D01*
X339389Y126747D01*
X339368Y126734D01*
X339306Y126658D01*
X339239Y126587D01*
X339229Y126564D01*
X339213Y126545D01*
X339179Y126454D01*
X339138Y126364D01*
X339136Y126340D01*
X339127Y126317D01*
X339113Y126170D01*
X339113Y112830D01*
X339117Y112806D01*
X339114Y112781D01*
X339136Y112686D01*
X339152Y112589D01*
X339164Y112568D01*
X339170Y112544D01*
X339221Y112460D01*
X339267Y112374D01*
X339285Y112357D01*
X339298Y112336D01*
X339374Y112274D01*
X339445Y112207D01*
X339468Y112197D01*
X339487Y112181D01*
X339514Y112171D01*
X341470Y110215D01*
X341490Y110201D01*
X341506Y110182D01*
X341584Y110133D01*
X341607Y110114D01*
X341615Y110111D01*
X341669Y110073D01*
X341692Y110066D01*
X341713Y110053D01*
X341808Y110031D01*
X341902Y110002D01*
X341927Y110003D01*
X341950Y109997D01*
X342048Y110007D01*
X342146Y110010D01*
X342169Y110019D01*
X342193Y110021D01*
X342282Y110061D01*
X342374Y110096D01*
X342393Y110111D01*
X342416Y110121D01*
X342470Y110166D01*
X342474Y110168D01*
X342478Y110172D01*
X342530Y110215D01*
X344395Y112081D01*
X359605Y112081D01*
X361574Y110111D01*
X361614Y110082D01*
X361648Y110047D01*
X361713Y110012D01*
X361773Y109969D01*
X361820Y109955D01*
X361863Y109931D01*
X361936Y109919D01*
X362006Y109898D01*
X362055Y109899D01*
X362104Y109891D01*
X362176Y109903D01*
X362250Y109906D01*
X362296Y109923D01*
X362344Y109931D01*
X362409Y109966D01*
X362478Y109992D01*
X362516Y110023D01*
X362560Y110046D01*
X362610Y110100D01*
X362667Y110146D01*
X362693Y110188D01*
X362727Y110224D01*
X362796Y110353D01*
X362796Y110354D01*
X363487Y112020D01*
X365980Y114513D01*
X369237Y115863D01*
X372763Y115863D01*
X376020Y114513D01*
X378513Y112020D01*
X379863Y108763D01*
X379863Y105237D01*
X378513Y101980D01*
X376020Y99487D01*
X372763Y98137D01*
X372507Y98137D01*
X372410Y98121D01*
X372313Y98112D01*
X372291Y98102D01*
X372266Y98098D01*
X372180Y98052D01*
X372091Y98011D01*
X372065Y97990D01*
X372051Y97983D01*
X372034Y97964D01*
X371977Y97918D01*
X368029Y93970D01*
X365415Y92887D01*
X363330Y92887D01*
X363306Y92883D01*
X363281Y92886D01*
X363186Y92864D01*
X363089Y92848D01*
X363068Y92836D01*
X363044Y92830D01*
X362960Y92779D01*
X362874Y92733D01*
X362857Y92715D01*
X362836Y92702D01*
X362774Y92626D01*
X362707Y92555D01*
X362697Y92532D01*
X362681Y92513D01*
X362647Y92422D01*
X362606Y92332D01*
X362604Y92308D01*
X362595Y92285D01*
X362581Y92138D01*
X362581Y90896D01*
X359604Y87919D01*
X344395Y87919D01*
X342530Y89785D01*
X342510Y89799D01*
X342494Y89818D01*
X342411Y89870D01*
X342331Y89927D01*
X342308Y89934D01*
X342287Y89947D01*
X342192Y89969D01*
X342098Y89998D01*
X342074Y89997D01*
X342050Y90003D01*
X341952Y89993D01*
X341854Y89990D01*
X341831Y89981D01*
X341807Y89979D01*
X341718Y89939D01*
X341626Y89904D01*
X341607Y89889D01*
X341584Y89879D01*
X341470Y89785D01*
X339604Y87919D01*
X324396Y87919D01*
X321419Y90896D01*
X321419Y109104D01*
X324498Y112184D01*
X324508Y112189D01*
X324594Y112235D01*
X324611Y112253D01*
X324632Y112266D01*
X324694Y112342D01*
X324761Y112413D01*
X324771Y112436D01*
X324787Y112455D01*
X324821Y112546D01*
X324862Y112636D01*
X324864Y112660D01*
X324873Y112683D01*
X324887Y112830D01*
X324887Y126170D01*
X324883Y126194D01*
X324886Y126219D01*
X324864Y126314D01*
X324848Y126411D01*
X324836Y126432D01*
X324830Y126456D01*
X324779Y126540D01*
X324733Y126626D01*
X324715Y126643D01*
X324702Y126664D01*
X324626Y126726D01*
X324555Y126793D01*
X324532Y126803D01*
X324513Y126819D01*
X324486Y126829D01*
X321419Y129896D01*
X321419Y148104D01*
X324498Y151184D01*
X324508Y151189D01*
X324594Y151235D01*
X324611Y151253D01*
X324632Y151266D01*
X324694Y151342D01*
X324761Y151413D01*
X324771Y151436D01*
X324787Y151455D01*
X324821Y151546D01*
X324862Y151636D01*
X324864Y151660D01*
X324873Y151683D01*
X324887Y151830D01*
X324887Y166170D01*
X324883Y166194D01*
X324886Y166219D01*
X324864Y166314D01*
X324848Y166411D01*
X324836Y166432D01*
X324830Y166456D01*
X324779Y166540D01*
X324733Y166626D01*
X324715Y166643D01*
X324702Y166664D01*
X324626Y166726D01*
X324555Y166793D01*
X324532Y166803D01*
X324513Y166819D01*
X324486Y166829D01*
X321419Y169896D01*
X321419Y188104D01*
X324498Y191184D01*
X324508Y191189D01*
X324594Y191235D01*
X324611Y191253D01*
X324632Y191266D01*
X324694Y191342D01*
X324761Y191413D01*
X324771Y191436D01*
X324787Y191455D01*
X324821Y191546D01*
X324862Y191636D01*
X324864Y191660D01*
X324873Y191683D01*
X324887Y191830D01*
X324887Y279269D01*
X324871Y279365D01*
X324862Y279462D01*
X324852Y279485D01*
X324848Y279509D01*
X324802Y279595D01*
X324761Y279684D01*
X324740Y279710D01*
X324733Y279725D01*
X324714Y279742D01*
X324668Y279798D01*
X322487Y281980D01*
X321137Y285237D01*
X321137Y288763D01*
X322487Y292020D01*
X322668Y292202D01*
X322725Y292281D01*
X322787Y292356D01*
X322795Y292380D01*
X322810Y292400D01*
X322838Y292493D01*
X322873Y292584D01*
X322876Y292617D01*
X322881Y292633D01*
X322880Y292658D01*
X322887Y292731D01*
X322887Y328743D01*
X322871Y328840D01*
X322862Y328937D01*
X322852Y328959D01*
X322848Y328984D01*
X322802Y329070D01*
X322761Y329159D01*
X322740Y329185D01*
X322733Y329199D01*
X322714Y329216D01*
X322668Y329273D01*
X313873Y338068D01*
X313794Y338125D01*
X313719Y338187D01*
X313695Y338195D01*
X313675Y338210D01*
X313582Y338238D01*
X313490Y338273D01*
X313457Y338276D01*
X313441Y338281D01*
X313417Y338280D01*
X313343Y338287D01*
X272141Y338287D01*
X272044Y338271D01*
X271947Y338262D01*
X271925Y338252D01*
X271900Y338248D01*
X271814Y338202D01*
X271725Y338161D01*
X271699Y338140D01*
X271685Y338133D01*
X271668Y338114D01*
X271611Y338068D01*
X266750Y333207D01*
X256650Y333207D01*
X249530Y340327D01*
X249510Y340341D01*
X249494Y340360D01*
X249411Y340412D01*
X249331Y340469D01*
X249308Y340476D01*
X249287Y340489D01*
X249192Y340512D01*
X249098Y340540D01*
X249073Y340539D01*
X249050Y340545D01*
X248952Y340535D01*
X248854Y340532D01*
X248831Y340524D01*
X248807Y340521D01*
X248718Y340481D01*
X248626Y340446D01*
X248607Y340431D01*
X248584Y340421D01*
X248470Y340327D01*
X241373Y333230D01*
X241359Y333210D01*
X241340Y333194D01*
X241288Y333111D01*
X241231Y333031D01*
X241224Y333008D01*
X241211Y332987D01*
X241188Y332892D01*
X241160Y332798D01*
X241161Y332773D01*
X241155Y332750D01*
X241165Y332652D01*
X241168Y332554D01*
X241176Y332531D01*
X241179Y332507D01*
X241219Y332418D01*
X241254Y332326D01*
X241269Y332307D01*
X241279Y332284D01*
X241373Y332170D01*
X248493Y325050D01*
X248493Y314950D01*
X241373Y307830D01*
X241359Y307810D01*
X241340Y307794D01*
X241288Y307711D01*
X241231Y307631D01*
X241224Y307608D01*
X241211Y307587D01*
X241188Y307492D01*
X241160Y307398D01*
X241161Y307373D01*
X241155Y307350D01*
X241165Y307252D01*
X241168Y307154D01*
X241176Y307131D01*
X241179Y307107D01*
X241219Y307018D01*
X241254Y306926D01*
X241269Y306907D01*
X241279Y306884D01*
X241373Y306770D01*
X248493Y299650D01*
X248493Y289550D01*
X241373Y282430D01*
X241359Y282410D01*
X241340Y282394D01*
X241288Y282311D01*
X241231Y282231D01*
X241224Y282208D01*
X241211Y282187D01*
X241188Y282092D01*
X241160Y281998D01*
X241161Y281973D01*
X241155Y281950D01*
X241165Y281852D01*
X241168Y281754D01*
X241176Y281731D01*
X241179Y281707D01*
X241219Y281618D01*
X241254Y281526D01*
X241269Y281507D01*
X241279Y281484D01*
X241373Y281370D01*
X248493Y274250D01*
X248493Y264150D01*
X241373Y257030D01*
X241359Y257010D01*
X241340Y256994D01*
X241288Y256911D01*
X241231Y256831D01*
X241224Y256808D01*
X241211Y256787D01*
X241188Y256692D01*
X241160Y256598D01*
X241161Y256573D01*
X241155Y256550D01*
X241165Y256452D01*
X241168Y256354D01*
X241176Y256331D01*
X241179Y256307D01*
X241219Y256218D01*
X241254Y256126D01*
X241269Y256107D01*
X241279Y256084D01*
X241373Y255970D01*
X248493Y248850D01*
X248493Y238750D01*
X241350Y231607D01*
X231250Y231607D01*
X227392Y235465D01*
X227332Y235508D01*
X227278Y235558D01*
X227234Y235579D01*
X227193Y235607D01*
X227123Y235629D01*
X227056Y235659D01*
X227007Y235664D01*
X226960Y235678D01*
X226887Y235676D01*
X226813Y235683D01*
X226765Y235672D01*
X226716Y235670D01*
X226647Y235644D01*
X226576Y235628D01*
X226534Y235602D01*
X226488Y235584D01*
X226431Y235538D01*
X226368Y235499D01*
X226337Y235461D01*
X226299Y235430D01*
X226260Y235367D01*
X226213Y235311D01*
X226196Y235264D01*
X226170Y235223D01*
X226153Y235151D01*
X226127Y235082D01*
X226120Y235009D01*
X226114Y234985D01*
X226116Y234968D01*
X226113Y234935D01*
X226113Y226257D01*
X226129Y226160D01*
X226138Y226063D01*
X226148Y226041D01*
X226152Y226016D01*
X226198Y225930D01*
X226239Y225841D01*
X226260Y225815D01*
X226267Y225801D01*
X226286Y225784D01*
X226332Y225727D01*
X232727Y219332D01*
X232806Y219275D01*
X232881Y219213D01*
X232905Y219205D01*
X232925Y219190D01*
X233018Y219162D01*
X233110Y219127D01*
X233143Y219124D01*
X233159Y219119D01*
X233183Y219120D01*
X233257Y219113D01*
X287277Y219113D01*
X287350Y219125D01*
X287423Y219127D01*
X287493Y219148D01*
X287518Y219152D01*
X287533Y219160D01*
X287564Y219170D01*
X289237Y219863D01*
X292763Y219863D01*
X296020Y218513D01*
X298513Y216020D01*
X299863Y212763D01*
X299863Y209237D01*
X298513Y205980D01*
X296020Y203487D01*
X292763Y202137D01*
X289237Y202137D01*
X285980Y203487D01*
X284798Y204668D01*
X284719Y204725D01*
X284644Y204787D01*
X284620Y204795D01*
X284600Y204810D01*
X284507Y204838D01*
X284416Y204873D01*
X284383Y204876D01*
X284367Y204881D01*
X284342Y204880D01*
X284269Y204887D01*
X228585Y204887D01*
X225971Y205970D01*
X212970Y218971D01*
X211887Y221585D01*
X211887Y252269D01*
X211871Y252365D01*
X211862Y252462D01*
X211852Y252485D01*
X211848Y252509D01*
X211802Y252595D01*
X211761Y252684D01*
X211740Y252710D01*
X211733Y252725D01*
X211714Y252742D01*
X211668Y252798D01*
X211487Y252980D01*
X210137Y256237D01*
X210137Y259763D01*
X211487Y263020D01*
X212174Y263708D01*
X212188Y263728D01*
X212207Y263743D01*
X212259Y263826D01*
X212316Y263906D01*
X212323Y263929D01*
X212336Y263950D01*
X212358Y264046D01*
X212387Y264139D01*
X212386Y264164D01*
X212392Y264188D01*
X212382Y264285D01*
X212379Y264383D01*
X212370Y264406D01*
X212368Y264431D01*
X212328Y264520D01*
X212293Y264612D01*
X212278Y264631D01*
X212267Y264653D01*
X212174Y264767D01*
X209190Y267751D01*
X209130Y267794D01*
X209076Y267844D01*
X209032Y267865D01*
X208991Y267893D01*
X208921Y267915D01*
X208854Y267945D01*
X208805Y267950D01*
X208758Y267964D01*
X208685Y267962D01*
X208611Y267969D01*
X208563Y267958D01*
X208514Y267956D01*
X208445Y267931D01*
X208374Y267914D01*
X208332Y267888D01*
X208286Y267871D01*
X208229Y267824D01*
X208166Y267785D01*
X208135Y267747D01*
X208097Y267716D01*
X208058Y267654D01*
X208011Y267597D01*
X207994Y267551D01*
X207968Y267509D01*
X207951Y267437D01*
X207925Y267368D01*
X207918Y267295D01*
X207912Y267271D01*
X207914Y267255D01*
X207911Y267222D01*
X207911Y113437D01*
X207919Y113388D01*
X207917Y113339D01*
X207938Y113269D01*
X207950Y113196D01*
X207974Y113153D01*
X207988Y113106D01*
X208031Y113046D01*
X208065Y112981D01*
X208101Y112947D01*
X208130Y112907D01*
X208190Y112864D01*
X208243Y112814D01*
X208288Y112794D01*
X208328Y112765D01*
X208399Y112744D01*
X208466Y112713D01*
X208515Y112708D01*
X208561Y112694D01*
X208635Y112696D01*
X208709Y112689D01*
X208756Y112700D01*
X208805Y112702D01*
X208945Y112744D01*
X208946Y112744D01*
X208947Y112745D01*
X217194Y116161D01*
X226806Y116161D01*
X235686Y112483D01*
X242483Y105686D01*
X246161Y96806D01*
X246161Y87194D01*
X242697Y78832D01*
X242686Y78784D01*
X242665Y78739D01*
X242658Y78666D01*
X242641Y78594D01*
X242646Y78545D01*
X242641Y78496D01*
X242658Y78425D01*
X242665Y78351D01*
X242686Y78307D01*
X242697Y78259D01*
X242736Y78196D01*
X242766Y78129D01*
X242799Y78093D01*
X242825Y78051D01*
X242882Y78005D01*
X242933Y77951D01*
X242976Y77928D01*
X243014Y77896D01*
X243083Y77870D01*
X243148Y77836D01*
X243196Y77828D01*
X243242Y77810D01*
X243388Y77796D01*
X243389Y77796D01*
X570000Y77796D01*
X570024Y77800D01*
G37*
G36*
X244211Y477964D02*
X244211Y477964D01*
X244235Y477963D01*
X244329Y477991D01*
X244424Y478013D01*
X244445Y478026D01*
X244469Y478033D01*
X244548Y478090D01*
X244632Y478142D01*
X244647Y478161D01*
X244667Y478175D01*
X244724Y478255D01*
X244787Y478330D01*
X244795Y478353D01*
X244810Y478374D01*
X244838Y478467D01*
X244873Y478559D01*
X244876Y478591D01*
X244881Y478607D01*
X244880Y478632D01*
X244887Y478706D01*
X244887Y481243D01*
X244871Y481340D01*
X244862Y481437D01*
X244852Y481459D01*
X244848Y481484D01*
X244802Y481570D01*
X244761Y481659D01*
X244740Y481685D01*
X244733Y481699D01*
X244714Y481716D01*
X244668Y481773D01*
X234470Y491971D01*
X233387Y494585D01*
X233387Y656415D01*
X234470Y659029D01*
X268971Y693530D01*
X271585Y694613D01*
X291769Y694613D01*
X291865Y694629D01*
X291962Y694638D01*
X291985Y694648D01*
X292009Y694652D01*
X292095Y694698D01*
X292184Y694739D01*
X292210Y694760D01*
X292225Y694767D01*
X292242Y694786D01*
X292298Y694832D01*
X292980Y695513D01*
X296237Y696863D01*
X299763Y696863D01*
X303020Y695513D01*
X305513Y693020D01*
X306863Y689763D01*
X306863Y686237D01*
X305513Y682980D01*
X303020Y680487D01*
X299763Y679137D01*
X297108Y679137D01*
X297012Y679121D01*
X296914Y679112D01*
X296892Y679102D01*
X296867Y679098D01*
X296781Y679051D01*
X296692Y679011D01*
X296674Y678994D01*
X296652Y678983D01*
X296585Y678911D01*
X296514Y678844D01*
X296502Y678823D01*
X296485Y678805D01*
X296445Y678716D01*
X296399Y678629D01*
X296395Y678605D01*
X296384Y678582D01*
X296375Y678485D01*
X296359Y678389D01*
X296363Y678364D01*
X296360Y678339D01*
X296383Y678244D01*
X296398Y678148D01*
X296410Y678126D01*
X296416Y678102D01*
X296467Y678019D01*
X296513Y677932D01*
X296531Y677916D01*
X296544Y677894D01*
X296620Y677832D01*
X296691Y677765D01*
X296720Y677750D01*
X296733Y677740D01*
X296756Y677731D01*
X296821Y677696D01*
X298719Y676910D01*
X302006Y673623D01*
X303785Y669328D01*
X303785Y651472D01*
X302006Y647177D01*
X298719Y643890D01*
X294424Y642111D01*
X289776Y642111D01*
X285481Y643890D01*
X282194Y647177D01*
X280415Y651472D01*
X280415Y669328D01*
X282194Y673623D01*
X285481Y676910D01*
X289776Y678689D01*
X293553Y678689D01*
X293650Y678705D01*
X293747Y678714D01*
X293770Y678724D01*
X293794Y678728D01*
X293880Y678775D01*
X293969Y678815D01*
X293987Y678832D01*
X294009Y678843D01*
X294076Y678915D01*
X294147Y678982D01*
X294159Y679003D01*
X294176Y679021D01*
X294216Y679111D01*
X294263Y679197D01*
X294267Y679221D01*
X294277Y679244D01*
X294287Y679341D01*
X294303Y679437D01*
X294299Y679462D01*
X294301Y679487D01*
X294279Y679582D01*
X294263Y679678D01*
X294251Y679700D01*
X294246Y679724D01*
X294194Y679807D01*
X294148Y679894D01*
X294130Y679910D01*
X294117Y679932D01*
X294042Y679994D01*
X293970Y680061D01*
X293941Y680076D01*
X293929Y680086D01*
X293916Y680091D01*
X293915Y680092D01*
X293902Y680097D01*
X293840Y680130D01*
X293357Y680330D01*
X293286Y680347D01*
X293217Y680373D01*
X293144Y680380D01*
X293119Y680386D01*
X293103Y680384D01*
X293070Y680387D01*
X276257Y680387D01*
X276160Y680371D01*
X276063Y680362D01*
X276041Y680352D01*
X276016Y680348D01*
X275930Y680302D01*
X275841Y680261D01*
X275815Y680240D01*
X275801Y680233D01*
X275784Y680214D01*
X275727Y680168D01*
X247832Y652273D01*
X247775Y652194D01*
X247713Y652119D01*
X247705Y652095D01*
X247690Y652075D01*
X247662Y651982D01*
X247627Y651890D01*
X247624Y651857D01*
X247619Y651841D01*
X247620Y651817D01*
X247613Y651743D01*
X247613Y632397D01*
X247621Y632349D01*
X247619Y632300D01*
X247640Y632229D01*
X247652Y632156D01*
X247676Y632113D01*
X247690Y632066D01*
X247733Y632006D01*
X247767Y631941D01*
X247803Y631907D01*
X247832Y631868D01*
X247892Y631825D01*
X247945Y631774D01*
X247990Y631754D01*
X248030Y631725D01*
X248101Y631704D01*
X248168Y631673D01*
X248217Y631669D01*
X248263Y631654D01*
X248337Y631657D01*
X248411Y631649D01*
X248458Y631660D01*
X248507Y631662D01*
X248647Y631704D01*
X248648Y631705D01*
X248649Y631705D01*
X250237Y632363D01*
X250493Y632363D01*
X250590Y632379D01*
X250687Y632388D01*
X250709Y632398D01*
X250734Y632402D01*
X250820Y632448D01*
X250909Y632489D01*
X250935Y632510D01*
X250949Y632517D01*
X250966Y632536D01*
X251023Y632582D01*
X257471Y639030D01*
X260085Y640113D01*
X290415Y640113D01*
X293029Y639030D01*
X295135Y636924D01*
X299727Y632332D01*
X299806Y632275D01*
X299881Y632213D01*
X299905Y632205D01*
X299925Y632190D01*
X300018Y632162D01*
X300110Y632127D01*
X300143Y632124D01*
X300159Y632119D01*
X300183Y632120D01*
X300257Y632113D01*
X348138Y632113D01*
X348162Y632117D01*
X348187Y632114D01*
X348282Y632136D01*
X348379Y632152D01*
X348400Y632164D01*
X348424Y632170D01*
X348508Y632221D01*
X348594Y632267D01*
X348611Y632285D01*
X348632Y632298D01*
X348694Y632374D01*
X348761Y632445D01*
X348771Y632468D01*
X348787Y632487D01*
X348821Y632578D01*
X348862Y632668D01*
X348864Y632692D01*
X348873Y632715D01*
X348887Y632862D01*
X348887Y642507D01*
X348879Y642556D01*
X348881Y642605D01*
X348860Y642675D01*
X348848Y642748D01*
X348824Y642791D01*
X348810Y642838D01*
X348767Y642898D01*
X348733Y642963D01*
X348697Y642997D01*
X348668Y643037D01*
X348608Y643080D01*
X348555Y643130D01*
X348510Y643150D01*
X348470Y643179D01*
X348399Y643200D01*
X348332Y643231D01*
X348283Y643236D01*
X348237Y643250D01*
X348163Y643248D01*
X348089Y643255D01*
X348042Y643244D01*
X347993Y643242D01*
X347853Y643200D01*
X347852Y643200D01*
X347851Y643199D01*
X345224Y642111D01*
X340576Y642111D01*
X336281Y643890D01*
X332994Y647177D01*
X331215Y651472D01*
X331215Y669328D01*
X332994Y673623D01*
X336281Y676910D01*
X340576Y678689D01*
X345224Y678689D01*
X347851Y677601D01*
X347899Y677589D01*
X347944Y677569D01*
X348017Y677562D01*
X348089Y677545D01*
X348138Y677550D01*
X348187Y677545D01*
X348258Y677562D01*
X348332Y677569D01*
X348376Y677589D01*
X348424Y677600D01*
X348487Y677639D01*
X348554Y677670D01*
X348590Y677703D01*
X348632Y677729D01*
X348678Y677786D01*
X348732Y677836D01*
X348755Y677880D01*
X348787Y677918D01*
X348813Y677986D01*
X348847Y678051D01*
X348855Y678100D01*
X348873Y678146D01*
X348887Y678291D01*
X348887Y678292D01*
X348887Y678293D01*
X348887Y762873D01*
X348867Y762996D01*
X348848Y763113D01*
X348786Y763229D01*
X348733Y763328D01*
X348733Y763329D01*
X348654Y763402D01*
X348555Y763495D01*
X348554Y763496D01*
X348425Y763565D01*
X344899Y765025D01*
X340930Y768994D01*
X340910Y769009D01*
X340894Y769027D01*
X340811Y769079D01*
X340731Y769136D01*
X340708Y769143D01*
X340687Y769156D01*
X340592Y769179D01*
X340498Y769207D01*
X340473Y769206D01*
X340450Y769212D01*
X340352Y769202D01*
X340254Y769199D01*
X340231Y769191D01*
X340207Y769188D01*
X340118Y769148D01*
X340026Y769113D01*
X340007Y769098D01*
X339984Y769088D01*
X339870Y768994D01*
X335901Y765025D01*
X335276Y764766D01*
X335275Y764766D01*
X335187Y764711D01*
X335068Y764638D01*
X335068Y764637D01*
X334980Y764530D01*
X334913Y764449D01*
X334858Y764303D01*
X334827Y764221D01*
X334827Y764220D01*
X334827Y764219D01*
X334813Y764074D01*
X334813Y721285D01*
X333730Y718671D01*
X319029Y703970D01*
X316415Y702887D01*
X249632Y702887D01*
X249535Y702871D01*
X249439Y702862D01*
X249416Y702852D01*
X249391Y702848D01*
X249305Y702802D01*
X249216Y702761D01*
X249191Y702740D01*
X249176Y702733D01*
X249159Y702714D01*
X249102Y702668D01*
X246583Y700148D01*
X242312Y698379D01*
X237688Y698379D01*
X233417Y700148D01*
X230148Y703417D01*
X228379Y707688D01*
X228379Y712312D01*
X230148Y716583D01*
X233417Y719852D01*
X237688Y721621D01*
X242312Y721621D01*
X246583Y719852D01*
X249102Y717332D01*
X249181Y717275D01*
X249257Y717213D01*
X249280Y717205D01*
X249300Y717190D01*
X249394Y717162D01*
X249485Y717127D01*
X249518Y717124D01*
X249534Y717119D01*
X249559Y717120D01*
X249632Y717113D01*
X311743Y717113D01*
X311840Y717129D01*
X311937Y717138D01*
X311959Y717148D01*
X311984Y717152D01*
X312070Y717198D01*
X312159Y717239D01*
X312185Y717260D01*
X312199Y717267D01*
X312216Y717286D01*
X312273Y717332D01*
X320368Y725427D01*
X320425Y725506D01*
X320487Y725581D01*
X320495Y725605D01*
X320510Y725625D01*
X320538Y725718D01*
X320573Y725810D01*
X320576Y725843D01*
X320581Y725859D01*
X320580Y725883D01*
X320587Y725957D01*
X320587Y764074D01*
X320569Y764184D01*
X320548Y764314D01*
X320548Y764315D01*
X320504Y764397D01*
X320433Y764529D01*
X320433Y764530D01*
X320349Y764608D01*
X320255Y764696D01*
X320255Y764697D01*
X320254Y764697D01*
X320125Y764766D01*
X319499Y765025D01*
X315530Y768994D01*
X315510Y769008D01*
X315494Y769027D01*
X315411Y769079D01*
X315331Y769136D01*
X315308Y769143D01*
X315287Y769156D01*
X315192Y769179D01*
X315098Y769207D01*
X315073Y769206D01*
X315050Y769212D01*
X314952Y769202D01*
X314854Y769199D01*
X314831Y769191D01*
X314807Y769188D01*
X314718Y769148D01*
X314626Y769113D01*
X314607Y769098D01*
X314584Y769088D01*
X314470Y768994D01*
X310501Y765025D01*
X308576Y764228D01*
X308575Y764228D01*
X308487Y764173D01*
X308368Y764099D01*
X308280Y763991D01*
X308213Y763911D01*
X308213Y763910D01*
X308159Y763767D01*
X308127Y763682D01*
X308127Y763681D01*
X308113Y763535D01*
X308113Y746731D01*
X308129Y746635D01*
X308138Y746538D01*
X308148Y746515D01*
X308152Y746491D01*
X308198Y746405D01*
X308239Y746316D01*
X308260Y746290D01*
X308267Y746275D01*
X308286Y746258D01*
X308332Y746202D01*
X308513Y746020D01*
X309863Y742763D01*
X309863Y739237D01*
X308513Y735980D01*
X306020Y733487D01*
X302763Y732137D01*
X299237Y732137D01*
X295980Y733487D01*
X293487Y735980D01*
X292137Y739237D01*
X292137Y742763D01*
X293487Y746020D01*
X293668Y746202D01*
X293725Y746281D01*
X293787Y746356D01*
X293795Y746380D01*
X293810Y746400D01*
X293838Y746493D01*
X293873Y746584D01*
X293876Y746617D01*
X293881Y746633D01*
X293880Y746658D01*
X293887Y746731D01*
X293887Y764926D01*
X293871Y765023D01*
X293862Y765120D01*
X293852Y765142D01*
X293848Y765167D01*
X293802Y765253D01*
X293761Y765342D01*
X293740Y765368D01*
X293733Y765382D01*
X293714Y765399D01*
X293668Y765456D01*
X290025Y769099D01*
X287821Y774420D01*
X287821Y780180D01*
X290025Y785501D01*
X294099Y789575D01*
X296967Y790763D01*
X297050Y790814D01*
X297137Y790860D01*
X297154Y790879D01*
X297175Y790892D01*
X297237Y790967D01*
X297303Y791039D01*
X297314Y791061D01*
X297329Y791080D01*
X297364Y791172D01*
X297404Y791261D01*
X297407Y791285D01*
X297415Y791309D01*
X297419Y791406D01*
X297428Y791504D01*
X297423Y791528D01*
X297424Y791552D01*
X297395Y791646D01*
X297373Y791741D01*
X297360Y791762D01*
X297353Y791786D01*
X297296Y791865D01*
X297244Y791949D01*
X297225Y791964D01*
X297211Y791984D01*
X297131Y792041D01*
X297056Y792104D01*
X297033Y792112D01*
X297013Y792127D01*
X296919Y792155D01*
X296828Y792190D01*
X296795Y792193D01*
X296779Y792198D01*
X296754Y792197D01*
X296681Y792204D01*
X242973Y792204D01*
X242900Y792192D01*
X242827Y792190D01*
X242781Y792173D01*
X242732Y792165D01*
X242667Y792130D01*
X242598Y792104D01*
X242560Y792073D01*
X242517Y792050D01*
X242467Y791996D01*
X242410Y791949D01*
X242384Y791907D01*
X242350Y791872D01*
X242320Y791804D01*
X242281Y791742D01*
X242270Y791694D01*
X242249Y791649D01*
X242242Y791576D01*
X242225Y791504D01*
X242230Y791455D01*
X242225Y791406D01*
X242242Y791335D01*
X242249Y791262D01*
X242269Y791217D01*
X242281Y791169D01*
X242319Y791106D01*
X242350Y791039D01*
X242371Y791013D01*
X246061Y782106D01*
X246061Y772494D01*
X242383Y763614D01*
X235586Y756817D01*
X226706Y753139D01*
X217094Y753139D01*
X208947Y756514D01*
X208899Y756525D01*
X208854Y756545D01*
X208781Y756553D01*
X208709Y756569D01*
X208660Y756565D01*
X208611Y756570D01*
X208540Y756553D01*
X208466Y756546D01*
X208422Y756525D01*
X208374Y756514D01*
X208311Y756475D01*
X208244Y756445D01*
X208208Y756411D01*
X208166Y756386D01*
X208120Y756329D01*
X208066Y756278D01*
X208043Y756235D01*
X208011Y756197D01*
X207985Y756128D01*
X207951Y756063D01*
X207943Y756015D01*
X207925Y755969D01*
X207911Y755823D01*
X207911Y755822D01*
X207911Y745763D01*
X207919Y745715D01*
X207917Y745666D01*
X207938Y745595D01*
X207950Y745522D01*
X207974Y745479D01*
X207988Y745432D01*
X208031Y745372D01*
X208065Y745307D01*
X208101Y745274D01*
X208130Y745234D01*
X208190Y745191D01*
X208243Y745140D01*
X208288Y745120D01*
X208328Y745091D01*
X208399Y745070D01*
X208466Y745039D01*
X208515Y745035D01*
X208561Y745020D01*
X208635Y745023D01*
X208709Y745015D01*
X208756Y745026D01*
X208805Y745028D01*
X208945Y745070D01*
X208946Y745071D01*
X208947Y745071D01*
X212688Y746621D01*
X217312Y746621D01*
X221583Y744852D01*
X224852Y741583D01*
X226621Y737312D01*
X226621Y732688D01*
X224852Y728417D01*
X221583Y725148D01*
X217312Y723379D01*
X212688Y723379D01*
X208947Y724929D01*
X208899Y724940D01*
X208854Y724961D01*
X208781Y724968D01*
X208709Y724985D01*
X208660Y724980D01*
X208611Y724985D01*
X208540Y724968D01*
X208466Y724961D01*
X208422Y724940D01*
X208374Y724929D01*
X208311Y724890D01*
X208244Y724860D01*
X208208Y724827D01*
X208166Y724801D01*
X208120Y724744D01*
X208066Y724693D01*
X208043Y724650D01*
X208011Y724612D01*
X207985Y724543D01*
X207951Y724478D01*
X207943Y724430D01*
X207925Y724384D01*
X207911Y724238D01*
X207911Y724237D01*
X207911Y488778D01*
X207919Y488730D01*
X207917Y488681D01*
X207938Y488610D01*
X207950Y488537D01*
X207974Y488494D01*
X207988Y488447D01*
X208031Y488387D01*
X208065Y488322D01*
X208101Y488289D01*
X208130Y488249D01*
X208190Y488206D01*
X208243Y488155D01*
X208288Y488135D01*
X208328Y488106D01*
X208399Y488085D01*
X208466Y488055D01*
X208515Y488050D01*
X208561Y488035D01*
X208635Y488038D01*
X208709Y488030D01*
X208756Y488042D01*
X208805Y488043D01*
X208945Y488086D01*
X208946Y488086D01*
X208947Y488086D01*
X217094Y491461D01*
X226706Y491461D01*
X235586Y487783D01*
X242383Y480986D01*
X243446Y478419D01*
X243497Y478336D01*
X243543Y478250D01*
X243562Y478233D01*
X243575Y478212D01*
X243650Y478150D01*
X243722Y478083D01*
X243744Y478073D01*
X243763Y478057D01*
X243855Y478022D01*
X243944Y477982D01*
X243968Y477980D01*
X243992Y477971D01*
X244089Y477968D01*
X244187Y477958D01*
X244211Y477964D01*
G37*
%LPC*%
G36*
X780737Y501137D02*
X780737Y501137D01*
X777480Y502487D01*
X774987Y504980D01*
X773637Y508237D01*
X773637Y511763D01*
X774987Y515020D01*
X776652Y516686D01*
X776709Y516765D01*
X776771Y516840D01*
X776779Y516864D01*
X776794Y516884D01*
X776822Y516977D01*
X776857Y517068D01*
X776860Y517101D01*
X776865Y517117D01*
X776864Y517142D01*
X776871Y517215D01*
X776871Y581533D01*
X776855Y581630D01*
X776846Y581726D01*
X776836Y581749D01*
X776832Y581774D01*
X776786Y581860D01*
X776745Y581949D01*
X776724Y581974D01*
X776717Y581989D01*
X776698Y582006D01*
X776652Y582063D01*
X775919Y582795D01*
X775919Y611004D01*
X778896Y613981D01*
X785122Y613981D01*
X785146Y613985D01*
X785171Y613982D01*
X785266Y614004D01*
X785363Y614020D01*
X785384Y614032D01*
X785408Y614038D01*
X785492Y614089D01*
X785578Y614135D01*
X785595Y614153D01*
X785616Y614166D01*
X785678Y614242D01*
X785745Y614313D01*
X785755Y614336D01*
X785771Y614355D01*
X785805Y614446D01*
X785846Y614536D01*
X785848Y614560D01*
X785857Y614583D01*
X785871Y614730D01*
X785871Y617617D01*
X787109Y620605D01*
X805652Y639148D01*
X805709Y639227D01*
X805771Y639302D01*
X805779Y639326D01*
X805794Y639346D01*
X805822Y639439D01*
X805857Y639530D01*
X805860Y639563D01*
X805865Y639579D01*
X805864Y639604D01*
X805871Y639677D01*
X805871Y645316D01*
X805859Y645388D01*
X805857Y645461D01*
X805836Y645532D01*
X805832Y645557D01*
X805824Y645571D01*
X805814Y645603D01*
X805137Y647237D01*
X805137Y650763D01*
X805814Y652397D01*
X805831Y652469D01*
X805857Y652537D01*
X805864Y652611D01*
X805870Y652635D01*
X805868Y652651D01*
X805871Y652684D01*
X805871Y726233D01*
X805855Y726330D01*
X805846Y726426D01*
X805836Y726449D01*
X805832Y726474D01*
X805786Y726560D01*
X805745Y726649D01*
X805724Y726674D01*
X805717Y726689D01*
X805698Y726706D01*
X805652Y726763D01*
X804919Y727495D01*
X804919Y745704D01*
X807152Y747937D01*
X807209Y748016D01*
X807271Y748092D01*
X807279Y748115D01*
X807294Y748135D01*
X807322Y748229D01*
X807357Y748320D01*
X807360Y748353D01*
X807365Y748369D01*
X807364Y748394D01*
X807371Y748467D01*
X807371Y753617D01*
X808639Y756678D01*
X808672Y756723D01*
X808679Y756747D01*
X808692Y756768D01*
X808714Y756863D01*
X808743Y756957D01*
X808742Y756982D01*
X808748Y757006D01*
X808738Y757103D01*
X808735Y757201D01*
X808726Y757224D01*
X808724Y757248D01*
X808684Y757338D01*
X808649Y757429D01*
X808634Y757448D01*
X808623Y757471D01*
X808530Y757585D01*
X805919Y760195D01*
X805919Y761122D01*
X805916Y761142D01*
X805918Y761160D01*
X805917Y761163D01*
X805918Y761171D01*
X805896Y761266D01*
X805880Y761363D01*
X805868Y761384D01*
X805862Y761408D01*
X805811Y761492D01*
X805765Y761578D01*
X805747Y761595D01*
X805734Y761616D01*
X805658Y761678D01*
X805587Y761745D01*
X805564Y761755D01*
X805545Y761771D01*
X805454Y761805D01*
X805364Y761846D01*
X805340Y761848D01*
X805317Y761857D01*
X805170Y761871D01*
X771450Y761871D01*
X771426Y761867D01*
X771401Y761870D01*
X771306Y761848D01*
X771209Y761832D01*
X771188Y761820D01*
X771164Y761814D01*
X771080Y761763D01*
X770994Y761717D01*
X770977Y761699D01*
X770956Y761686D01*
X770894Y761610D01*
X770827Y761539D01*
X770817Y761516D01*
X770801Y761497D01*
X770767Y761406D01*
X770726Y761316D01*
X770724Y761292D01*
X770715Y761269D01*
X770701Y761122D01*
X770701Y758181D01*
X767724Y755204D01*
X747516Y755204D01*
X744539Y758181D01*
X744539Y780419D01*
X747516Y783396D01*
X767724Y783396D01*
X770701Y780419D01*
X770701Y778878D01*
X770705Y778854D01*
X770702Y778829D01*
X770724Y778734D01*
X770740Y778637D01*
X770752Y778616D01*
X770758Y778592D01*
X770809Y778508D01*
X770855Y778422D01*
X770873Y778405D01*
X770886Y778384D01*
X770962Y778322D01*
X771033Y778255D01*
X771056Y778245D01*
X771075Y778229D01*
X771166Y778195D01*
X771256Y778154D01*
X771280Y778152D01*
X771303Y778143D01*
X771450Y778129D01*
X805333Y778129D01*
X805430Y778145D01*
X805526Y778154D01*
X805549Y778164D01*
X805574Y778168D01*
X805660Y778214D01*
X805749Y778255D01*
X805774Y778276D01*
X805789Y778283D01*
X805806Y778302D01*
X805863Y778348D01*
X808896Y781381D01*
X824105Y781381D01*
X825970Y779515D01*
X825990Y779501D01*
X826006Y779482D01*
X826089Y779430D01*
X826169Y779373D01*
X826192Y779366D01*
X826213Y779353D01*
X826308Y779331D01*
X826402Y779302D01*
X826426Y779303D01*
X826450Y779297D01*
X826548Y779307D01*
X826646Y779310D01*
X826669Y779319D01*
X826693Y779321D01*
X826782Y779361D01*
X826874Y779396D01*
X826893Y779411D01*
X826916Y779421D01*
X827030Y779515D01*
X828896Y781381D01*
X844104Y781381D01*
X847081Y778404D01*
X847081Y760196D01*
X844348Y757463D01*
X844291Y757384D01*
X844229Y757308D01*
X844221Y757285D01*
X844206Y757265D01*
X844178Y757171D01*
X844143Y757080D01*
X844140Y757047D01*
X844135Y757031D01*
X844136Y757006D01*
X844129Y756933D01*
X844129Y750383D01*
X843522Y748918D01*
X843492Y748791D01*
X843466Y748681D01*
X843466Y748680D01*
X843479Y748549D01*
X843490Y748438D01*
X843490Y748437D01*
X843551Y748304D01*
X843590Y748215D01*
X843591Y748215D01*
X843591Y748214D01*
X843684Y748101D01*
X846081Y745705D01*
X846081Y727496D01*
X843848Y725263D01*
X843791Y725184D01*
X843729Y725108D01*
X843721Y725085D01*
X843706Y725065D01*
X843678Y724971D01*
X843643Y724880D01*
X843640Y724847D01*
X843635Y724831D01*
X843636Y724806D01*
X843629Y724733D01*
X843629Y721982D01*
X843645Y721886D01*
X843654Y721788D01*
X843664Y721766D01*
X843668Y721741D01*
X843715Y721655D01*
X843755Y721566D01*
X843772Y721548D01*
X843783Y721526D01*
X843855Y721459D01*
X843922Y721388D01*
X843943Y721376D01*
X843961Y721359D01*
X844050Y721319D01*
X844137Y721273D01*
X844161Y721269D01*
X844184Y721258D01*
X844281Y721249D01*
X844377Y721233D01*
X844402Y721237D01*
X844427Y721234D01*
X844522Y721257D01*
X844618Y721272D01*
X844640Y721284D01*
X844664Y721290D01*
X844747Y721341D01*
X844834Y721387D01*
X844850Y721405D01*
X844872Y721418D01*
X844934Y721494D01*
X845001Y721565D01*
X845016Y721594D01*
X845026Y721607D01*
X845035Y721630D01*
X845070Y721695D01*
X846434Y724987D01*
X850935Y729488D01*
X856817Y731925D01*
X863183Y731925D01*
X869065Y729488D01*
X873566Y724987D01*
X876003Y719105D01*
X876003Y690895D01*
X873566Y685013D01*
X869065Y680512D01*
X863183Y678075D01*
X856817Y678075D01*
X850935Y680512D01*
X846434Y685013D01*
X843997Y690895D01*
X843997Y719006D01*
X843981Y719103D01*
X843972Y719200D01*
X843962Y719222D01*
X843958Y719247D01*
X843911Y719333D01*
X843871Y719422D01*
X843854Y719440D01*
X843843Y719462D01*
X843771Y719529D01*
X843704Y719600D01*
X843683Y719612D01*
X843665Y719629D01*
X843575Y719669D01*
X843489Y719715D01*
X843465Y719720D01*
X843442Y719730D01*
X843345Y719739D01*
X843249Y719755D01*
X843224Y719751D01*
X843199Y719754D01*
X843104Y719732D01*
X843008Y719716D01*
X842986Y719704D01*
X842962Y719699D01*
X842879Y719647D01*
X842792Y719601D01*
X842776Y719583D01*
X842754Y719570D01*
X842692Y719494D01*
X842625Y719423D01*
X842610Y719394D01*
X842600Y719381D01*
X842591Y719358D01*
X842556Y719293D01*
X842391Y718895D01*
X834348Y710852D01*
X834291Y710773D01*
X834229Y710698D01*
X834221Y710674D01*
X834206Y710654D01*
X834178Y710561D01*
X834143Y710470D01*
X834140Y710437D01*
X834135Y710421D01*
X834136Y710396D01*
X834129Y710323D01*
X834129Y674677D01*
X834145Y674581D01*
X834154Y674484D01*
X834164Y674461D01*
X834168Y674437D01*
X834214Y674351D01*
X834255Y674262D01*
X834276Y674236D01*
X834283Y674221D01*
X834302Y674204D01*
X834348Y674148D01*
X844143Y664353D01*
X844202Y664310D01*
X844256Y664260D01*
X844321Y664225D01*
X844341Y664211D01*
X844357Y664206D01*
X844386Y664190D01*
X846020Y663513D01*
X848513Y661020D01*
X849863Y657763D01*
X849863Y654237D01*
X848513Y650980D01*
X846020Y648487D01*
X842763Y647137D01*
X839237Y647137D01*
X835980Y648487D01*
X833487Y650980D01*
X832810Y652614D01*
X832771Y652676D01*
X832741Y652743D01*
X832694Y652800D01*
X832681Y652821D01*
X832668Y652832D01*
X832647Y652857D01*
X823408Y662096D01*
X823348Y662139D01*
X823294Y662189D01*
X823250Y662210D01*
X823209Y662239D01*
X823139Y662260D01*
X823072Y662290D01*
X823023Y662295D01*
X822976Y662309D01*
X822903Y662307D01*
X822829Y662314D01*
X822781Y662303D01*
X822732Y662302D01*
X822663Y662276D01*
X822592Y662259D01*
X822550Y662233D01*
X822504Y662216D01*
X822447Y662169D01*
X822384Y662130D01*
X822353Y662092D01*
X822315Y662061D01*
X822276Y661999D01*
X822229Y661942D01*
X822212Y661896D01*
X822186Y661854D01*
X822169Y661782D01*
X822143Y661714D01*
X822136Y661641D01*
X822130Y661616D01*
X822132Y661600D01*
X822129Y661567D01*
X822129Y652684D01*
X822141Y652612D01*
X822143Y652539D01*
X822164Y652468D01*
X822168Y652443D01*
X822176Y652429D01*
X822186Y652397D01*
X822863Y650763D01*
X822863Y647237D01*
X822186Y645603D01*
X822169Y645531D01*
X822143Y645463D01*
X822136Y645389D01*
X822130Y645365D01*
X822132Y645349D01*
X822129Y645316D01*
X822129Y634383D01*
X820891Y631395D01*
X818499Y629004D01*
X818499Y629003D01*
X804756Y615260D01*
X804713Y615200D01*
X804663Y615146D01*
X804642Y615102D01*
X804613Y615061D01*
X804592Y614991D01*
X804562Y614924D01*
X804557Y614875D01*
X804543Y614828D01*
X804545Y614755D01*
X804538Y614681D01*
X804549Y614633D01*
X804550Y614584D01*
X804576Y614515D01*
X804593Y614444D01*
X804619Y614402D01*
X804636Y614356D01*
X804683Y614299D01*
X804722Y614236D01*
X804760Y614205D01*
X804791Y614167D01*
X804853Y614128D01*
X804910Y614081D01*
X804956Y614064D01*
X804998Y614038D01*
X805070Y614021D01*
X805138Y613995D01*
X805211Y613988D01*
X805236Y613982D01*
X805252Y613984D01*
X805285Y613981D01*
X809104Y613981D01*
X812081Y611004D01*
X812081Y610878D01*
X812085Y610854D01*
X812082Y610829D01*
X812104Y610734D01*
X812120Y610637D01*
X812132Y610616D01*
X812138Y610592D01*
X812189Y610508D01*
X812235Y610422D01*
X812253Y610405D01*
X812266Y610384D01*
X812342Y610322D01*
X812413Y610255D01*
X812436Y610245D01*
X812455Y610229D01*
X812546Y610195D01*
X812636Y610154D01*
X812660Y610152D01*
X812683Y610143D01*
X812830Y610129D01*
X879280Y610129D01*
X879304Y610133D01*
X879329Y610130D01*
X879424Y610152D01*
X879521Y610168D01*
X879542Y610180D01*
X879566Y610186D01*
X879650Y610237D01*
X879736Y610283D01*
X879753Y610301D01*
X879774Y610314D01*
X879836Y610390D01*
X879903Y610461D01*
X879913Y610484D01*
X879929Y610503D01*
X879963Y610594D01*
X880004Y610684D01*
X880006Y610708D01*
X880015Y610731D01*
X880029Y610878D01*
X880029Y629704D01*
X883006Y632681D01*
X909214Y632681D01*
X912191Y629704D01*
X912191Y618478D01*
X912195Y618454D01*
X912192Y618429D01*
X912214Y618334D01*
X912230Y618237D01*
X912242Y618216D01*
X912248Y618192D01*
X912299Y618108D01*
X912345Y618022D01*
X912363Y618005D01*
X912376Y617984D01*
X912452Y617922D01*
X912523Y617855D01*
X912546Y617845D01*
X912565Y617829D01*
X912656Y617795D01*
X912746Y617754D01*
X912770Y617752D01*
X912793Y617743D01*
X912940Y617729D01*
X941449Y617729D01*
X941545Y617745D01*
X941642Y617754D01*
X941665Y617764D01*
X941690Y617768D01*
X941776Y617814D01*
X941865Y617855D01*
X941890Y617876D01*
X941905Y617883D01*
X941922Y617902D01*
X941979Y617948D01*
X944658Y620627D01*
X944672Y620647D01*
X944691Y620663D01*
X944743Y620746D01*
X944800Y620826D01*
X944807Y620849D01*
X944820Y620870D01*
X944843Y620965D01*
X944871Y621059D01*
X944870Y621084D01*
X944876Y621107D01*
X944866Y621205D01*
X944863Y621303D01*
X944854Y621326D01*
X944852Y621350D01*
X944812Y621439D01*
X944777Y621531D01*
X944762Y621550D01*
X944752Y621573D01*
X944658Y621687D01*
X941831Y624514D01*
X941831Y626122D01*
X941827Y626146D01*
X941830Y626171D01*
X941808Y626266D01*
X941792Y626363D01*
X941780Y626384D01*
X941774Y626408D01*
X941723Y626492D01*
X941677Y626578D01*
X941659Y626595D01*
X941646Y626616D01*
X941570Y626678D01*
X941499Y626745D01*
X941476Y626755D01*
X941457Y626771D01*
X941366Y626805D01*
X941276Y626846D01*
X941252Y626848D01*
X941229Y626857D01*
X941082Y626871D01*
X925784Y626871D01*
X925712Y626859D01*
X925639Y626857D01*
X925568Y626836D01*
X925543Y626832D01*
X925529Y626824D01*
X925497Y626814D01*
X923863Y626137D01*
X920337Y626137D01*
X917080Y627487D01*
X914587Y629980D01*
X913237Y633237D01*
X913237Y636763D01*
X914587Y640020D01*
X917080Y642513D01*
X920337Y643863D01*
X923863Y643863D01*
X925497Y643186D01*
X925569Y643169D01*
X925637Y643143D01*
X925711Y643136D01*
X925735Y643130D01*
X925751Y643132D01*
X925784Y643129D01*
X943735Y643129D01*
X943831Y643145D01*
X943928Y643154D01*
X943951Y643164D01*
X943976Y643168D01*
X944062Y643214D01*
X944151Y643255D01*
X944176Y643276D01*
X944191Y643283D01*
X944208Y643302D01*
X944265Y643348D01*
X944808Y643891D01*
X971368Y643891D01*
X974345Y640914D01*
X974345Y624514D01*
X971518Y621687D01*
X971504Y621667D01*
X971485Y621651D01*
X971433Y621568D01*
X971376Y621488D01*
X971369Y621465D01*
X971356Y621444D01*
X971334Y621349D01*
X971305Y621255D01*
X971306Y621230D01*
X971300Y621207D01*
X971310Y621109D01*
X971313Y621011D01*
X971322Y620988D01*
X971324Y620964D01*
X971364Y620875D01*
X971399Y620783D01*
X971414Y620764D01*
X971424Y620741D01*
X971518Y620627D01*
X974345Y617800D01*
X974345Y601400D01*
X971368Y598423D01*
X944808Y598423D01*
X941979Y601252D01*
X941900Y601309D01*
X941824Y601371D01*
X941801Y601379D01*
X941781Y601394D01*
X941687Y601422D01*
X941596Y601457D01*
X941563Y601460D01*
X941547Y601465D01*
X941522Y601464D01*
X941449Y601471D01*
X912940Y601471D01*
X912916Y601467D01*
X912891Y601470D01*
X912796Y601448D01*
X912699Y601432D01*
X912678Y601420D01*
X912654Y601414D01*
X912570Y601363D01*
X912484Y601317D01*
X912467Y601299D01*
X912446Y601286D01*
X912384Y601210D01*
X912317Y601139D01*
X912307Y601116D01*
X912291Y601097D01*
X912257Y601006D01*
X912216Y600916D01*
X912214Y600892D01*
X912205Y600869D01*
X912191Y600722D01*
X912191Y589496D01*
X909214Y586519D01*
X883006Y586519D01*
X880029Y589496D01*
X880029Y593122D01*
X880025Y593146D01*
X880028Y593171D01*
X880006Y593266D01*
X879990Y593363D01*
X879978Y593384D01*
X879972Y593408D01*
X879921Y593492D01*
X879875Y593578D01*
X879857Y593595D01*
X879844Y593616D01*
X879768Y593678D01*
X879697Y593745D01*
X879674Y593755D01*
X879655Y593771D01*
X879564Y593805D01*
X879474Y593846D01*
X879450Y593848D01*
X879427Y593857D01*
X879280Y593871D01*
X812830Y593871D01*
X812806Y593867D01*
X812781Y593870D01*
X812686Y593848D01*
X812589Y593832D01*
X812568Y593820D01*
X812544Y593814D01*
X812460Y593763D01*
X812374Y593717D01*
X812357Y593699D01*
X812336Y593686D01*
X812274Y593610D01*
X812207Y593539D01*
X812197Y593516D01*
X812181Y593497D01*
X812147Y593406D01*
X812106Y593316D01*
X812104Y593292D01*
X812095Y593269D01*
X812081Y593122D01*
X812081Y582796D01*
X809104Y579819D01*
X793878Y579819D01*
X793854Y579815D01*
X793829Y579818D01*
X793734Y579796D01*
X793637Y579780D01*
X793616Y579768D01*
X793592Y579762D01*
X793508Y579711D01*
X793422Y579665D01*
X793405Y579647D01*
X793384Y579634D01*
X793322Y579558D01*
X793255Y579487D01*
X793245Y579464D01*
X793229Y579445D01*
X793195Y579354D01*
X793154Y579264D01*
X793152Y579240D01*
X793143Y579217D01*
X793129Y579070D01*
X793129Y508383D01*
X791891Y505395D01*
X789605Y503109D01*
X786617Y501871D01*
X786184Y501871D01*
X786112Y501859D01*
X786039Y501857D01*
X785968Y501836D01*
X785943Y501832D01*
X785928Y501824D01*
X785897Y501814D01*
X784263Y501137D01*
X780737Y501137D01*
G37*
%LPD*%
%LPC*%
G36*
X529806Y458215D02*
X529806Y458215D01*
X525511Y459994D01*
X522224Y463281D01*
X520445Y467576D01*
X520445Y472224D01*
X522224Y476519D01*
X522668Y476962D01*
X522725Y477042D01*
X522787Y477117D01*
X522795Y477140D01*
X522810Y477161D01*
X522838Y477254D01*
X522873Y477345D01*
X522876Y477378D01*
X522881Y477394D01*
X522880Y477419D01*
X522887Y477492D01*
X522887Y521743D01*
X522871Y521840D01*
X522862Y521937D01*
X522852Y521959D01*
X522848Y521984D01*
X522802Y522070D01*
X522761Y522159D01*
X522740Y522185D01*
X522733Y522199D01*
X522714Y522216D01*
X522668Y522273D01*
X514670Y530271D01*
X513587Y532885D01*
X513587Y567874D01*
X513571Y567970D01*
X513562Y568067D01*
X513552Y568090D01*
X513548Y568114D01*
X513502Y568201D01*
X513461Y568289D01*
X513440Y568315D01*
X513433Y568330D01*
X513414Y568347D01*
X513368Y568404D01*
X510794Y570977D01*
X509015Y575272D01*
X509015Y593128D01*
X510794Y597423D01*
X514081Y600710D01*
X518376Y602489D01*
X523024Y602489D01*
X527319Y600710D01*
X530606Y597423D01*
X532385Y593128D01*
X532385Y575272D01*
X530606Y570977D01*
X528032Y568404D01*
X527975Y568324D01*
X527913Y568249D01*
X527905Y568226D01*
X527890Y568205D01*
X527862Y568112D01*
X527827Y568021D01*
X527824Y567988D01*
X527819Y567972D01*
X527820Y567947D01*
X527813Y567874D01*
X527813Y537557D01*
X527829Y537460D01*
X527838Y537363D01*
X527848Y537341D01*
X527852Y537316D01*
X527898Y537230D01*
X527939Y537141D01*
X527960Y537115D01*
X527967Y537101D01*
X527986Y537084D01*
X528032Y537027D01*
X536030Y529029D01*
X537113Y526415D01*
X537113Y480984D01*
X537137Y480837D01*
X537152Y480744D01*
X537152Y480743D01*
X537214Y480628D01*
X537267Y480529D01*
X537267Y480528D01*
X537361Y480440D01*
X537445Y480362D01*
X537445Y480361D01*
X537446Y480361D01*
X537575Y480292D01*
X538749Y479806D01*
X542036Y476519D01*
X542634Y475075D01*
X542696Y474975D01*
X542762Y474868D01*
X542763Y474868D01*
X542854Y474793D01*
X542951Y474713D01*
X543084Y474663D01*
X543179Y474627D01*
X543180Y474627D01*
X543181Y474627D01*
X543326Y474613D01*
X568617Y474613D01*
X568714Y474629D01*
X568810Y474638D01*
X568833Y474648D01*
X568858Y474652D01*
X568944Y474698D01*
X569033Y474739D01*
X569058Y474760D01*
X569073Y474767D01*
X569090Y474786D01*
X569147Y474832D01*
X570395Y476081D01*
X583604Y476081D01*
X586581Y473104D01*
X586581Y461896D01*
X583604Y458919D01*
X570395Y458919D01*
X569147Y460168D01*
X569068Y460225D01*
X568992Y460287D01*
X568969Y460295D01*
X568949Y460310D01*
X568855Y460338D01*
X568764Y460373D01*
X568731Y460376D01*
X568715Y460381D01*
X568690Y460380D01*
X568617Y460387D01*
X539452Y460387D01*
X539356Y460371D01*
X539259Y460362D01*
X539236Y460352D01*
X539212Y460348D01*
X539125Y460302D01*
X539037Y460261D01*
X539011Y460240D01*
X538996Y460233D01*
X538979Y460214D01*
X538922Y460168D01*
X538749Y459994D01*
X534454Y458215D01*
X529806Y458215D01*
G37*
%LPD*%
%LPC*%
G36*
X467576Y642111D02*
X467576Y642111D01*
X463281Y643890D01*
X459994Y647177D01*
X458215Y651472D01*
X458215Y669328D01*
X459994Y673623D01*
X463281Y676910D01*
X465179Y677696D01*
X465262Y677747D01*
X465348Y677793D01*
X465365Y677812D01*
X465386Y677825D01*
X465448Y677900D01*
X465515Y677972D01*
X465525Y677994D01*
X465541Y678013D01*
X465575Y678105D01*
X465616Y678194D01*
X465618Y678218D01*
X465627Y678242D01*
X465630Y678339D01*
X465640Y678437D01*
X465634Y678461D01*
X465635Y678485D01*
X465607Y678579D01*
X465584Y678674D01*
X465571Y678695D01*
X465564Y678719D01*
X465507Y678798D01*
X465456Y678882D01*
X465437Y678897D01*
X465422Y678917D01*
X465343Y678974D01*
X465267Y679037D01*
X465244Y679045D01*
X465224Y679060D01*
X465130Y679088D01*
X465039Y679123D01*
X465006Y679126D01*
X464990Y679131D01*
X464966Y679130D01*
X464892Y679137D01*
X462237Y679137D01*
X458980Y680487D01*
X456487Y682980D01*
X455137Y686237D01*
X455137Y689763D01*
X456487Y693020D01*
X458980Y695513D01*
X462237Y696863D01*
X465763Y696863D01*
X469020Y695513D01*
X469202Y695332D01*
X469281Y695275D01*
X469356Y695213D01*
X469380Y695205D01*
X469400Y695190D01*
X469493Y695162D01*
X469584Y695127D01*
X469617Y695124D01*
X469633Y695119D01*
X469658Y695120D01*
X469731Y695113D01*
X517415Y695113D01*
X520029Y694030D01*
X526730Y687329D01*
X527813Y684715D01*
X527813Y676726D01*
X527829Y676630D01*
X527838Y676533D01*
X527848Y676510D01*
X527852Y676486D01*
X527898Y676399D01*
X527939Y676311D01*
X527960Y676285D01*
X527967Y676270D01*
X527986Y676253D01*
X528032Y676197D01*
X530606Y673623D01*
X532385Y669328D01*
X532385Y651472D01*
X530606Y647177D01*
X527319Y643890D01*
X523024Y642111D01*
X518376Y642111D01*
X514081Y643890D01*
X510794Y647177D01*
X509015Y651472D01*
X509015Y669328D01*
X510794Y673623D01*
X513368Y676197D01*
X513425Y676276D01*
X513487Y676351D01*
X513495Y676374D01*
X513510Y676395D01*
X513538Y676488D01*
X513573Y676579D01*
X513576Y676612D01*
X513581Y676628D01*
X513580Y676653D01*
X513587Y676726D01*
X513587Y680043D01*
X513571Y680140D01*
X513562Y680237D01*
X513552Y680259D01*
X513548Y680284D01*
X513502Y680370D01*
X513461Y680459D01*
X513440Y680485D01*
X513433Y680499D01*
X513414Y680516D01*
X513368Y680573D01*
X513273Y680668D01*
X513194Y680725D01*
X513119Y680787D01*
X513095Y680795D01*
X513075Y680810D01*
X512982Y680838D01*
X512890Y680873D01*
X512857Y680876D01*
X512841Y680881D01*
X512817Y680880D01*
X512743Y680887D01*
X469731Y680887D01*
X469635Y680871D01*
X469538Y680862D01*
X469515Y680852D01*
X469491Y680848D01*
X469405Y680802D01*
X469316Y680761D01*
X469290Y680740D01*
X469275Y680733D01*
X469258Y680714D01*
X469202Y680668D01*
X469020Y680487D01*
X468160Y680130D01*
X468077Y680079D01*
X467991Y680033D01*
X467974Y680014D01*
X467953Y680001D01*
X467891Y679926D01*
X467824Y679854D01*
X467814Y679832D01*
X467798Y679813D01*
X467763Y679721D01*
X467723Y679632D01*
X467721Y679608D01*
X467712Y679584D01*
X467709Y679487D01*
X467699Y679389D01*
X467705Y679365D01*
X467704Y679341D01*
X467732Y679247D01*
X467754Y679152D01*
X467767Y679131D01*
X467775Y679107D01*
X467831Y679028D01*
X467883Y678944D01*
X467902Y678929D01*
X467917Y678909D01*
X467996Y678852D01*
X468071Y678789D01*
X468095Y678781D01*
X468115Y678766D01*
X468208Y678738D01*
X468300Y678703D01*
X468332Y678700D01*
X468348Y678695D01*
X468373Y678696D01*
X468447Y678689D01*
X472224Y678689D01*
X476519Y676910D01*
X479806Y673623D01*
X481585Y669328D01*
X481585Y651472D01*
X479806Y647177D01*
X476519Y643890D01*
X472224Y642111D01*
X467576Y642111D01*
G37*
%LPD*%
%LPC*%
G36*
X619976Y565911D02*
X619976Y565911D01*
X615681Y567690D01*
X612394Y570977D01*
X610615Y575272D01*
X610615Y593128D01*
X612394Y597423D01*
X615681Y600710D01*
X619976Y602489D01*
X624624Y602489D01*
X628338Y600951D01*
X628453Y600924D01*
X628575Y600895D01*
X628706Y600908D01*
X628818Y600919D01*
X628937Y600973D01*
X629040Y601019D01*
X629040Y601020D01*
X629041Y601020D01*
X629154Y601113D01*
X642668Y614627D01*
X642725Y614706D01*
X642787Y614781D01*
X642795Y614805D01*
X642810Y614825D01*
X642838Y614918D01*
X642873Y615010D01*
X642876Y615043D01*
X642881Y615059D01*
X642880Y615083D01*
X642887Y615157D01*
X642887Y694269D01*
X642871Y694365D01*
X642862Y694462D01*
X642852Y694485D01*
X642848Y694509D01*
X642802Y694595D01*
X642761Y694684D01*
X642740Y694710D01*
X642733Y694725D01*
X642714Y694742D01*
X642668Y694798D01*
X642487Y694980D01*
X641137Y698237D01*
X641137Y701763D01*
X642487Y705020D01*
X644980Y707513D01*
X648237Y708863D01*
X651763Y708863D01*
X655020Y707513D01*
X657513Y705020D01*
X658863Y701763D01*
X658863Y698237D01*
X657513Y694980D01*
X657332Y694798D01*
X657275Y694719D01*
X657213Y694644D01*
X657205Y694620D01*
X657190Y694600D01*
X657162Y694507D01*
X657127Y694416D01*
X657124Y694383D01*
X657119Y694367D01*
X657120Y694342D01*
X657113Y694269D01*
X657113Y610485D01*
X656030Y607871D01*
X634204Y586045D01*
X634147Y585966D01*
X634085Y585891D01*
X634077Y585867D01*
X634062Y585847D01*
X634034Y585754D01*
X633999Y585662D01*
X633996Y585629D01*
X633991Y585613D01*
X633992Y585589D01*
X633985Y585515D01*
X633985Y575272D01*
X632206Y570977D01*
X628919Y567690D01*
X624624Y565911D01*
X619976Y565911D01*
G37*
%LPD*%
%LPC*%
G36*
X481546Y458215D02*
X481546Y458215D01*
X477251Y459994D01*
X473964Y463281D01*
X472185Y467576D01*
X472185Y472224D01*
X473964Y476519D01*
X477251Y479806D01*
X477424Y479877D01*
X477424Y479878D01*
X477425Y479878D01*
X477516Y479935D01*
X477632Y480006D01*
X477632Y480007D01*
X477714Y480106D01*
X477787Y480195D01*
X477827Y480303D01*
X477873Y480423D01*
X477873Y480424D01*
X477887Y480570D01*
X477887Y524415D01*
X478970Y527029D01*
X487968Y536027D01*
X488025Y536106D01*
X488087Y536181D01*
X488095Y536205D01*
X488110Y536225D01*
X488138Y536318D01*
X488173Y536410D01*
X488176Y536443D01*
X488181Y536459D01*
X488180Y536483D01*
X488187Y536557D01*
X488187Y567874D01*
X488171Y567970D01*
X488162Y568067D01*
X488152Y568090D01*
X488148Y568114D01*
X488102Y568201D01*
X488061Y568289D01*
X488040Y568315D01*
X488033Y568330D01*
X488014Y568347D01*
X487968Y568404D01*
X485394Y570977D01*
X483615Y575272D01*
X483615Y593128D01*
X485394Y597423D01*
X488681Y600710D01*
X492976Y602489D01*
X497624Y602489D01*
X501919Y600710D01*
X505206Y597423D01*
X506985Y593128D01*
X506985Y575272D01*
X505206Y570977D01*
X502632Y568404D01*
X502575Y568324D01*
X502513Y568249D01*
X502505Y568226D01*
X502490Y568205D01*
X502462Y568112D01*
X502427Y568021D01*
X502424Y567988D01*
X502419Y567972D01*
X502420Y567947D01*
X502413Y567874D01*
X502413Y531885D01*
X501330Y529271D01*
X492332Y520273D01*
X492275Y520194D01*
X492213Y520119D01*
X492205Y520095D01*
X492190Y520075D01*
X492162Y519982D01*
X492127Y519890D01*
X492124Y519857D01*
X492119Y519841D01*
X492120Y519817D01*
X492113Y519743D01*
X492113Y478492D01*
X492129Y478396D01*
X492138Y478299D01*
X492148Y478276D01*
X492152Y478252D01*
X492198Y478166D01*
X492239Y478077D01*
X492260Y478051D01*
X492267Y478036D01*
X492286Y478019D01*
X492332Y477962D01*
X493776Y476519D01*
X495555Y472224D01*
X495555Y467576D01*
X493776Y463281D01*
X490489Y459994D01*
X486194Y458215D01*
X481546Y458215D01*
G37*
%LPD*%
%LPC*%
G36*
X296080Y87167D02*
X296080Y87167D01*
X291412Y89101D01*
X287839Y92674D01*
X285905Y97342D01*
X285905Y117634D01*
X287839Y122302D01*
X290168Y124631D01*
X290225Y124711D01*
X290287Y124786D01*
X290295Y124809D01*
X290310Y124830D01*
X290338Y124923D01*
X290373Y125014D01*
X290376Y125047D01*
X290381Y125063D01*
X290380Y125088D01*
X290387Y125161D01*
X290387Y154839D01*
X290371Y154935D01*
X290362Y155032D01*
X290352Y155055D01*
X290348Y155080D01*
X290302Y155166D01*
X290261Y155254D01*
X290240Y155280D01*
X290233Y155295D01*
X290214Y155312D01*
X290168Y155369D01*
X287839Y157698D01*
X285905Y162366D01*
X285905Y182658D01*
X287839Y187326D01*
X291412Y190899D01*
X296080Y192833D01*
X301132Y192833D01*
X305800Y190899D01*
X309373Y187326D01*
X311307Y182658D01*
X311307Y162366D01*
X309373Y157698D01*
X305800Y154125D01*
X305076Y153825D01*
X305075Y153824D01*
X304987Y153769D01*
X304868Y153696D01*
X304780Y153588D01*
X304713Y153508D01*
X304713Y153507D01*
X304661Y153369D01*
X304627Y153279D01*
X304627Y153278D01*
X304613Y153132D01*
X304613Y126868D01*
X304640Y126700D01*
X304652Y126627D01*
X304715Y126510D01*
X304767Y126412D01*
X304851Y126333D01*
X304945Y126245D01*
X304946Y126245D01*
X305075Y126176D01*
X305800Y125875D01*
X309373Y122302D01*
X311307Y117634D01*
X311307Y97342D01*
X309373Y92674D01*
X305800Y89101D01*
X301132Y87167D01*
X296080Y87167D01*
G37*
%LPD*%
%LPC*%
G36*
X772237Y640137D02*
X772237Y640137D01*
X768980Y641487D01*
X766487Y643980D01*
X765137Y647237D01*
X765137Y650763D01*
X765814Y652397D01*
X765831Y652469D01*
X765857Y652537D01*
X765864Y652611D01*
X765870Y652635D01*
X765868Y652651D01*
X765871Y652684D01*
X765871Y702323D01*
X765855Y702419D01*
X765846Y702516D01*
X765836Y702539D01*
X765832Y702563D01*
X765786Y702650D01*
X765745Y702738D01*
X765724Y702764D01*
X765717Y702779D01*
X765698Y702796D01*
X765652Y702852D01*
X758809Y709695D01*
X757571Y712683D01*
X757571Y727233D01*
X757555Y727330D01*
X757546Y727426D01*
X757536Y727449D01*
X757532Y727474D01*
X757486Y727560D01*
X757445Y727649D01*
X757424Y727674D01*
X757417Y727689D01*
X757398Y727706D01*
X757352Y727763D01*
X756619Y728495D01*
X756619Y744704D01*
X759596Y747681D01*
X771804Y747681D01*
X774781Y744704D01*
X774781Y728495D01*
X774048Y727763D01*
X773991Y727684D01*
X773929Y727608D01*
X773921Y727585D01*
X773906Y727565D01*
X773878Y727471D01*
X773843Y727380D01*
X773840Y727347D01*
X773835Y727331D01*
X773836Y727306D01*
X773829Y727233D01*
X773829Y717977D01*
X773845Y717881D01*
X773854Y717784D01*
X773864Y717761D01*
X773868Y717737D01*
X773914Y717651D01*
X773955Y717562D01*
X773976Y717536D01*
X773983Y717521D01*
X774002Y717504D01*
X774048Y717448D01*
X778499Y712997D01*
X778499Y712996D01*
X780891Y710605D01*
X782129Y707617D01*
X782129Y652684D01*
X782141Y652612D01*
X782143Y652539D01*
X782164Y652468D01*
X782168Y652443D01*
X782176Y652429D01*
X782186Y652397D01*
X782863Y650763D01*
X782863Y647237D01*
X781513Y643980D01*
X779020Y641487D01*
X775763Y640137D01*
X772237Y640137D01*
G37*
%LPD*%
%LPC*%
G36*
X482675Y258707D02*
X482675Y258707D01*
X478193Y260563D01*
X474763Y263993D01*
X472907Y268475D01*
X472907Y273325D01*
X474763Y277807D01*
X478193Y281237D01*
X482228Y282908D01*
X482291Y282947D01*
X482358Y282977D01*
X482394Y283011D01*
X482435Y283037D01*
X482482Y283093D01*
X482536Y283144D01*
X482559Y283187D01*
X482590Y283225D01*
X482616Y283294D01*
X482651Y283359D01*
X482659Y283407D01*
X482676Y283454D01*
X482679Y283527D01*
X482691Y283599D01*
X482683Y283648D01*
X482684Y283697D01*
X482663Y283768D01*
X482651Y283840D01*
X482628Y283884D01*
X482614Y283931D01*
X482571Y283991D01*
X482536Y284056D01*
X482500Y284089D01*
X482472Y284129D01*
X482412Y284172D01*
X482358Y284223D01*
X482294Y284257D01*
X482273Y284272D01*
X482258Y284277D01*
X482228Y284292D01*
X478193Y285963D01*
X474763Y289393D01*
X472907Y293875D01*
X472907Y298725D01*
X474763Y303207D01*
X478193Y306637D01*
X482228Y308308D01*
X482291Y308347D01*
X482358Y308377D01*
X482394Y308411D01*
X482435Y308437D01*
X482482Y308493D01*
X482536Y308544D01*
X482559Y308587D01*
X482590Y308625D01*
X482616Y308694D01*
X482651Y308759D01*
X482659Y308807D01*
X482676Y308854D01*
X482679Y308927D01*
X482691Y308999D01*
X482683Y309048D01*
X482684Y309097D01*
X482663Y309168D01*
X482651Y309240D01*
X482628Y309284D01*
X482614Y309331D01*
X482571Y309391D01*
X482536Y309456D01*
X482500Y309489D01*
X482472Y309529D01*
X482412Y309572D01*
X482358Y309623D01*
X482294Y309657D01*
X482273Y309672D01*
X482258Y309677D01*
X482228Y309692D01*
X478193Y311363D01*
X474763Y314793D01*
X472907Y319275D01*
X472907Y324125D01*
X474763Y328607D01*
X478193Y332037D01*
X482675Y333893D01*
X487525Y333893D01*
X492007Y332037D01*
X495437Y328607D01*
X497293Y324125D01*
X497293Y319275D01*
X495437Y314793D01*
X492007Y311363D01*
X487972Y309692D01*
X487909Y309653D01*
X487842Y309623D01*
X487806Y309589D01*
X487765Y309563D01*
X487718Y309507D01*
X487664Y309456D01*
X487641Y309413D01*
X487610Y309375D01*
X487584Y309306D01*
X487549Y309241D01*
X487541Y309193D01*
X487524Y309146D01*
X487521Y309073D01*
X487509Y309001D01*
X487517Y308952D01*
X487516Y308903D01*
X487537Y308832D01*
X487549Y308760D01*
X487572Y308716D01*
X487586Y308669D01*
X487629Y308609D01*
X487664Y308544D01*
X487700Y308511D01*
X487728Y308471D01*
X487788Y308428D01*
X487842Y308377D01*
X487906Y308343D01*
X487927Y308328D01*
X487942Y308323D01*
X487972Y308308D01*
X492007Y306637D01*
X495437Y303207D01*
X497293Y298725D01*
X497293Y293875D01*
X495437Y289393D01*
X492007Y285963D01*
X487972Y284292D01*
X487909Y284253D01*
X487842Y284223D01*
X487806Y284189D01*
X487765Y284163D01*
X487718Y284107D01*
X487664Y284056D01*
X487641Y284013D01*
X487610Y283975D01*
X487584Y283906D01*
X487549Y283841D01*
X487541Y283793D01*
X487524Y283746D01*
X487521Y283673D01*
X487509Y283601D01*
X487517Y283552D01*
X487516Y283503D01*
X487537Y283432D01*
X487549Y283360D01*
X487572Y283316D01*
X487586Y283269D01*
X487629Y283209D01*
X487664Y283144D01*
X487700Y283111D01*
X487728Y283071D01*
X487788Y283028D01*
X487842Y282977D01*
X487906Y282943D01*
X487927Y282928D01*
X487942Y282923D01*
X487972Y282908D01*
X492007Y281237D01*
X495437Y277807D01*
X497293Y273325D01*
X497293Y268475D01*
X495437Y263993D01*
X492007Y260563D01*
X487525Y258707D01*
X482675Y258707D01*
G37*
%LPD*%
%LPC*%
G36*
X540080Y152191D02*
X540080Y152191D01*
X535412Y154125D01*
X531839Y157698D01*
X529905Y162366D01*
X529905Y182658D01*
X531839Y187326D01*
X535412Y190899D01*
X540080Y192833D01*
X545132Y192833D01*
X549800Y190899D01*
X553373Y187326D01*
X555307Y182658D01*
X555307Y162366D01*
X553373Y157698D01*
X549800Y154125D01*
X545132Y152191D01*
X540080Y152191D01*
G37*
%LPD*%
%LPC*%
G36*
X540080Y87167D02*
X540080Y87167D01*
X535412Y89101D01*
X531839Y92674D01*
X529905Y97342D01*
X529905Y117634D01*
X531839Y122302D01*
X535412Y125875D01*
X540080Y127809D01*
X545132Y127809D01*
X549800Y125875D01*
X553373Y122302D01*
X555307Y117634D01*
X555307Y97342D01*
X553373Y92674D01*
X549800Y89101D01*
X545132Y87167D01*
X540080Y87167D01*
G37*
%LPD*%
%LPC*%
G36*
X543776Y642111D02*
X543776Y642111D01*
X539481Y643890D01*
X536194Y647177D01*
X534415Y651472D01*
X534415Y669328D01*
X536194Y673623D01*
X539481Y676910D01*
X543776Y678689D01*
X548424Y678689D01*
X552719Y676910D01*
X556006Y673623D01*
X557785Y669328D01*
X557785Y651472D01*
X556006Y647177D01*
X552719Y643890D01*
X548424Y642111D01*
X543776Y642111D01*
G37*
%LPD*%
%LPC*%
G36*
X315176Y642111D02*
X315176Y642111D01*
X310881Y643890D01*
X307594Y647177D01*
X305815Y651472D01*
X305815Y669328D01*
X307594Y673623D01*
X310881Y676910D01*
X315176Y678689D01*
X319824Y678689D01*
X324119Y676910D01*
X327406Y673623D01*
X329185Y669328D01*
X329185Y651472D01*
X327406Y647177D01*
X324119Y643890D01*
X319824Y642111D01*
X315176Y642111D01*
G37*
%LPD*%
%LPC*%
G36*
X492976Y642111D02*
X492976Y642111D01*
X488681Y643890D01*
X485394Y647177D01*
X483615Y651472D01*
X483615Y669328D01*
X485394Y673623D01*
X488681Y676910D01*
X492976Y678689D01*
X497624Y678689D01*
X501919Y676910D01*
X505206Y673623D01*
X506985Y669328D01*
X506985Y651472D01*
X505206Y647177D01*
X501919Y643890D01*
X497624Y642111D01*
X492976Y642111D01*
G37*
%LPD*%
%LPC*%
G36*
X569176Y565911D02*
X569176Y565911D01*
X564881Y567690D01*
X561594Y570977D01*
X559815Y575272D01*
X559815Y593128D01*
X561594Y597423D01*
X564881Y600710D01*
X569176Y602489D01*
X573824Y602489D01*
X578119Y600710D01*
X581406Y597423D01*
X583185Y593128D01*
X583185Y575272D01*
X581406Y570977D01*
X578119Y567690D01*
X573824Y565911D01*
X569176Y565911D01*
G37*
%LPD*%
%LPC*%
G36*
X594576Y565911D02*
X594576Y565911D01*
X590281Y567690D01*
X586994Y570977D01*
X585215Y575272D01*
X585215Y593128D01*
X586994Y597423D01*
X590281Y600710D01*
X594576Y602489D01*
X599224Y602489D01*
X603519Y600710D01*
X606806Y597423D01*
X608585Y593128D01*
X608585Y575272D01*
X606806Y570977D01*
X603519Y567690D01*
X599224Y565911D01*
X594576Y565911D01*
G37*
%LPD*%
%LPC*%
G36*
X543776Y565911D02*
X543776Y565911D01*
X539481Y567690D01*
X536194Y570977D01*
X534415Y575272D01*
X534415Y593128D01*
X536194Y597423D01*
X539481Y600710D01*
X543776Y602489D01*
X548424Y602489D01*
X552719Y600710D01*
X556006Y597423D01*
X557785Y593128D01*
X557785Y575272D01*
X556006Y570977D01*
X552719Y567690D01*
X548424Y565911D01*
X543776Y565911D01*
G37*
%LPD*%
%LPC*%
G36*
X446237Y460137D02*
X446237Y460137D01*
X442980Y461487D01*
X442798Y461668D01*
X442719Y461725D01*
X442644Y461787D01*
X442620Y461795D01*
X442600Y461810D01*
X442507Y461838D01*
X442416Y461873D01*
X442383Y461876D01*
X442367Y461881D01*
X442342Y461880D01*
X442269Y461887D01*
X434052Y461887D01*
X434006Y461905D01*
X433932Y461912D01*
X433908Y461918D01*
X433892Y461916D01*
X433859Y461919D01*
X427396Y461919D01*
X424419Y464896D01*
X424419Y476104D01*
X427396Y479081D01*
X440605Y479081D01*
X442761Y476924D01*
X442859Y476854D01*
X442959Y476782D01*
X442960Y476782D01*
X443076Y476746D01*
X443193Y476711D01*
X443318Y476715D01*
X443437Y476719D01*
X443438Y476719D01*
X443578Y476761D01*
X446237Y477863D01*
X449763Y477863D01*
X453020Y476513D01*
X455513Y474020D01*
X456863Y470763D01*
X456863Y467237D01*
X455513Y463980D01*
X453020Y461487D01*
X449763Y460137D01*
X446237Y460137D01*
G37*
%LPD*%
D10*
X730000Y673100D03*
X794000Y673100D03*
D11*
X732900Y736600D03*
X714900Y736600D03*
X765700Y736600D03*
X783700Y736600D03*
D10*
X794000Y596900D03*
X730000Y596900D03*
D12*
X292100Y590804D02*
X292100Y577596D01*
X317500Y577596D02*
X317500Y590804D01*
X342900Y590804D02*
X342900Y577596D01*
X368300Y577596D02*
X368300Y590804D01*
X393700Y590804D02*
X393700Y577596D01*
X419100Y577596D02*
X419100Y590804D01*
X444500Y590804D02*
X444500Y577596D01*
X469900Y577596D02*
X469900Y590804D01*
X495300Y590804D02*
X495300Y577596D01*
X520700Y577596D02*
X520700Y590804D01*
X546100Y590804D02*
X546100Y577596D01*
X571500Y577596D02*
X571500Y590804D01*
X596900Y590804D02*
X596900Y577596D01*
X622300Y577596D02*
X622300Y590804D01*
X622300Y653796D02*
X622300Y667004D01*
X596900Y667004D02*
X596900Y653796D01*
X571500Y653796D02*
X571500Y667004D01*
X546100Y667004D02*
X546100Y653796D01*
X520700Y653796D02*
X520700Y667004D01*
X495300Y667004D02*
X495300Y653796D01*
X469900Y653796D02*
X469900Y667004D01*
X444500Y667004D02*
X444500Y653796D01*
X419100Y653796D02*
X419100Y667004D01*
X393700Y667004D02*
X393700Y653796D01*
X368300Y653796D02*
X368300Y667004D01*
X342900Y667004D02*
X342900Y653796D01*
X317500Y653796D02*
X317500Y667004D01*
X292100Y667004D02*
X292100Y653796D01*
D13*
X276900Y777300D03*
D14*
X302300Y777300D03*
X327700Y777300D03*
X353100Y777300D03*
X378500Y777300D03*
X403900Y777300D03*
X429300Y777300D03*
X454700Y777300D03*
X480100Y777300D03*
X505500Y777300D03*
X530900Y777300D03*
X556300Y777300D03*
X581700Y777300D03*
X607100Y777300D03*
X632500Y777300D03*
X657900Y777300D03*
D15*
X757620Y769300D03*
X729180Y769300D03*
D16*
X532130Y469900D03*
X483870Y469900D03*
D17*
X815500Y736600D03*
X835500Y736600D03*
X816500Y769300D03*
X836500Y769300D03*
X352000Y179000D03*
X332000Y179000D03*
X352000Y100000D03*
X332000Y100000D03*
X352000Y139000D03*
X332000Y139000D03*
D18*
X397394Y115108D02*
X397394Y99868D01*
X442606Y99868D02*
X442606Y115108D01*
X397394Y164892D02*
X397394Y180132D01*
X442606Y180132D02*
X442606Y164892D01*
X542606Y164892D02*
X542606Y180132D01*
X497394Y180132D02*
X497394Y164892D01*
X542606Y115108D02*
X542606Y99868D01*
X497394Y99868D02*
X497394Y115108D01*
X298606Y164892D02*
X298606Y180132D01*
X253394Y180132D02*
X253394Y164892D01*
X298606Y115108D02*
X298606Y99868D01*
X253394Y99868D02*
X253394Y115108D01*
D19*
X958088Y586486D03*
X958088Y609600D03*
X958088Y632714D03*
D20*
X896110Y609600D03*
D21*
X215000Y735000D03*
X215000Y685000D03*
X240000Y710000D03*
D22*
X261700Y396200D03*
D23*
X236300Y396200D03*
X261700Y370800D03*
X236300Y370800D03*
X261700Y345400D03*
X236300Y345400D03*
X261700Y320000D03*
X236300Y320000D03*
X261700Y294600D03*
X236300Y294600D03*
X261700Y269200D03*
X236300Y269200D03*
X261700Y243800D03*
X236300Y243800D03*
D24*
X434000Y483500D03*
X434000Y470500D03*
X577000Y480500D03*
X577000Y467500D03*
D25*
X879078Y753000D02*
X900922Y753000D01*
X920000Y715922D02*
X920000Y694078D01*
X860000Y694078D02*
X860000Y715922D01*
D22*
X485100Y270900D03*
X485100Y296300D03*
X485100Y321700D03*
D26*
X485100Y245500D03*
D27*
X730000Y673100D02*
X730000Y716000D01*
X958088Y632714D02*
X960000Y635000D01*
X732900Y718900D02*
X732900Y736600D01*
X732900Y718900D02*
X730000Y716000D01*
D28*
X732900Y718900D03*
D27*
X922100Y635000D02*
X960000Y635000D01*
D28*
X922100Y635000D03*
D27*
X730000Y596900D02*
X730000Y595000D01*
X790000Y675000D02*
X785000Y680000D01*
X785000Y735000D01*
X790000Y675000D02*
X794000Y673100D01*
X785000Y735000D02*
X783700Y736600D01*
D29*
X450000Y780000D02*
X430000Y780000D01*
X429300Y777300D01*
X450000Y780000D02*
X454700Y777300D01*
X485000Y780000D02*
X505000Y780000D01*
X485000Y780000D02*
X480100Y777300D01*
X505000Y780000D02*
X505500Y777300D01*
X480000Y780000D02*
X455000Y780000D01*
X454700Y777300D01*
X480100Y777300D02*
X480000Y780000D01*
X470000Y632000D02*
X470000Y584300D01*
X469900Y584200D01*
X445000Y770000D02*
X450000Y775000D01*
X445000Y770000D02*
X445000Y665000D01*
X450000Y775000D02*
X454700Y777300D01*
X445000Y665000D02*
X444500Y660400D01*
X438000Y433000D02*
X438000Y247000D01*
D27*
X725000Y750000D02*
X725000Y765000D01*
X729180Y769300D01*
X725000Y750000D02*
X780000Y750000D01*
X725000Y770000D02*
X700000Y770000D01*
X725000Y770000D02*
X729180Y769300D01*
X783700Y746300D02*
X783700Y736600D01*
X783700Y746300D02*
X780000Y750000D01*
D28*
X700000Y770000D03*
D29*
X727500Y480000D02*
X577500Y480000D01*
D27*
X727500Y592500D02*
X730000Y595000D01*
X727500Y592500D02*
X727500Y480000D01*
D29*
X252500Y172500D02*
X252500Y107500D01*
X253394Y107488D01*
X252500Y172500D02*
X253394Y172512D01*
X262500Y245000D02*
X262500Y267500D01*
X262500Y245000D02*
X261700Y243800D01*
X262500Y267500D02*
X261700Y269200D01*
X262500Y270000D02*
X262500Y292500D01*
X261700Y294600D01*
X262500Y295000D02*
X262500Y320000D01*
X261700Y320000D01*
X262500Y295000D02*
X261700Y294600D01*
X215000Y685000D02*
X215000Y709000D01*
X276900Y770900D02*
X276900Y777300D01*
X276900Y770900D02*
X215000Y709000D01*
X445000Y107500D02*
X495000Y107500D01*
X445000Y107500D02*
X442606Y107488D01*
X495000Y107500D02*
X497394Y107488D01*
X445000Y172500D02*
X442606Y172512D01*
X495000Y172500D02*
X497394Y172512D01*
X442500Y172500D02*
X442500Y107500D01*
X442606Y107488D01*
X442500Y172500D02*
X442606Y172512D01*
X262500Y270000D02*
X261700Y269200D01*
X444500Y657500D02*
X444500Y660400D01*
X444500Y657500D02*
X470000Y632000D01*
X469900Y584200D02*
X469900Y531900D01*
D28*
X438000Y247000D03*
X310000Y269000D03*
D29*
X261900Y269000D01*
X261700Y269200D01*
D27*
X730000Y596900D02*
X730000Y626000D01*
X794000Y645000D02*
X794000Y673100D01*
X737000Y633000D02*
X730000Y626000D01*
X737000Y633000D02*
X782000Y633000D01*
X794000Y645000D01*
X714900Y736600D02*
X714900Y750000D01*
X725000Y750000D01*
D29*
X577000Y480500D02*
X577500Y480000D01*
X434000Y483500D02*
X434000Y496000D01*
X434000Y483500D02*
X423500Y483500D01*
X422000Y482000D01*
X422000Y449000D01*
X438000Y433000D01*
X434000Y496000D02*
X469900Y531900D01*
D27*
X958088Y586486D02*
X976514Y586486D01*
X977000Y586000D01*
X978000Y587000D01*
D28*
X978000Y587000D03*
D29*
X438500Y246500D02*
X438000Y247000D01*
X442606Y172512D02*
X485012Y172512D01*
X485100Y172600D01*
X485012Y172512D02*
X497394Y172512D01*
D27*
X774000Y649000D02*
X774000Y706000D01*
X790000Y595000D02*
X785000Y590000D01*
X785000Y510000D01*
X790000Y595000D02*
X794000Y596900D01*
X814000Y636000D02*
X814000Y649000D01*
X814000Y734000D01*
X805000Y602000D02*
X799900Y596900D01*
X794000Y596900D01*
X888510Y602000D02*
X896110Y609600D01*
X888510Y602000D02*
X805000Y602000D01*
D28*
X774000Y649000D03*
X814000Y649000D03*
D27*
X836000Y752000D02*
X836000Y768800D01*
X836500Y769300D01*
X896110Y609600D02*
X958088Y609600D01*
X785000Y510000D02*
X782500Y510000D01*
D28*
X782500Y510000D03*
D29*
X316600Y345400D02*
X261700Y345400D01*
X316600Y345400D02*
X330000Y332000D01*
X330000Y287000D01*
X332000Y285000D01*
X332000Y179000D01*
D28*
X330000Y287000D03*
D27*
X794000Y596900D02*
X794000Y616000D01*
X814000Y636000D01*
X765700Y714300D02*
X765700Y736600D01*
X765700Y714300D02*
X774000Y706000D01*
X815500Y736600D02*
X815500Y752000D01*
X836000Y752000D01*
X815500Y736600D02*
X815000Y735000D01*
X814000Y734000D01*
D29*
X332000Y179000D02*
X332000Y139000D01*
X332000Y100000D01*
X535000Y725000D02*
X535000Y775000D01*
X530900Y777300D01*
X650000Y611900D02*
X622300Y584200D01*
X650000Y611900D02*
X650000Y700000D01*
D28*
X650000Y700000D03*
X535000Y725000D03*
D29*
X560000Y735000D02*
X560000Y754000D01*
X622300Y727300D02*
X622300Y660400D01*
X622300Y727300D02*
X625000Y730000D01*
D28*
X625000Y730000D03*
X560000Y735000D03*
D29*
X556300Y757700D02*
X556300Y777300D01*
X556300Y757700D02*
X560000Y754000D01*
X585000Y749000D02*
X585000Y715000D01*
X596900Y703100D02*
X596900Y660400D01*
X596900Y703100D02*
X585000Y715000D01*
X581700Y752300D02*
X581700Y777300D01*
X581700Y752300D02*
X585000Y749000D01*
X610000Y743000D02*
X610000Y715000D01*
X571500Y702500D02*
X571500Y660400D01*
D28*
X571500Y715000D03*
D29*
X571500Y702500D01*
D28*
X610000Y715000D03*
X474000Y714000D03*
D29*
X236300Y345400D02*
X227100Y345400D01*
X219500Y353000D01*
X219500Y406500D01*
X263000Y602500D02*
X277000Y616500D01*
X263000Y602500D02*
X263000Y450000D01*
D28*
X277000Y616500D03*
D29*
X263000Y450000D02*
X219500Y406500D01*
X570500Y714000D02*
X571500Y715000D01*
X607100Y745900D02*
X607100Y777300D01*
X607100Y745900D02*
X610000Y743000D01*
X571500Y702500D02*
X525000Y702500D01*
X475000Y712500D02*
X474000Y714000D01*
X513500Y714000D01*
X525000Y702500D01*
X356000Y638000D02*
X356000Y775000D01*
X356000Y638000D02*
X356000Y625000D01*
X356000Y775000D02*
X353100Y777300D01*
D28*
X457000Y627000D03*
X252000Y623500D03*
D29*
X449000Y635000D02*
X457000Y627000D01*
X359000Y635000D02*
X356000Y638000D01*
X359000Y635000D02*
X449000Y635000D01*
X356000Y625000D02*
X297000Y625000D01*
X289000Y633000D01*
X261500Y633000D01*
X252000Y623500D01*
X378500Y777300D02*
X381000Y775800D01*
X381000Y688000D01*
X520700Y683300D02*
X520700Y660400D01*
X520700Y683300D02*
X516000Y688000D01*
X464000Y688000D01*
D28*
X464000Y688000D03*
X381000Y688000D03*
X298000Y688000D03*
D29*
X240500Y655000D02*
X240500Y496000D01*
X297500Y687500D02*
X298000Y688000D01*
X252000Y484500D02*
X252000Y456077D01*
X252000Y484500D02*
X240500Y496000D01*
X252000Y456077D02*
X210500Y414577D01*
X273000Y687500D02*
X297500Y687500D01*
X273000Y687500D02*
X240500Y655000D01*
X236300Y269200D02*
X217800Y269200D01*
X210500Y276500D01*
X210500Y414577D01*
X400000Y683000D02*
X400000Y775000D01*
X403900Y777300D01*
X393700Y676700D02*
X393700Y660400D01*
X393700Y676700D02*
X400000Y683000D01*
D27*
X757620Y769300D02*
X760000Y770000D01*
X815000Y770000D01*
X816500Y769300D01*
D29*
X641000Y745000D02*
X632500Y753500D01*
X632500Y777300D01*
X641000Y745000D02*
X665000Y745000D01*
X302300Y777300D02*
X301000Y776000D01*
X301000Y741000D01*
D28*
X665000Y745000D03*
X301000Y741000D03*
X719000Y697000D03*
D29*
X671000Y745000D02*
X665000Y745000D01*
D27*
X671000Y745000D02*
X719000Y697000D01*
D29*
X354500Y181500D02*
X352000Y179000D01*
X386000Y181500D02*
X395000Y172500D01*
X386000Y181500D02*
X369000Y181500D01*
X354500Y181500D01*
X395000Y172500D02*
X397394Y172512D01*
X397500Y172500D02*
X397500Y107500D01*
X397394Y107488D01*
X397500Y172500D02*
X397394Y172512D01*
X369000Y181500D02*
X368300Y182200D01*
X368300Y584200D01*
X432000Y622000D02*
X432000Y518000D01*
D28*
X432000Y622000D03*
D29*
X432000Y518000D02*
X409000Y495000D01*
D28*
X409000Y297000D03*
D29*
X409000Y495000D01*
D27*
X826000Y671000D02*
X826000Y714000D01*
D28*
X841000Y656000D03*
D27*
X835500Y723500D02*
X835500Y736600D01*
X835500Y723500D02*
X826000Y714000D01*
X826000Y671000D02*
X841000Y656000D01*
D29*
X530000Y525000D02*
X530000Y470000D01*
X532130Y469900D01*
X534530Y467500D02*
X577000Y467500D01*
X534530Y467500D02*
X532130Y469900D01*
X530000Y525000D02*
X520700Y534300D01*
X520700Y584200D01*
X485000Y523000D02*
X485000Y470000D01*
X483870Y469900D01*
D28*
X448000Y469000D03*
D29*
X495300Y533300D02*
X495300Y584200D01*
X495300Y533300D02*
X485000Y523000D01*
X448000Y469000D02*
X435500Y469000D01*
X434000Y470500D01*
X315000Y710000D02*
X327700Y722700D01*
X327700Y777300D01*
X315000Y710000D02*
X240000Y710000D01*
X297500Y172500D02*
X297500Y107500D01*
X297500Y172500D02*
X298606Y172512D01*
X297500Y107500D02*
X298606Y107488D01*
X296000Y415000D02*
X290000Y421000D01*
D28*
X296000Y415000D03*
X219000Y258000D03*
D29*
X290000Y421000D02*
X290000Y520000D01*
X219000Y258000D02*
X219000Y223000D01*
X230000Y212000D01*
X290000Y212000D01*
X291000Y211000D01*
D28*
X291000Y211000D03*
D29*
X352000Y139000D02*
X365000Y152000D01*
X366000Y152000D01*
D28*
X366000Y152000D03*
D29*
X292100Y520000D02*
X290000Y520000D01*
X292100Y520000D02*
X292100Y584200D01*
X406000Y612000D02*
X407000Y611000D01*
X407000Y511000D01*
D28*
X407000Y511000D03*
X406000Y612000D03*
D29*
X393700Y584200D02*
X392000Y582500D01*
X392000Y277811D01*
D28*
X420000Y139000D03*
D29*
X420000Y249811D01*
X392000Y277811D01*
X371000Y107000D02*
X364000Y100000D01*
X352000Y100000D01*
D28*
X371000Y107000D03*
D29*
X261700Y396200D02*
X262500Y397500D01*
X300500Y397500D01*
X317500Y414500D01*
X317500Y584200D01*
X342500Y582500D02*
X342500Y415000D01*
X342500Y582500D02*
X342900Y584200D01*
X262500Y372500D02*
X261700Y370800D01*
X262500Y372500D02*
X300000Y372500D01*
X342500Y415000D01*
M02*
