G04 EAGLE Gerber RS-274X export*
G75*
%MOMM*%
%FSLAX34Y34*%
%LPD*%
%INSilkscreen Top*%
%IPPOS*%
%AMOC8*
5,1,8,0,0,1.08239X$1,22.5*%
G01*
%ADD10C,0.101600*%
%ADD11C,0.127000*%
%ADD12C,0.152400*%
%ADD13C,0.177800*%
%ADD14C,0.203200*%
%ADD15R,0.200000X0.200000*%
%ADD16R,0.150000X0.250000*%
%ADD17C,0.406400*%
%ADD18R,0.650000X1.400000*%
%ADD19C,0.050800*%
%ADD20C,0.025400*%
%ADD21C,0.100000*%


D10*
X742301Y699008D02*
X739704Y699008D01*
X739605Y699010D01*
X739505Y699016D01*
X739406Y699025D01*
X739308Y699038D01*
X739210Y699055D01*
X739112Y699076D01*
X739016Y699101D01*
X738921Y699129D01*
X738827Y699161D01*
X738734Y699196D01*
X738642Y699235D01*
X738552Y699278D01*
X738464Y699323D01*
X738377Y699373D01*
X738293Y699425D01*
X738210Y699481D01*
X738130Y699539D01*
X738052Y699601D01*
X737977Y699666D01*
X737904Y699734D01*
X737834Y699804D01*
X737766Y699877D01*
X737701Y699952D01*
X737639Y700030D01*
X737581Y700110D01*
X737525Y700193D01*
X737473Y700277D01*
X737423Y700364D01*
X737378Y700452D01*
X737335Y700542D01*
X737296Y700634D01*
X737261Y700727D01*
X737229Y700821D01*
X737201Y700916D01*
X737176Y701012D01*
X737155Y701110D01*
X737138Y701208D01*
X737125Y701306D01*
X737116Y701405D01*
X737110Y701505D01*
X737108Y701604D01*
X737108Y708096D01*
X737110Y708195D01*
X737116Y708295D01*
X737125Y708394D01*
X737138Y708492D01*
X737155Y708590D01*
X737176Y708688D01*
X737201Y708784D01*
X737229Y708879D01*
X737261Y708973D01*
X737296Y709066D01*
X737335Y709158D01*
X737378Y709248D01*
X737423Y709336D01*
X737473Y709423D01*
X737525Y709507D01*
X737581Y709590D01*
X737639Y709670D01*
X737701Y709748D01*
X737766Y709823D01*
X737834Y709896D01*
X737904Y709966D01*
X737977Y710034D01*
X738052Y710099D01*
X738130Y710161D01*
X738210Y710219D01*
X738293Y710275D01*
X738377Y710327D01*
X738464Y710377D01*
X738552Y710422D01*
X738642Y710465D01*
X738734Y710504D01*
X738826Y710539D01*
X738921Y710571D01*
X739016Y710599D01*
X739112Y710624D01*
X739210Y710645D01*
X739308Y710662D01*
X739406Y710675D01*
X739505Y710684D01*
X739605Y710690D01*
X739704Y710692D01*
X742301Y710692D01*
X746172Y697710D02*
X751365Y697710D01*
X756191Y699008D02*
X756191Y710692D01*
X762682Y699008D01*
X762682Y710692D01*
X768002Y708096D02*
X771248Y710692D01*
X771248Y699008D01*
X774493Y699008D02*
X768002Y699008D01*
D11*
X717283Y722249D02*
X716211Y722249D01*
X716146Y722251D01*
X716082Y722257D01*
X716018Y722267D01*
X715954Y722280D01*
X715892Y722298D01*
X715831Y722319D01*
X715771Y722343D01*
X715713Y722372D01*
X715656Y722404D01*
X715602Y722439D01*
X715550Y722477D01*
X715500Y722519D01*
X715453Y722563D01*
X715409Y722610D01*
X715367Y722660D01*
X715329Y722712D01*
X715294Y722766D01*
X715262Y722823D01*
X715233Y722881D01*
X715209Y722941D01*
X715188Y723002D01*
X715170Y723064D01*
X715157Y723128D01*
X715147Y723192D01*
X715141Y723256D01*
X715139Y723321D01*
X715139Y726003D01*
X715141Y726068D01*
X715147Y726132D01*
X715157Y726196D01*
X715170Y726260D01*
X715188Y726322D01*
X715209Y726383D01*
X715233Y726443D01*
X715262Y726501D01*
X715294Y726558D01*
X715329Y726612D01*
X715367Y726664D01*
X715409Y726714D01*
X715453Y726761D01*
X715500Y726805D01*
X715550Y726847D01*
X715602Y726885D01*
X715656Y726920D01*
X715713Y726952D01*
X715771Y726981D01*
X715831Y727005D01*
X715892Y727026D01*
X715954Y727044D01*
X716018Y727057D01*
X716082Y727067D01*
X716146Y727073D01*
X716211Y727075D01*
X717283Y727075D01*
X719459Y721713D02*
X721604Y721713D01*
X724311Y722249D02*
X724311Y727075D01*
X726992Y722249D01*
X726992Y727075D01*
X731455Y727075D02*
X731523Y727073D01*
X731590Y727067D01*
X731657Y727058D01*
X731724Y727045D01*
X731789Y727028D01*
X731854Y727007D01*
X731917Y726983D01*
X731979Y726955D01*
X732039Y726924D01*
X732097Y726890D01*
X732153Y726852D01*
X732208Y726812D01*
X732259Y726768D01*
X732308Y726721D01*
X732355Y726672D01*
X732399Y726621D01*
X732439Y726566D01*
X732477Y726510D01*
X732511Y726452D01*
X732542Y726392D01*
X732570Y726330D01*
X732594Y726267D01*
X732615Y726202D01*
X732632Y726137D01*
X732645Y726070D01*
X732654Y726003D01*
X732660Y725936D01*
X732662Y725868D01*
X731455Y727075D02*
X731377Y727073D01*
X731299Y727067D01*
X731222Y727057D01*
X731145Y727044D01*
X731069Y727026D01*
X730994Y727005D01*
X730920Y726980D01*
X730848Y726951D01*
X730777Y726919D01*
X730708Y726883D01*
X730640Y726844D01*
X730575Y726801D01*
X730512Y726755D01*
X730451Y726706D01*
X730393Y726654D01*
X730338Y726599D01*
X730285Y726542D01*
X730236Y726482D01*
X730189Y726419D01*
X730146Y726355D01*
X730106Y726288D01*
X730069Y726219D01*
X730036Y726148D01*
X730006Y726076D01*
X729980Y726003D01*
X732260Y724930D02*
X732309Y724979D01*
X732356Y725031D01*
X732399Y725086D01*
X732440Y725143D01*
X732478Y725202D01*
X732512Y725263D01*
X732543Y725326D01*
X732571Y725390D01*
X732595Y725456D01*
X732615Y725522D01*
X732632Y725590D01*
X732645Y725659D01*
X732654Y725728D01*
X732660Y725798D01*
X732662Y725868D01*
X732259Y724930D02*
X729980Y722249D01*
X732662Y722249D01*
X767011Y746125D02*
X768083Y746125D01*
X767011Y746125D02*
X766946Y746127D01*
X766882Y746133D01*
X766818Y746143D01*
X766754Y746156D01*
X766692Y746174D01*
X766631Y746195D01*
X766571Y746219D01*
X766513Y746248D01*
X766456Y746280D01*
X766402Y746315D01*
X766350Y746353D01*
X766300Y746395D01*
X766253Y746439D01*
X766209Y746486D01*
X766167Y746536D01*
X766129Y746588D01*
X766094Y746642D01*
X766062Y746699D01*
X766033Y746757D01*
X766009Y746817D01*
X765988Y746878D01*
X765970Y746940D01*
X765957Y747004D01*
X765947Y747068D01*
X765941Y747132D01*
X765939Y747197D01*
X765939Y749879D01*
X765941Y749944D01*
X765947Y750008D01*
X765957Y750072D01*
X765970Y750136D01*
X765988Y750198D01*
X766009Y750259D01*
X766033Y750319D01*
X766062Y750377D01*
X766094Y750434D01*
X766129Y750488D01*
X766167Y750540D01*
X766209Y750590D01*
X766253Y750637D01*
X766300Y750681D01*
X766350Y750723D01*
X766402Y750761D01*
X766456Y750796D01*
X766513Y750828D01*
X766571Y750857D01*
X766631Y750881D01*
X766692Y750902D01*
X766754Y750920D01*
X766818Y750933D01*
X766882Y750943D01*
X766946Y750949D01*
X767011Y750951D01*
X768083Y750951D01*
X770259Y745589D02*
X772404Y745589D01*
X775111Y746125D02*
X775111Y750951D01*
X777792Y746125D01*
X777792Y750951D01*
X780780Y746125D02*
X782121Y746125D01*
X782192Y746127D01*
X782264Y746133D01*
X782334Y746142D01*
X782404Y746155D01*
X782474Y746172D01*
X782542Y746193D01*
X782609Y746217D01*
X782675Y746245D01*
X782739Y746276D01*
X782802Y746311D01*
X782862Y746349D01*
X782921Y746390D01*
X782977Y746434D01*
X783031Y746481D01*
X783082Y746530D01*
X783130Y746583D01*
X783176Y746638D01*
X783218Y746695D01*
X783258Y746755D01*
X783294Y746816D01*
X783327Y746880D01*
X783356Y746945D01*
X783382Y747011D01*
X783405Y747079D01*
X783424Y747148D01*
X783439Y747218D01*
X783450Y747288D01*
X783458Y747359D01*
X783462Y747430D01*
X783462Y747502D01*
X783458Y747573D01*
X783450Y747644D01*
X783439Y747714D01*
X783424Y747784D01*
X783405Y747853D01*
X783382Y747921D01*
X783356Y747987D01*
X783327Y748052D01*
X783294Y748116D01*
X783258Y748177D01*
X783218Y748237D01*
X783176Y748294D01*
X783130Y748349D01*
X783082Y748402D01*
X783031Y748451D01*
X782977Y748498D01*
X782921Y748542D01*
X782862Y748583D01*
X782802Y748621D01*
X782739Y748656D01*
X782675Y748687D01*
X782609Y748715D01*
X782542Y748739D01*
X782474Y748760D01*
X782404Y748777D01*
X782334Y748790D01*
X782264Y748799D01*
X782192Y748805D01*
X782121Y748807D01*
X782389Y750951D02*
X780780Y750951D01*
X782389Y750951D02*
X782454Y750949D01*
X782518Y750943D01*
X782582Y750933D01*
X782646Y750920D01*
X782708Y750902D01*
X782769Y750881D01*
X782829Y750857D01*
X782887Y750828D01*
X782944Y750796D01*
X782998Y750761D01*
X783050Y750723D01*
X783100Y750681D01*
X783147Y750637D01*
X783191Y750590D01*
X783233Y750540D01*
X783271Y750488D01*
X783306Y750434D01*
X783338Y750377D01*
X783367Y750319D01*
X783391Y750259D01*
X783412Y750198D01*
X783430Y750136D01*
X783443Y750072D01*
X783453Y750008D01*
X783459Y749944D01*
X783461Y749879D01*
X783459Y749814D01*
X783453Y749750D01*
X783443Y749686D01*
X783430Y749622D01*
X783412Y749560D01*
X783391Y749499D01*
X783367Y749439D01*
X783338Y749381D01*
X783306Y749324D01*
X783271Y749270D01*
X783233Y749218D01*
X783191Y749168D01*
X783147Y749121D01*
X783100Y749077D01*
X783050Y749035D01*
X782998Y748997D01*
X782944Y748962D01*
X782887Y748930D01*
X782829Y748901D01*
X782769Y748877D01*
X782708Y748856D01*
X782646Y748838D01*
X782582Y748825D01*
X782518Y748815D01*
X782454Y748809D01*
X782389Y748807D01*
X782389Y748806D02*
X781317Y748806D01*
D10*
X754700Y559308D02*
X752103Y559308D01*
X752004Y559310D01*
X751904Y559316D01*
X751805Y559325D01*
X751707Y559338D01*
X751609Y559355D01*
X751511Y559376D01*
X751415Y559401D01*
X751320Y559429D01*
X751226Y559461D01*
X751133Y559496D01*
X751041Y559535D01*
X750951Y559578D01*
X750863Y559623D01*
X750776Y559673D01*
X750692Y559725D01*
X750609Y559781D01*
X750529Y559839D01*
X750451Y559901D01*
X750376Y559966D01*
X750303Y560034D01*
X750233Y560104D01*
X750165Y560177D01*
X750100Y560252D01*
X750038Y560330D01*
X749980Y560410D01*
X749924Y560493D01*
X749872Y560577D01*
X749822Y560664D01*
X749777Y560752D01*
X749734Y560842D01*
X749695Y560934D01*
X749660Y561027D01*
X749628Y561121D01*
X749600Y561216D01*
X749575Y561312D01*
X749554Y561410D01*
X749537Y561508D01*
X749524Y561606D01*
X749515Y561705D01*
X749509Y561805D01*
X749507Y561904D01*
X749507Y568396D01*
X749509Y568495D01*
X749515Y568595D01*
X749524Y568694D01*
X749537Y568792D01*
X749554Y568890D01*
X749575Y568988D01*
X749600Y569084D01*
X749628Y569179D01*
X749660Y569273D01*
X749695Y569366D01*
X749734Y569458D01*
X749777Y569548D01*
X749822Y569636D01*
X749872Y569723D01*
X749924Y569807D01*
X749980Y569890D01*
X750038Y569970D01*
X750100Y570048D01*
X750165Y570123D01*
X750233Y570196D01*
X750303Y570266D01*
X750376Y570334D01*
X750451Y570399D01*
X750529Y570461D01*
X750609Y570519D01*
X750692Y570575D01*
X750776Y570627D01*
X750863Y570677D01*
X750951Y570722D01*
X751041Y570765D01*
X751133Y570804D01*
X751225Y570839D01*
X751320Y570871D01*
X751415Y570899D01*
X751511Y570924D01*
X751609Y570945D01*
X751707Y570962D01*
X751805Y570975D01*
X751904Y570984D01*
X752004Y570990D01*
X752103Y570992D01*
X754700Y570992D01*
X758571Y558010D02*
X763764Y558010D01*
X768590Y559308D02*
X768590Y570992D01*
X775081Y559308D01*
X775081Y570992D01*
X782997Y570992D02*
X780401Y561904D01*
X786892Y561904D01*
X784945Y564501D02*
X784945Y559308D01*
D12*
X271780Y594360D02*
X271780Y615950D01*
X271938Y615952D01*
X272097Y615958D01*
X272255Y615968D01*
X272412Y615982D01*
X272570Y615999D01*
X272726Y616021D01*
X272883Y616046D01*
X273038Y616076D01*
X273193Y616109D01*
X273347Y616146D01*
X273500Y616187D01*
X273652Y616232D01*
X273802Y616281D01*
X273952Y616333D01*
X274100Y616389D01*
X274247Y616449D01*
X274392Y616512D01*
X274535Y616579D01*
X274677Y616649D01*
X274817Y616723D01*
X274955Y616801D01*
X275091Y616882D01*
X275225Y616966D01*
X275357Y617053D01*
X275487Y617144D01*
X275614Y617238D01*
X275739Y617335D01*
X275862Y617436D01*
X275982Y617539D01*
X276099Y617645D01*
X276214Y617754D01*
X276326Y617866D01*
X276435Y617981D01*
X276541Y618098D01*
X276644Y618218D01*
X276745Y618341D01*
X276842Y618466D01*
X276936Y618593D01*
X277027Y618723D01*
X277114Y618855D01*
X277198Y618989D01*
X277279Y619125D01*
X277357Y619263D01*
X277431Y619403D01*
X277501Y619545D01*
X277568Y619688D01*
X277631Y619833D01*
X277691Y619980D01*
X277747Y620128D01*
X277799Y620278D01*
X277848Y620428D01*
X277893Y620580D01*
X277934Y620733D01*
X277971Y620887D01*
X278004Y621042D01*
X278034Y621197D01*
X278059Y621354D01*
X278081Y621510D01*
X278098Y621668D01*
X278112Y621825D01*
X278122Y621983D01*
X278128Y622142D01*
X278130Y622300D01*
X278128Y622458D01*
X278122Y622617D01*
X278112Y622775D01*
X278098Y622932D01*
X278081Y623090D01*
X278059Y623246D01*
X278034Y623403D01*
X278004Y623558D01*
X277971Y623713D01*
X277934Y623867D01*
X277893Y624020D01*
X277848Y624172D01*
X277799Y624322D01*
X277747Y624472D01*
X277691Y624620D01*
X277631Y624767D01*
X277568Y624912D01*
X277501Y625055D01*
X277431Y625197D01*
X277357Y625337D01*
X277279Y625475D01*
X277198Y625611D01*
X277114Y625745D01*
X277027Y625877D01*
X276936Y626007D01*
X276842Y626134D01*
X276745Y626259D01*
X276644Y626382D01*
X276541Y626502D01*
X276435Y626619D01*
X276326Y626734D01*
X276214Y626846D01*
X276099Y626955D01*
X275982Y627061D01*
X275862Y627164D01*
X275739Y627265D01*
X275614Y627362D01*
X275487Y627456D01*
X275357Y627547D01*
X275225Y627634D01*
X275091Y627718D01*
X274955Y627799D01*
X274817Y627877D01*
X274677Y627951D01*
X274535Y628021D01*
X274392Y628088D01*
X274247Y628151D01*
X274100Y628211D01*
X273952Y628267D01*
X273802Y628319D01*
X273652Y628368D01*
X273500Y628413D01*
X273347Y628454D01*
X273193Y628491D01*
X273038Y628524D01*
X272883Y628554D01*
X272726Y628579D01*
X272570Y628601D01*
X272412Y628618D01*
X272255Y628632D01*
X272097Y628642D01*
X271938Y628648D01*
X271780Y628650D01*
X271780Y594360D02*
X642620Y594360D01*
X271780Y628650D02*
X271780Y650240D01*
X642620Y650240D01*
X642620Y594360D01*
D13*
X264287Y599567D02*
X248285Y599567D01*
X264287Y597789D02*
X264287Y601345D01*
X248285Y601345D02*
X248285Y597789D01*
X264287Y611139D02*
X264287Y614695D01*
X264287Y611139D02*
X264285Y611023D01*
X264279Y610906D01*
X264270Y610790D01*
X264257Y610675D01*
X264240Y610560D01*
X264219Y610445D01*
X264194Y610332D01*
X264166Y610219D01*
X264134Y610107D01*
X264098Y609996D01*
X264059Y609886D01*
X264016Y609778D01*
X263970Y609671D01*
X263920Y609566D01*
X263867Y609463D01*
X263811Y609361D01*
X263751Y609261D01*
X263688Y609163D01*
X263621Y609068D01*
X263552Y608974D01*
X263480Y608883D01*
X263405Y608794D01*
X263326Y608708D01*
X263245Y608625D01*
X263162Y608544D01*
X263076Y608465D01*
X262987Y608390D01*
X262896Y608318D01*
X262802Y608249D01*
X262707Y608182D01*
X262609Y608119D01*
X262509Y608059D01*
X262407Y608003D01*
X262304Y607950D01*
X262199Y607900D01*
X262092Y607854D01*
X261984Y607811D01*
X261874Y607772D01*
X261763Y607736D01*
X261651Y607704D01*
X261538Y607676D01*
X261425Y607651D01*
X261310Y607630D01*
X261195Y607613D01*
X261080Y607600D01*
X260964Y607591D01*
X260847Y607585D01*
X260731Y607583D01*
X251841Y607583D01*
X251725Y607585D01*
X251608Y607591D01*
X251492Y607600D01*
X251377Y607613D01*
X251262Y607630D01*
X251147Y607651D01*
X251034Y607676D01*
X250921Y607704D01*
X250809Y607736D01*
X250698Y607772D01*
X250588Y607811D01*
X250480Y607854D01*
X250373Y607900D01*
X250268Y607950D01*
X250165Y608003D01*
X250063Y608059D01*
X249963Y608119D01*
X249865Y608182D01*
X249770Y608249D01*
X249676Y608318D01*
X249585Y608390D01*
X249496Y608465D01*
X249410Y608544D01*
X249327Y608625D01*
X249246Y608708D01*
X249167Y608794D01*
X249092Y608883D01*
X249020Y608974D01*
X248951Y609068D01*
X248884Y609163D01*
X248821Y609261D01*
X248761Y609361D01*
X248705Y609463D01*
X248652Y609566D01*
X248602Y609671D01*
X248556Y609778D01*
X248513Y609886D01*
X248474Y609996D01*
X248438Y610107D01*
X248406Y610219D01*
X248378Y610332D01*
X248353Y610445D01*
X248332Y610560D01*
X248315Y610675D01*
X248302Y610790D01*
X248293Y610906D01*
X248287Y611023D01*
X248285Y611139D01*
X248285Y614695D01*
X251841Y620653D02*
X248285Y625098D01*
X264287Y625098D01*
X264287Y620653D02*
X264287Y629543D01*
D14*
X196900Y802300D02*
X996900Y802300D01*
X996900Y442300D01*
X196900Y442300D01*
X196900Y802300D01*
X240400Y753800D02*
X953400Y753800D01*
X953400Y490800D01*
X240400Y490800D01*
X240400Y753800D01*
D11*
X280035Y813435D02*
X280035Y818261D01*
X280035Y813435D02*
X282180Y813435D01*
X285631Y813435D02*
X286704Y813435D01*
X285631Y813435D02*
X285566Y813437D01*
X285502Y813443D01*
X285438Y813453D01*
X285374Y813466D01*
X285312Y813484D01*
X285251Y813505D01*
X285191Y813529D01*
X285133Y813558D01*
X285076Y813590D01*
X285022Y813625D01*
X284970Y813663D01*
X284920Y813705D01*
X284873Y813749D01*
X284829Y813796D01*
X284787Y813846D01*
X284749Y813898D01*
X284714Y813952D01*
X284682Y814009D01*
X284653Y814067D01*
X284629Y814127D01*
X284608Y814188D01*
X284590Y814250D01*
X284577Y814314D01*
X284567Y814378D01*
X284561Y814442D01*
X284559Y814507D01*
X284559Y817189D01*
X284561Y817254D01*
X284567Y817318D01*
X284577Y817382D01*
X284590Y817446D01*
X284608Y817508D01*
X284629Y817569D01*
X284653Y817629D01*
X284682Y817687D01*
X284714Y817744D01*
X284749Y817798D01*
X284787Y817850D01*
X284829Y817900D01*
X284873Y817947D01*
X284920Y817991D01*
X284970Y818033D01*
X285022Y818071D01*
X285076Y818106D01*
X285133Y818138D01*
X285191Y818167D01*
X285251Y818191D01*
X285312Y818212D01*
X285374Y818230D01*
X285438Y818243D01*
X285502Y818253D01*
X285566Y818259D01*
X285631Y818261D01*
X286704Y818261D01*
X289342Y818261D02*
X289342Y813435D01*
X289342Y818261D02*
X290683Y818261D01*
X290753Y818259D01*
X290823Y818254D01*
X290893Y818244D01*
X290962Y818232D01*
X291030Y818215D01*
X291097Y818195D01*
X291164Y818172D01*
X291228Y818145D01*
X291292Y818115D01*
X291354Y818081D01*
X291413Y818045D01*
X291471Y818005D01*
X291527Y817962D01*
X291580Y817917D01*
X291631Y817868D01*
X291680Y817817D01*
X291725Y817764D01*
X291768Y817708D01*
X291808Y817650D01*
X291844Y817591D01*
X291878Y817529D01*
X291908Y817465D01*
X291935Y817401D01*
X291958Y817334D01*
X291978Y817267D01*
X291995Y817199D01*
X292007Y817130D01*
X292017Y817060D01*
X292022Y816990D01*
X292024Y816920D01*
X292023Y816920D02*
X292023Y814776D01*
X292024Y814776D02*
X292022Y814706D01*
X292017Y814636D01*
X292007Y814566D01*
X291995Y814497D01*
X291978Y814429D01*
X291958Y814362D01*
X291935Y814295D01*
X291908Y814231D01*
X291878Y814167D01*
X291844Y814105D01*
X291808Y814046D01*
X291768Y813988D01*
X291725Y813932D01*
X291680Y813879D01*
X291631Y813828D01*
X291580Y813779D01*
X291527Y813734D01*
X291471Y813691D01*
X291413Y813651D01*
X291353Y813615D01*
X291292Y813581D01*
X291228Y813551D01*
X291164Y813524D01*
X291097Y813501D01*
X291030Y813481D01*
X290962Y813464D01*
X290893Y813452D01*
X290823Y813442D01*
X290753Y813437D01*
X290683Y813435D01*
X289342Y813435D01*
X295012Y817189D02*
X296352Y818261D01*
X296352Y813435D01*
X295012Y813435D02*
X297693Y813435D01*
D10*
X737900Y774300D02*
X738024Y774433D01*
X738152Y774563D01*
X738282Y774690D01*
X738416Y774814D01*
X738552Y774935D01*
X738692Y775052D01*
X738834Y775165D01*
X738979Y775275D01*
X739127Y775382D01*
X739277Y775485D01*
X739430Y775584D01*
X739585Y775679D01*
X739742Y775771D01*
X739902Y775858D01*
X740064Y775942D01*
X740227Y776022D01*
X740393Y776098D01*
X740560Y776169D01*
X740730Y776237D01*
X740900Y776300D01*
X741072Y776359D01*
X741246Y776414D01*
X741421Y776465D01*
X741597Y776511D01*
X741774Y776553D01*
X741952Y776591D01*
X742132Y776624D01*
X742311Y776653D01*
X742492Y776677D01*
X742673Y776697D01*
X742854Y776713D01*
X743036Y776724D01*
X743218Y776731D01*
X743400Y776733D01*
X743582Y776731D01*
X743764Y776724D01*
X743946Y776713D01*
X744127Y776697D01*
X744308Y776677D01*
X744489Y776653D01*
X744668Y776624D01*
X744848Y776591D01*
X745026Y776553D01*
X745203Y776511D01*
X745379Y776465D01*
X745554Y776414D01*
X745728Y776359D01*
X745900Y776300D01*
X746070Y776237D01*
X746240Y776169D01*
X746407Y776098D01*
X746573Y776022D01*
X746736Y775942D01*
X746898Y775858D01*
X747058Y775771D01*
X747215Y775679D01*
X747370Y775584D01*
X747523Y775485D01*
X747673Y775382D01*
X747821Y775275D01*
X747966Y775165D01*
X748108Y775052D01*
X748248Y774935D01*
X748384Y774814D01*
X748518Y774690D01*
X748648Y774563D01*
X748776Y774433D01*
X748900Y774300D01*
X748900Y764300D02*
X748776Y764167D01*
X748648Y764037D01*
X748518Y763910D01*
X748384Y763786D01*
X748248Y763665D01*
X748108Y763548D01*
X747966Y763435D01*
X747821Y763325D01*
X747673Y763218D01*
X747523Y763115D01*
X747370Y763016D01*
X747215Y762921D01*
X747058Y762829D01*
X746898Y762742D01*
X746736Y762658D01*
X746573Y762578D01*
X746407Y762502D01*
X746240Y762431D01*
X746070Y762363D01*
X745900Y762300D01*
X745728Y762241D01*
X745554Y762186D01*
X745379Y762135D01*
X745203Y762089D01*
X745026Y762047D01*
X744848Y762009D01*
X744668Y761976D01*
X744489Y761947D01*
X744308Y761923D01*
X744127Y761903D01*
X743946Y761887D01*
X743764Y761876D01*
X743582Y761869D01*
X743400Y761867D01*
X743218Y761869D01*
X743036Y761876D01*
X742854Y761887D01*
X742673Y761903D01*
X742492Y761923D01*
X742311Y761947D01*
X742132Y761976D01*
X741952Y762009D01*
X741774Y762047D01*
X741597Y762089D01*
X741421Y762135D01*
X741246Y762186D01*
X741072Y762241D01*
X740900Y762300D01*
X740730Y762363D01*
X740560Y762431D01*
X740393Y762502D01*
X740227Y762578D01*
X740064Y762658D01*
X739902Y762742D01*
X739742Y762829D01*
X739585Y762921D01*
X739430Y763016D01*
X739277Y763115D01*
X739127Y763218D01*
X738979Y763325D01*
X738834Y763435D01*
X738692Y763548D01*
X738552Y763665D01*
X738416Y763786D01*
X738282Y763910D01*
X738152Y764037D01*
X738024Y764167D01*
X737900Y764300D01*
D15*
X743400Y769300D03*
D16*
X738150Y775050D03*
D10*
X717501Y756092D02*
X717501Y744408D01*
X722693Y744408D01*
X727407Y744408D02*
X732599Y744408D01*
X727407Y744408D02*
X727407Y756092D01*
X732599Y756092D01*
X731301Y750899D02*
X727407Y750899D01*
X737290Y756092D02*
X737290Y744408D01*
X737290Y756092D02*
X740535Y756092D01*
X740648Y756090D01*
X740761Y756084D01*
X740874Y756074D01*
X740987Y756060D01*
X741099Y756043D01*
X741210Y756021D01*
X741320Y755996D01*
X741430Y755966D01*
X741538Y755933D01*
X741645Y755896D01*
X741751Y755856D01*
X741855Y755811D01*
X741958Y755763D01*
X742059Y755712D01*
X742158Y755657D01*
X742255Y755599D01*
X742350Y755537D01*
X742443Y755472D01*
X742533Y755404D01*
X742621Y755333D01*
X742707Y755258D01*
X742790Y755181D01*
X742870Y755101D01*
X742947Y755018D01*
X743022Y754932D01*
X743093Y754844D01*
X743161Y754754D01*
X743226Y754661D01*
X743288Y754566D01*
X743346Y754469D01*
X743401Y754370D01*
X743452Y754269D01*
X743500Y754166D01*
X743545Y754062D01*
X743585Y753956D01*
X743622Y753849D01*
X743655Y753741D01*
X743685Y753631D01*
X743710Y753521D01*
X743732Y753410D01*
X743749Y753298D01*
X743763Y753185D01*
X743773Y753072D01*
X743779Y752959D01*
X743781Y752846D01*
X743781Y747654D01*
X743782Y747654D02*
X743780Y747541D01*
X743774Y747428D01*
X743764Y747315D01*
X743750Y747202D01*
X743733Y747090D01*
X743711Y746979D01*
X743686Y746869D01*
X743656Y746759D01*
X743623Y746651D01*
X743586Y746544D01*
X743546Y746438D01*
X743501Y746334D01*
X743453Y746231D01*
X743402Y746130D01*
X743347Y746031D01*
X743289Y745934D01*
X743227Y745839D01*
X743162Y745746D01*
X743094Y745656D01*
X743023Y745568D01*
X742948Y745482D01*
X742871Y745399D01*
X742791Y745319D01*
X742708Y745242D01*
X742622Y745167D01*
X742534Y745096D01*
X742444Y745028D01*
X742351Y744963D01*
X742256Y744901D01*
X742159Y744843D01*
X742060Y744788D01*
X741959Y744737D01*
X741856Y744689D01*
X741752Y744644D01*
X741646Y744604D01*
X741539Y744567D01*
X741431Y744534D01*
X741321Y744504D01*
X741211Y744479D01*
X741100Y744457D01*
X740988Y744440D01*
X740875Y744426D01*
X740762Y744416D01*
X740649Y744410D01*
X740536Y744408D01*
X740535Y744408D02*
X737290Y744408D01*
X749101Y753496D02*
X752346Y756092D01*
X752346Y744408D01*
X749101Y744408D02*
X755592Y744408D01*
D17*
X538480Y491490D02*
X477520Y491490D01*
X477520Y448310D02*
X538480Y448310D01*
D12*
X538480Y486410D02*
X477520Y486410D01*
X477520Y453390D02*
X538480Y453390D01*
X510540Y462280D02*
X505460Y462280D01*
X505460Y477520D01*
X510540Y477520D01*
X510540Y462280D01*
X501650Y462280D02*
X501650Y469900D01*
X501650Y477520D01*
X514350Y469900D02*
X514350Y462280D01*
X514350Y469900D02*
X514350Y477520D01*
X501650Y469900D02*
X495300Y469900D01*
X514350Y469900D02*
X520700Y469900D01*
D17*
X538480Y448310D02*
X539006Y448316D01*
X539531Y448336D01*
X540056Y448368D01*
X540580Y448412D01*
X541102Y448470D01*
X541624Y448540D01*
X542143Y448623D01*
X542660Y448718D01*
X543174Y448827D01*
X543686Y448947D01*
X544195Y449080D01*
X544700Y449225D01*
X545202Y449383D01*
X545699Y449553D01*
X546193Y449735D01*
X546681Y449928D01*
X547165Y450134D01*
X547644Y450351D01*
X548117Y450580D01*
X548585Y450821D01*
X549047Y451072D01*
X549502Y451335D01*
X549951Y451609D01*
X550393Y451894D01*
X550828Y452189D01*
X551255Y452495D01*
X551675Y452812D01*
X552087Y453138D01*
X552492Y453474D01*
X552887Y453820D01*
X553275Y454176D01*
X553653Y454541D01*
X554023Y454915D01*
X554383Y455298D01*
X554734Y455689D01*
X555075Y456089D01*
X555406Y456498D01*
X555728Y456914D01*
X556039Y457338D01*
X556340Y457769D01*
X556630Y458207D01*
X556909Y458653D01*
X557177Y459105D01*
X557435Y459564D01*
X557681Y460028D01*
X557916Y460499D01*
X558139Y460975D01*
X558350Y461456D01*
X558550Y461942D01*
X558738Y462433D01*
X558914Y462929D01*
X559077Y463429D01*
X559229Y463932D01*
X559368Y464439D01*
X559495Y464949D01*
X559609Y465463D01*
X559711Y465978D01*
X559800Y466497D01*
X559877Y467017D01*
X559940Y467539D01*
X559992Y468062D01*
X560030Y468586D01*
X560056Y469111D01*
X560068Y469637D01*
X560068Y470163D01*
X560056Y470689D01*
X560030Y471214D01*
X559992Y471738D01*
X559940Y472261D01*
X559877Y472783D01*
X559800Y473303D01*
X559711Y473822D01*
X559609Y474337D01*
X559495Y474851D01*
X559368Y475361D01*
X559229Y475868D01*
X559077Y476371D01*
X558914Y476871D01*
X558738Y477367D01*
X558550Y477858D01*
X558350Y478344D01*
X558139Y478825D01*
X557916Y479301D01*
X557681Y479772D01*
X557435Y480236D01*
X557177Y480695D01*
X556909Y481147D01*
X556630Y481593D01*
X556340Y482031D01*
X556039Y482462D01*
X555728Y482886D01*
X555406Y483302D01*
X555075Y483711D01*
X554734Y484111D01*
X554383Y484502D01*
X554023Y484885D01*
X553653Y485259D01*
X553275Y485624D01*
X552887Y485980D01*
X552492Y486326D01*
X552087Y486662D01*
X551675Y486988D01*
X551255Y487305D01*
X550828Y487611D01*
X550393Y487906D01*
X549951Y488191D01*
X549502Y488465D01*
X549047Y488728D01*
X548585Y488979D01*
X548117Y489220D01*
X547644Y489449D01*
X547165Y489666D01*
X546681Y489872D01*
X546193Y490065D01*
X545699Y490247D01*
X545202Y490417D01*
X544700Y490575D01*
X544195Y490720D01*
X543686Y490853D01*
X543174Y490973D01*
X542660Y491082D01*
X542143Y491177D01*
X541624Y491260D01*
X541102Y491330D01*
X540580Y491388D01*
X540056Y491432D01*
X539531Y491464D01*
X539006Y491484D01*
X538480Y491490D01*
X477520Y491490D02*
X476994Y491484D01*
X476469Y491464D01*
X475944Y491432D01*
X475420Y491388D01*
X474898Y491330D01*
X474376Y491260D01*
X473857Y491177D01*
X473340Y491082D01*
X472826Y490973D01*
X472314Y490853D01*
X471805Y490720D01*
X471300Y490575D01*
X470798Y490417D01*
X470301Y490247D01*
X469807Y490065D01*
X469319Y489872D01*
X468835Y489666D01*
X468356Y489449D01*
X467883Y489220D01*
X467415Y488979D01*
X466953Y488728D01*
X466498Y488465D01*
X466049Y488191D01*
X465607Y487906D01*
X465172Y487611D01*
X464745Y487305D01*
X464325Y486988D01*
X463913Y486662D01*
X463508Y486326D01*
X463113Y485980D01*
X462725Y485624D01*
X462347Y485259D01*
X461977Y484885D01*
X461617Y484502D01*
X461266Y484111D01*
X460925Y483711D01*
X460594Y483302D01*
X460272Y482886D01*
X459961Y482462D01*
X459660Y482031D01*
X459370Y481593D01*
X459091Y481147D01*
X458823Y480695D01*
X458565Y480236D01*
X458319Y479772D01*
X458084Y479301D01*
X457861Y478825D01*
X457650Y478344D01*
X457450Y477858D01*
X457262Y477367D01*
X457086Y476871D01*
X456923Y476371D01*
X456771Y475868D01*
X456632Y475361D01*
X456505Y474851D01*
X456391Y474337D01*
X456289Y473822D01*
X456200Y473303D01*
X456123Y472783D01*
X456060Y472261D01*
X456008Y471738D01*
X455970Y471214D01*
X455944Y470689D01*
X455932Y470163D01*
X455932Y469637D01*
X455944Y469111D01*
X455970Y468586D01*
X456008Y468062D01*
X456060Y467539D01*
X456123Y467017D01*
X456200Y466497D01*
X456289Y465978D01*
X456391Y465463D01*
X456505Y464949D01*
X456632Y464439D01*
X456771Y463932D01*
X456923Y463429D01*
X457086Y462929D01*
X457262Y462433D01*
X457450Y461942D01*
X457650Y461456D01*
X457861Y460975D01*
X458084Y460499D01*
X458319Y460028D01*
X458565Y459564D01*
X458823Y459105D01*
X459091Y458653D01*
X459370Y458207D01*
X459660Y457769D01*
X459961Y457338D01*
X460272Y456914D01*
X460594Y456498D01*
X460925Y456089D01*
X461266Y455689D01*
X461617Y455298D01*
X461977Y454915D01*
X462347Y454541D01*
X462725Y454176D01*
X463113Y453820D01*
X463508Y453474D01*
X463913Y453138D01*
X464325Y452812D01*
X464745Y452495D01*
X465172Y452189D01*
X465607Y451894D01*
X466049Y451609D01*
X466498Y451335D01*
X466953Y451072D01*
X467415Y450821D01*
X467883Y450580D01*
X468356Y450351D01*
X468835Y450134D01*
X469319Y449928D01*
X469807Y449735D01*
X470301Y449553D01*
X470798Y449383D01*
X471300Y449225D01*
X471805Y449080D01*
X472314Y448947D01*
X472826Y448827D01*
X473340Y448718D01*
X473857Y448623D01*
X474376Y448540D01*
X474898Y448470D01*
X475420Y448412D01*
X475944Y448368D01*
X476469Y448336D01*
X476994Y448316D01*
X477520Y448310D01*
D12*
X538480Y453390D02*
X538882Y453395D01*
X539284Y453410D01*
X539685Y453434D01*
X540086Y453468D01*
X540485Y453512D01*
X540884Y453566D01*
X541281Y453629D01*
X541676Y453702D01*
X542070Y453785D01*
X542461Y453877D01*
X542850Y453979D01*
X543237Y454090D01*
X543620Y454211D01*
X544001Y454340D01*
X544378Y454479D01*
X544752Y454628D01*
X545122Y454785D01*
X545488Y454951D01*
X545850Y455126D01*
X546207Y455310D01*
X546560Y455502D01*
X546908Y455703D01*
X547252Y455913D01*
X547590Y456131D01*
X547922Y456357D01*
X548249Y456591D01*
X548570Y456832D01*
X548886Y457082D01*
X549195Y457339D01*
X549497Y457604D01*
X549794Y457876D01*
X550083Y458155D01*
X550366Y458441D01*
X550641Y458734D01*
X550909Y459033D01*
X551170Y459339D01*
X551424Y459651D01*
X551670Y459969D01*
X551907Y460294D01*
X552137Y460623D01*
X552359Y460959D01*
X552573Y461299D01*
X552778Y461645D01*
X552975Y461996D01*
X553163Y462351D01*
X553343Y462711D01*
X553513Y463075D01*
X553675Y463443D01*
X553828Y463815D01*
X553971Y464190D01*
X554106Y464569D01*
X554231Y464951D01*
X554347Y465336D01*
X554453Y465724D01*
X554550Y466114D01*
X554638Y466507D01*
X554715Y466901D01*
X554784Y467297D01*
X554842Y467695D01*
X554891Y468094D01*
X554930Y468494D01*
X554959Y468895D01*
X554979Y469297D01*
X554989Y469699D01*
X554989Y470101D01*
X554979Y470503D01*
X554959Y470905D01*
X554930Y471306D01*
X554891Y471706D01*
X554842Y472105D01*
X554784Y472503D01*
X554715Y472899D01*
X554638Y473293D01*
X554550Y473686D01*
X554453Y474076D01*
X554347Y474464D01*
X554231Y474849D01*
X554106Y475231D01*
X553971Y475610D01*
X553828Y475985D01*
X553675Y476357D01*
X553513Y476725D01*
X553343Y477089D01*
X553163Y477449D01*
X552975Y477804D01*
X552778Y478155D01*
X552573Y478501D01*
X552359Y478841D01*
X552137Y479177D01*
X551907Y479506D01*
X551670Y479831D01*
X551424Y480149D01*
X551170Y480461D01*
X550909Y480767D01*
X550641Y481066D01*
X550366Y481359D01*
X550083Y481645D01*
X549794Y481924D01*
X549497Y482196D01*
X549195Y482461D01*
X548886Y482718D01*
X548570Y482968D01*
X548249Y483209D01*
X547922Y483443D01*
X547590Y483669D01*
X547252Y483887D01*
X546908Y484097D01*
X546560Y484298D01*
X546207Y484490D01*
X545850Y484674D01*
X545488Y484849D01*
X545122Y485015D01*
X544752Y485172D01*
X544378Y485321D01*
X544001Y485460D01*
X543620Y485589D01*
X543237Y485710D01*
X542850Y485821D01*
X542461Y485923D01*
X542070Y486015D01*
X541676Y486098D01*
X541281Y486171D01*
X540884Y486234D01*
X540485Y486288D01*
X540086Y486332D01*
X539685Y486366D01*
X539284Y486390D01*
X538882Y486405D01*
X538480Y486410D01*
X477520Y486410D02*
X477118Y486405D01*
X476716Y486390D01*
X476315Y486366D01*
X475914Y486332D01*
X475515Y486288D01*
X475116Y486234D01*
X474719Y486171D01*
X474324Y486098D01*
X473930Y486015D01*
X473539Y485923D01*
X473150Y485821D01*
X472763Y485710D01*
X472380Y485589D01*
X471999Y485460D01*
X471622Y485321D01*
X471248Y485172D01*
X470878Y485015D01*
X470512Y484849D01*
X470150Y484674D01*
X469793Y484490D01*
X469440Y484298D01*
X469092Y484097D01*
X468748Y483887D01*
X468410Y483669D01*
X468078Y483443D01*
X467751Y483209D01*
X467430Y482968D01*
X467114Y482718D01*
X466805Y482461D01*
X466503Y482196D01*
X466206Y481924D01*
X465917Y481645D01*
X465634Y481359D01*
X465359Y481066D01*
X465091Y480767D01*
X464830Y480461D01*
X464576Y480149D01*
X464330Y479831D01*
X464093Y479506D01*
X463863Y479177D01*
X463641Y478841D01*
X463427Y478501D01*
X463222Y478155D01*
X463025Y477804D01*
X462837Y477449D01*
X462657Y477089D01*
X462487Y476725D01*
X462325Y476357D01*
X462172Y475985D01*
X462029Y475610D01*
X461894Y475231D01*
X461769Y474849D01*
X461653Y474464D01*
X461547Y474076D01*
X461450Y473686D01*
X461362Y473293D01*
X461285Y472899D01*
X461216Y472503D01*
X461158Y472105D01*
X461109Y471706D01*
X461070Y471306D01*
X461041Y470905D01*
X461021Y470503D01*
X461011Y470101D01*
X461011Y469699D01*
X461021Y469297D01*
X461041Y468895D01*
X461070Y468494D01*
X461109Y468094D01*
X461158Y467695D01*
X461216Y467297D01*
X461285Y466901D01*
X461362Y466507D01*
X461450Y466114D01*
X461547Y465724D01*
X461653Y465336D01*
X461769Y464951D01*
X461894Y464569D01*
X462029Y464190D01*
X462172Y463815D01*
X462325Y463443D01*
X462487Y463075D01*
X462657Y462711D01*
X462837Y462351D01*
X463025Y461996D01*
X463222Y461645D01*
X463427Y461299D01*
X463641Y460959D01*
X463863Y460623D01*
X464093Y460294D01*
X464330Y459969D01*
X464576Y459651D01*
X464830Y459339D01*
X465091Y459033D01*
X465359Y458734D01*
X465634Y458441D01*
X465917Y458155D01*
X466206Y457876D01*
X466503Y457604D01*
X466805Y457339D01*
X467114Y457082D01*
X467430Y456832D01*
X467751Y456591D01*
X468078Y456357D01*
X468410Y456131D01*
X468748Y455913D01*
X469092Y455703D01*
X469440Y455502D01*
X469793Y455310D01*
X470150Y455126D01*
X470512Y454951D01*
X470878Y454785D01*
X471248Y454628D01*
X471622Y454479D01*
X471999Y454340D01*
X472380Y454211D01*
X472763Y454090D01*
X473150Y453979D01*
X473539Y453877D01*
X473930Y453785D01*
X474324Y453702D01*
X474719Y453629D01*
X475116Y453566D01*
X475515Y453512D01*
X475914Y453468D01*
X476315Y453434D01*
X476716Y453410D01*
X477118Y453395D01*
X477520Y453390D01*
D11*
X540754Y439420D02*
X540754Y434340D01*
X540754Y439420D02*
X540756Y439531D01*
X540762Y439641D01*
X540771Y439752D01*
X540785Y439862D01*
X540802Y439971D01*
X540823Y440080D01*
X540848Y440188D01*
X540877Y440295D01*
X540909Y440401D01*
X540945Y440506D01*
X540985Y440609D01*
X541028Y440711D01*
X541075Y440812D01*
X541126Y440911D01*
X541179Y441008D01*
X541236Y441102D01*
X541297Y441195D01*
X541360Y441286D01*
X541427Y441375D01*
X541497Y441461D01*
X541570Y441544D01*
X541645Y441626D01*
X541723Y441704D01*
X541805Y441779D01*
X541888Y441852D01*
X541974Y441922D01*
X542063Y441989D01*
X542154Y442052D01*
X542247Y442113D01*
X542342Y442170D01*
X542438Y442223D01*
X542537Y442274D01*
X542638Y442321D01*
X542740Y442364D01*
X542843Y442404D01*
X542948Y442440D01*
X543054Y442472D01*
X543161Y442501D01*
X543269Y442526D01*
X543378Y442547D01*
X543487Y442564D01*
X543597Y442578D01*
X543708Y442587D01*
X543818Y442593D01*
X543929Y442595D01*
X544040Y442593D01*
X544150Y442587D01*
X544261Y442578D01*
X544371Y442564D01*
X544480Y442547D01*
X544589Y442526D01*
X544697Y442501D01*
X544804Y442472D01*
X544910Y442440D01*
X545015Y442404D01*
X545118Y442364D01*
X545220Y442321D01*
X545321Y442274D01*
X545420Y442223D01*
X545517Y442170D01*
X545611Y442113D01*
X545704Y442052D01*
X545795Y441989D01*
X545884Y441922D01*
X545970Y441852D01*
X546053Y441779D01*
X546135Y441704D01*
X546213Y441626D01*
X546288Y441544D01*
X546361Y441461D01*
X546431Y441375D01*
X546498Y441286D01*
X546561Y441195D01*
X546622Y441102D01*
X546679Y441008D01*
X546732Y440911D01*
X546783Y440812D01*
X546830Y440711D01*
X546873Y440609D01*
X546913Y440506D01*
X546949Y440401D01*
X546981Y440295D01*
X547010Y440188D01*
X547035Y440080D01*
X547056Y439971D01*
X547073Y439862D01*
X547087Y439752D01*
X547096Y439641D01*
X547102Y439531D01*
X547104Y439420D01*
X547104Y434340D01*
X547102Y434229D01*
X547096Y434119D01*
X547087Y434008D01*
X547073Y433898D01*
X547056Y433789D01*
X547035Y433680D01*
X547010Y433572D01*
X546981Y433465D01*
X546949Y433359D01*
X546913Y433254D01*
X546873Y433151D01*
X546830Y433049D01*
X546783Y432948D01*
X546732Y432849D01*
X546679Y432752D01*
X546622Y432658D01*
X546561Y432565D01*
X546498Y432474D01*
X546431Y432385D01*
X546361Y432299D01*
X546288Y432216D01*
X546213Y432134D01*
X546135Y432056D01*
X546053Y431981D01*
X545970Y431908D01*
X545884Y431838D01*
X545795Y431771D01*
X545704Y431708D01*
X545611Y431647D01*
X545517Y431590D01*
X545420Y431537D01*
X545321Y431486D01*
X545220Y431439D01*
X545118Y431396D01*
X545015Y431356D01*
X544910Y431320D01*
X544804Y431288D01*
X544697Y431259D01*
X544589Y431234D01*
X544480Y431213D01*
X544371Y431196D01*
X544261Y431182D01*
X544150Y431173D01*
X544040Y431167D01*
X543929Y431165D01*
X543818Y431167D01*
X543708Y431173D01*
X543597Y431182D01*
X543487Y431196D01*
X543378Y431213D01*
X543269Y431234D01*
X543161Y431259D01*
X543054Y431288D01*
X542948Y431320D01*
X542843Y431356D01*
X542740Y431396D01*
X542638Y431439D01*
X542537Y431486D01*
X542438Y431537D01*
X542342Y431590D01*
X542247Y431647D01*
X542154Y431708D01*
X542063Y431771D01*
X541974Y431838D01*
X541888Y431908D01*
X541805Y431981D01*
X541723Y432056D01*
X541645Y432134D01*
X541570Y432216D01*
X541497Y432299D01*
X541427Y432385D01*
X541360Y432474D01*
X541297Y432565D01*
X541236Y432658D01*
X541179Y432753D01*
X541126Y432849D01*
X541075Y432948D01*
X541028Y433049D01*
X540985Y433151D01*
X540945Y433254D01*
X540909Y433359D01*
X540877Y433465D01*
X540848Y433572D01*
X540823Y433680D01*
X540802Y433789D01*
X540785Y433898D01*
X540771Y434008D01*
X540762Y434119D01*
X540756Y434229D01*
X540754Y434340D01*
X545834Y433705D02*
X548374Y431165D01*
X551815Y440055D02*
X554990Y442595D01*
X554990Y431165D01*
X551815Y431165D02*
X558165Y431165D01*
D18*
X832814Y736615D03*
X818082Y736615D03*
D10*
X818388Y747268D02*
X818388Y758952D01*
X821634Y758952D01*
X821747Y758950D01*
X821860Y758944D01*
X821973Y758934D01*
X822086Y758920D01*
X822198Y758903D01*
X822309Y758881D01*
X822419Y758856D01*
X822529Y758826D01*
X822637Y758793D01*
X822744Y758756D01*
X822850Y758716D01*
X822954Y758671D01*
X823057Y758623D01*
X823158Y758572D01*
X823257Y758517D01*
X823354Y758459D01*
X823449Y758397D01*
X823542Y758332D01*
X823632Y758264D01*
X823720Y758193D01*
X823806Y758118D01*
X823889Y758041D01*
X823969Y757961D01*
X824046Y757878D01*
X824121Y757792D01*
X824192Y757704D01*
X824260Y757614D01*
X824325Y757521D01*
X824387Y757426D01*
X824445Y757329D01*
X824500Y757230D01*
X824551Y757129D01*
X824599Y757026D01*
X824644Y756922D01*
X824684Y756816D01*
X824721Y756709D01*
X824754Y756601D01*
X824784Y756491D01*
X824809Y756381D01*
X824831Y756270D01*
X824848Y756158D01*
X824862Y756045D01*
X824872Y755932D01*
X824878Y755819D01*
X824880Y755706D01*
X824878Y755593D01*
X824872Y755480D01*
X824862Y755367D01*
X824848Y755254D01*
X824831Y755142D01*
X824809Y755031D01*
X824784Y754921D01*
X824754Y754811D01*
X824721Y754703D01*
X824684Y754596D01*
X824644Y754490D01*
X824599Y754386D01*
X824551Y754283D01*
X824500Y754182D01*
X824445Y754083D01*
X824387Y753986D01*
X824325Y753891D01*
X824260Y753798D01*
X824192Y753708D01*
X824121Y753620D01*
X824046Y753534D01*
X823969Y753451D01*
X823889Y753371D01*
X823806Y753294D01*
X823720Y753219D01*
X823632Y753148D01*
X823542Y753080D01*
X823449Y753015D01*
X823354Y752953D01*
X823257Y752895D01*
X823158Y752840D01*
X823057Y752789D01*
X822954Y752741D01*
X822850Y752696D01*
X822744Y752656D01*
X822637Y752619D01*
X822529Y752586D01*
X822419Y752556D01*
X822309Y752531D01*
X822198Y752509D01*
X822086Y752492D01*
X821973Y752478D01*
X821860Y752468D01*
X821747Y752462D01*
X821634Y752460D01*
X821634Y752461D02*
X818388Y752461D01*
X822283Y752461D02*
X824879Y747268D01*
D18*
X833814Y769315D03*
X819082Y769315D03*
D10*
X819388Y779968D02*
X819388Y791652D01*
X822634Y791652D01*
X822747Y791650D01*
X822860Y791644D01*
X822973Y791634D01*
X823086Y791620D01*
X823198Y791603D01*
X823309Y791581D01*
X823419Y791556D01*
X823529Y791526D01*
X823637Y791493D01*
X823744Y791456D01*
X823850Y791416D01*
X823954Y791371D01*
X824057Y791323D01*
X824158Y791272D01*
X824257Y791217D01*
X824354Y791159D01*
X824449Y791097D01*
X824542Y791032D01*
X824632Y790964D01*
X824720Y790893D01*
X824806Y790818D01*
X824889Y790741D01*
X824969Y790661D01*
X825046Y790578D01*
X825121Y790492D01*
X825192Y790404D01*
X825260Y790314D01*
X825325Y790221D01*
X825387Y790126D01*
X825445Y790029D01*
X825500Y789930D01*
X825551Y789829D01*
X825599Y789726D01*
X825644Y789622D01*
X825684Y789516D01*
X825721Y789409D01*
X825754Y789301D01*
X825784Y789191D01*
X825809Y789081D01*
X825831Y788970D01*
X825848Y788858D01*
X825862Y788745D01*
X825872Y788632D01*
X825878Y788519D01*
X825880Y788406D01*
X825878Y788293D01*
X825872Y788180D01*
X825862Y788067D01*
X825848Y787954D01*
X825831Y787842D01*
X825809Y787731D01*
X825784Y787621D01*
X825754Y787511D01*
X825721Y787403D01*
X825684Y787296D01*
X825644Y787190D01*
X825599Y787086D01*
X825551Y786983D01*
X825500Y786882D01*
X825445Y786783D01*
X825387Y786686D01*
X825325Y786591D01*
X825260Y786498D01*
X825192Y786408D01*
X825121Y786320D01*
X825046Y786234D01*
X824969Y786151D01*
X824889Y786071D01*
X824806Y785994D01*
X824720Y785919D01*
X824632Y785848D01*
X824542Y785780D01*
X824449Y785715D01*
X824354Y785653D01*
X824257Y785595D01*
X824158Y785540D01*
X824057Y785489D01*
X823954Y785441D01*
X823850Y785396D01*
X823744Y785356D01*
X823637Y785319D01*
X823529Y785286D01*
X823419Y785256D01*
X823309Y785231D01*
X823198Y785209D01*
X823086Y785192D01*
X822973Y785178D01*
X822860Y785168D01*
X822747Y785162D01*
X822634Y785160D01*
X822634Y785161D02*
X819388Y785161D01*
X823283Y785161D02*
X825879Y779968D01*
X830744Y789056D02*
X833990Y791652D01*
X833990Y779968D01*
X837235Y779968D02*
X830744Y779968D01*
D18*
X334686Y178985D03*
X349418Y178985D03*
D10*
X311453Y168332D02*
X311453Y156648D01*
X311453Y168332D02*
X314698Y168332D01*
X314811Y168330D01*
X314924Y168324D01*
X315037Y168314D01*
X315150Y168300D01*
X315262Y168283D01*
X315373Y168261D01*
X315483Y168236D01*
X315593Y168206D01*
X315701Y168173D01*
X315808Y168136D01*
X315914Y168096D01*
X316018Y168051D01*
X316121Y168003D01*
X316222Y167952D01*
X316321Y167897D01*
X316418Y167839D01*
X316513Y167777D01*
X316606Y167712D01*
X316696Y167644D01*
X316784Y167573D01*
X316870Y167498D01*
X316953Y167421D01*
X317033Y167341D01*
X317110Y167258D01*
X317185Y167172D01*
X317256Y167084D01*
X317324Y166994D01*
X317389Y166901D01*
X317451Y166806D01*
X317509Y166709D01*
X317564Y166610D01*
X317615Y166509D01*
X317663Y166406D01*
X317708Y166302D01*
X317748Y166196D01*
X317785Y166089D01*
X317818Y165981D01*
X317848Y165871D01*
X317873Y165761D01*
X317895Y165650D01*
X317912Y165538D01*
X317926Y165425D01*
X317936Y165312D01*
X317942Y165199D01*
X317944Y165086D01*
X317942Y164973D01*
X317936Y164860D01*
X317926Y164747D01*
X317912Y164634D01*
X317895Y164522D01*
X317873Y164411D01*
X317848Y164301D01*
X317818Y164191D01*
X317785Y164083D01*
X317748Y163976D01*
X317708Y163870D01*
X317663Y163766D01*
X317615Y163663D01*
X317564Y163562D01*
X317509Y163463D01*
X317451Y163366D01*
X317389Y163271D01*
X317324Y163178D01*
X317256Y163088D01*
X317185Y163000D01*
X317110Y162914D01*
X317033Y162831D01*
X316953Y162751D01*
X316870Y162674D01*
X316784Y162599D01*
X316696Y162528D01*
X316606Y162460D01*
X316513Y162395D01*
X316418Y162333D01*
X316321Y162275D01*
X316222Y162220D01*
X316121Y162169D01*
X316018Y162121D01*
X315914Y162076D01*
X315808Y162036D01*
X315701Y161999D01*
X315593Y161966D01*
X315483Y161936D01*
X315373Y161911D01*
X315262Y161889D01*
X315150Y161872D01*
X315037Y161858D01*
X314924Y161848D01*
X314811Y161842D01*
X314698Y161840D01*
X314698Y161841D02*
X311453Y161841D01*
X315347Y161841D02*
X317944Y156648D01*
X322315Y155350D02*
X327508Y155350D01*
X335467Y156648D02*
X335566Y156650D01*
X335666Y156656D01*
X335765Y156665D01*
X335863Y156678D01*
X335961Y156695D01*
X336059Y156716D01*
X336155Y156741D01*
X336250Y156769D01*
X336344Y156801D01*
X336437Y156836D01*
X336529Y156875D01*
X336619Y156918D01*
X336707Y156963D01*
X336794Y157013D01*
X336878Y157065D01*
X336961Y157121D01*
X337041Y157179D01*
X337119Y157241D01*
X337194Y157306D01*
X337267Y157374D01*
X337337Y157444D01*
X337405Y157517D01*
X337470Y157592D01*
X337532Y157670D01*
X337590Y157750D01*
X337646Y157833D01*
X337698Y157917D01*
X337748Y158004D01*
X337793Y158092D01*
X337836Y158182D01*
X337875Y158274D01*
X337910Y158367D01*
X337942Y158461D01*
X337970Y158556D01*
X337995Y158652D01*
X338016Y158750D01*
X338033Y158848D01*
X338046Y158946D01*
X338055Y159045D01*
X338061Y159145D01*
X338063Y159244D01*
X335467Y156648D02*
X335323Y156650D01*
X335178Y156656D01*
X335034Y156665D01*
X334891Y156678D01*
X334747Y156695D01*
X334604Y156716D01*
X334462Y156741D01*
X334321Y156769D01*
X334180Y156801D01*
X334040Y156837D01*
X333901Y156876D01*
X333763Y156919D01*
X333627Y156966D01*
X333491Y157016D01*
X333357Y157070D01*
X333225Y157127D01*
X333094Y157188D01*
X332965Y157252D01*
X332837Y157320D01*
X332711Y157390D01*
X332587Y157465D01*
X332466Y157542D01*
X332346Y157623D01*
X332228Y157706D01*
X332113Y157793D01*
X332000Y157883D01*
X331889Y157976D01*
X331781Y158071D01*
X331675Y158170D01*
X331572Y158271D01*
X331897Y165736D02*
X331899Y165835D01*
X331905Y165935D01*
X331914Y166034D01*
X331927Y166132D01*
X331944Y166230D01*
X331965Y166328D01*
X331990Y166424D01*
X332018Y166519D01*
X332050Y166613D01*
X332085Y166706D01*
X332124Y166798D01*
X332167Y166888D01*
X332212Y166976D01*
X332262Y167063D01*
X332314Y167147D01*
X332370Y167230D01*
X332428Y167310D01*
X332490Y167388D01*
X332555Y167463D01*
X332623Y167536D01*
X332693Y167606D01*
X332766Y167674D01*
X332841Y167739D01*
X332919Y167801D01*
X332999Y167859D01*
X333082Y167915D01*
X333166Y167967D01*
X333253Y168017D01*
X333341Y168062D01*
X333431Y168105D01*
X333523Y168144D01*
X333616Y168179D01*
X333710Y168211D01*
X333805Y168239D01*
X333902Y168264D01*
X333999Y168285D01*
X334097Y168302D01*
X334195Y168315D01*
X334294Y168324D01*
X334394Y168330D01*
X334493Y168332D01*
X334629Y168330D01*
X334765Y168324D01*
X334901Y168315D01*
X335037Y168302D01*
X335172Y168284D01*
X335306Y168264D01*
X335440Y168239D01*
X335574Y168211D01*
X335706Y168178D01*
X335837Y168143D01*
X335968Y168103D01*
X336097Y168060D01*
X336225Y168014D01*
X336351Y167963D01*
X336477Y167910D01*
X336600Y167852D01*
X336722Y167792D01*
X336842Y167728D01*
X336961Y167660D01*
X337077Y167590D01*
X337191Y167516D01*
X337304Y167439D01*
X337414Y167358D01*
X333194Y163464D02*
X333108Y163517D01*
X333024Y163574D01*
X332942Y163633D01*
X332862Y163696D01*
X332785Y163762D01*
X332710Y163830D01*
X332638Y163902D01*
X332569Y163976D01*
X332503Y164053D01*
X332440Y164132D01*
X332380Y164214D01*
X332323Y164298D01*
X332269Y164384D01*
X332219Y164472D01*
X332172Y164562D01*
X332128Y164653D01*
X332089Y164747D01*
X332052Y164841D01*
X332020Y164937D01*
X331991Y165035D01*
X331966Y165133D01*
X331945Y165232D01*
X331927Y165332D01*
X331914Y165432D01*
X331904Y165533D01*
X331898Y165635D01*
X331896Y165736D01*
X336765Y161516D02*
X336851Y161463D01*
X336935Y161406D01*
X337017Y161347D01*
X337097Y161284D01*
X337174Y161218D01*
X337249Y161150D01*
X337321Y161078D01*
X337390Y161004D01*
X337456Y160927D01*
X337519Y160848D01*
X337579Y160766D01*
X337636Y160682D01*
X337690Y160596D01*
X337740Y160508D01*
X337787Y160418D01*
X337831Y160327D01*
X337870Y160233D01*
X337907Y160139D01*
X337939Y160043D01*
X337968Y159945D01*
X337993Y159847D01*
X338014Y159748D01*
X338032Y159648D01*
X338045Y159548D01*
X338055Y159447D01*
X338061Y159345D01*
X338063Y159244D01*
X336765Y161516D02*
X333195Y163464D01*
X342621Y165736D02*
X345866Y168332D01*
X345866Y156648D01*
X342621Y156648D02*
X349112Y156648D01*
D18*
X334686Y99985D03*
X349418Y99985D03*
D10*
X311453Y89332D02*
X311453Y77648D01*
X311453Y89332D02*
X314698Y89332D01*
X314811Y89330D01*
X314924Y89324D01*
X315037Y89314D01*
X315150Y89300D01*
X315262Y89283D01*
X315373Y89261D01*
X315483Y89236D01*
X315593Y89206D01*
X315701Y89173D01*
X315808Y89136D01*
X315914Y89096D01*
X316018Y89051D01*
X316121Y89003D01*
X316222Y88952D01*
X316321Y88897D01*
X316418Y88839D01*
X316513Y88777D01*
X316606Y88712D01*
X316696Y88644D01*
X316784Y88573D01*
X316870Y88498D01*
X316953Y88421D01*
X317033Y88341D01*
X317110Y88258D01*
X317185Y88172D01*
X317256Y88084D01*
X317324Y87994D01*
X317389Y87901D01*
X317451Y87806D01*
X317509Y87709D01*
X317564Y87610D01*
X317615Y87509D01*
X317663Y87406D01*
X317708Y87302D01*
X317748Y87196D01*
X317785Y87089D01*
X317818Y86981D01*
X317848Y86871D01*
X317873Y86761D01*
X317895Y86650D01*
X317912Y86538D01*
X317926Y86425D01*
X317936Y86312D01*
X317942Y86199D01*
X317944Y86086D01*
X317942Y85973D01*
X317936Y85860D01*
X317926Y85747D01*
X317912Y85634D01*
X317895Y85522D01*
X317873Y85411D01*
X317848Y85301D01*
X317818Y85191D01*
X317785Y85083D01*
X317748Y84976D01*
X317708Y84870D01*
X317663Y84766D01*
X317615Y84663D01*
X317564Y84562D01*
X317509Y84463D01*
X317451Y84366D01*
X317389Y84271D01*
X317324Y84178D01*
X317256Y84088D01*
X317185Y84000D01*
X317110Y83914D01*
X317033Y83831D01*
X316953Y83751D01*
X316870Y83674D01*
X316784Y83599D01*
X316696Y83528D01*
X316606Y83460D01*
X316513Y83395D01*
X316418Y83333D01*
X316321Y83275D01*
X316222Y83220D01*
X316121Y83169D01*
X316018Y83121D01*
X315914Y83076D01*
X315808Y83036D01*
X315701Y82999D01*
X315593Y82966D01*
X315483Y82936D01*
X315373Y82911D01*
X315262Y82889D01*
X315150Y82872D01*
X315037Y82858D01*
X314924Y82848D01*
X314811Y82842D01*
X314698Y82840D01*
X314698Y82841D02*
X311453Y82841D01*
X315347Y82841D02*
X317944Y77648D01*
X322315Y76350D02*
X327508Y76350D01*
X335467Y77648D02*
X335566Y77650D01*
X335666Y77656D01*
X335765Y77665D01*
X335863Y77678D01*
X335961Y77695D01*
X336059Y77716D01*
X336155Y77741D01*
X336250Y77769D01*
X336344Y77801D01*
X336437Y77836D01*
X336529Y77875D01*
X336619Y77918D01*
X336707Y77963D01*
X336794Y78013D01*
X336878Y78065D01*
X336961Y78121D01*
X337041Y78179D01*
X337119Y78241D01*
X337194Y78306D01*
X337267Y78374D01*
X337337Y78444D01*
X337405Y78517D01*
X337470Y78592D01*
X337532Y78670D01*
X337590Y78750D01*
X337646Y78833D01*
X337698Y78917D01*
X337748Y79004D01*
X337793Y79092D01*
X337836Y79182D01*
X337875Y79274D01*
X337910Y79367D01*
X337942Y79461D01*
X337970Y79556D01*
X337995Y79652D01*
X338016Y79750D01*
X338033Y79848D01*
X338046Y79946D01*
X338055Y80045D01*
X338061Y80145D01*
X338063Y80244D01*
X335467Y77648D02*
X335323Y77650D01*
X335178Y77656D01*
X335034Y77665D01*
X334891Y77678D01*
X334747Y77695D01*
X334604Y77716D01*
X334462Y77741D01*
X334321Y77769D01*
X334180Y77801D01*
X334040Y77837D01*
X333901Y77876D01*
X333763Y77919D01*
X333627Y77966D01*
X333491Y78016D01*
X333357Y78070D01*
X333225Y78127D01*
X333094Y78188D01*
X332965Y78252D01*
X332837Y78320D01*
X332711Y78390D01*
X332587Y78465D01*
X332466Y78542D01*
X332346Y78623D01*
X332228Y78706D01*
X332113Y78793D01*
X332000Y78883D01*
X331889Y78976D01*
X331781Y79071D01*
X331675Y79170D01*
X331572Y79271D01*
X331897Y86736D02*
X331899Y86835D01*
X331905Y86935D01*
X331914Y87034D01*
X331927Y87132D01*
X331944Y87230D01*
X331965Y87328D01*
X331990Y87424D01*
X332018Y87519D01*
X332050Y87613D01*
X332085Y87706D01*
X332124Y87798D01*
X332167Y87888D01*
X332212Y87976D01*
X332262Y88063D01*
X332314Y88147D01*
X332370Y88230D01*
X332428Y88310D01*
X332490Y88388D01*
X332555Y88463D01*
X332623Y88536D01*
X332693Y88606D01*
X332766Y88674D01*
X332841Y88739D01*
X332919Y88801D01*
X332999Y88859D01*
X333082Y88915D01*
X333166Y88967D01*
X333253Y89017D01*
X333341Y89062D01*
X333431Y89105D01*
X333523Y89144D01*
X333616Y89179D01*
X333710Y89211D01*
X333805Y89239D01*
X333902Y89264D01*
X333999Y89285D01*
X334097Y89302D01*
X334195Y89315D01*
X334294Y89324D01*
X334394Y89330D01*
X334493Y89332D01*
X334629Y89330D01*
X334765Y89324D01*
X334901Y89315D01*
X335037Y89302D01*
X335172Y89284D01*
X335306Y89264D01*
X335440Y89239D01*
X335574Y89211D01*
X335706Y89178D01*
X335837Y89143D01*
X335968Y89103D01*
X336097Y89060D01*
X336225Y89014D01*
X336351Y88963D01*
X336477Y88910D01*
X336600Y88852D01*
X336722Y88792D01*
X336842Y88728D01*
X336961Y88660D01*
X337077Y88590D01*
X337191Y88516D01*
X337304Y88439D01*
X337414Y88358D01*
X333194Y84464D02*
X333108Y84517D01*
X333024Y84574D01*
X332942Y84633D01*
X332862Y84696D01*
X332785Y84762D01*
X332710Y84830D01*
X332638Y84902D01*
X332569Y84976D01*
X332503Y85053D01*
X332440Y85132D01*
X332380Y85214D01*
X332323Y85298D01*
X332269Y85384D01*
X332219Y85472D01*
X332172Y85562D01*
X332128Y85653D01*
X332089Y85747D01*
X332052Y85841D01*
X332020Y85937D01*
X331991Y86035D01*
X331966Y86133D01*
X331945Y86232D01*
X331927Y86332D01*
X331914Y86432D01*
X331904Y86533D01*
X331898Y86635D01*
X331896Y86736D01*
X336765Y82516D02*
X336851Y82463D01*
X336935Y82406D01*
X337017Y82347D01*
X337097Y82284D01*
X337174Y82218D01*
X337249Y82150D01*
X337321Y82078D01*
X337390Y82004D01*
X337456Y81927D01*
X337519Y81848D01*
X337579Y81766D01*
X337636Y81682D01*
X337690Y81596D01*
X337740Y81508D01*
X337787Y81418D01*
X337831Y81327D01*
X337870Y81233D01*
X337907Y81139D01*
X337939Y81043D01*
X337968Y80945D01*
X337993Y80847D01*
X338014Y80748D01*
X338032Y80648D01*
X338045Y80548D01*
X338055Y80447D01*
X338061Y80345D01*
X338063Y80244D01*
X336765Y82516D02*
X333195Y84464D01*
X346191Y89332D02*
X346298Y89330D01*
X346404Y89324D01*
X346510Y89314D01*
X346616Y89301D01*
X346722Y89283D01*
X346826Y89262D01*
X346930Y89237D01*
X347033Y89208D01*
X347134Y89176D01*
X347234Y89139D01*
X347333Y89099D01*
X347431Y89056D01*
X347527Y89009D01*
X347621Y88958D01*
X347713Y88904D01*
X347803Y88847D01*
X347891Y88787D01*
X347976Y88723D01*
X348059Y88656D01*
X348140Y88586D01*
X348218Y88514D01*
X348294Y88438D01*
X348366Y88360D01*
X348436Y88279D01*
X348503Y88196D01*
X348567Y88111D01*
X348627Y88023D01*
X348684Y87933D01*
X348738Y87841D01*
X348789Y87747D01*
X348836Y87651D01*
X348879Y87553D01*
X348919Y87454D01*
X348956Y87354D01*
X348988Y87253D01*
X349017Y87150D01*
X349042Y87046D01*
X349063Y86942D01*
X349081Y86836D01*
X349094Y86730D01*
X349104Y86624D01*
X349110Y86518D01*
X349112Y86411D01*
X346191Y89332D02*
X346070Y89330D01*
X345949Y89324D01*
X345829Y89314D01*
X345708Y89301D01*
X345589Y89283D01*
X345469Y89262D01*
X345351Y89237D01*
X345234Y89208D01*
X345117Y89175D01*
X345002Y89139D01*
X344888Y89098D01*
X344775Y89055D01*
X344663Y89007D01*
X344554Y88956D01*
X344446Y88901D01*
X344339Y88843D01*
X344235Y88782D01*
X344133Y88717D01*
X344033Y88649D01*
X343935Y88578D01*
X343839Y88504D01*
X343746Y88427D01*
X343656Y88346D01*
X343568Y88263D01*
X343483Y88177D01*
X343400Y88088D01*
X343321Y87997D01*
X343244Y87903D01*
X343171Y87807D01*
X343101Y87709D01*
X343034Y87608D01*
X342970Y87505D01*
X342910Y87400D01*
X342853Y87293D01*
X342799Y87185D01*
X342749Y87075D01*
X342703Y86963D01*
X342660Y86850D01*
X342621Y86735D01*
X348139Y84139D02*
X348218Y84216D01*
X348294Y84297D01*
X348367Y84380D01*
X348437Y84465D01*
X348504Y84553D01*
X348568Y84643D01*
X348628Y84735D01*
X348685Y84830D01*
X348739Y84926D01*
X348790Y85024D01*
X348837Y85124D01*
X348881Y85226D01*
X348921Y85329D01*
X348957Y85433D01*
X348989Y85539D01*
X349018Y85645D01*
X349043Y85753D01*
X349065Y85861D01*
X349082Y85971D01*
X349096Y86080D01*
X349105Y86190D01*
X349111Y86301D01*
X349113Y86411D01*
X348138Y84139D02*
X342621Y77648D01*
X349112Y77648D01*
D18*
X334686Y138985D03*
X349418Y138985D03*
D10*
X306453Y128332D02*
X306453Y116648D01*
X306453Y128332D02*
X309698Y128332D01*
X309811Y128330D01*
X309924Y128324D01*
X310037Y128314D01*
X310150Y128300D01*
X310262Y128283D01*
X310373Y128261D01*
X310483Y128236D01*
X310593Y128206D01*
X310701Y128173D01*
X310808Y128136D01*
X310914Y128096D01*
X311018Y128051D01*
X311121Y128003D01*
X311222Y127952D01*
X311321Y127897D01*
X311418Y127839D01*
X311513Y127777D01*
X311606Y127712D01*
X311696Y127644D01*
X311784Y127573D01*
X311870Y127498D01*
X311953Y127421D01*
X312033Y127341D01*
X312110Y127258D01*
X312185Y127172D01*
X312256Y127084D01*
X312324Y126994D01*
X312389Y126901D01*
X312451Y126806D01*
X312509Y126709D01*
X312564Y126610D01*
X312615Y126509D01*
X312663Y126406D01*
X312708Y126302D01*
X312748Y126196D01*
X312785Y126089D01*
X312818Y125981D01*
X312848Y125871D01*
X312873Y125761D01*
X312895Y125650D01*
X312912Y125538D01*
X312926Y125425D01*
X312936Y125312D01*
X312942Y125199D01*
X312944Y125086D01*
X312942Y124973D01*
X312936Y124860D01*
X312926Y124747D01*
X312912Y124634D01*
X312895Y124522D01*
X312873Y124411D01*
X312848Y124301D01*
X312818Y124191D01*
X312785Y124083D01*
X312748Y123976D01*
X312708Y123870D01*
X312663Y123766D01*
X312615Y123663D01*
X312564Y123562D01*
X312509Y123463D01*
X312451Y123366D01*
X312389Y123271D01*
X312324Y123178D01*
X312256Y123088D01*
X312185Y123000D01*
X312110Y122914D01*
X312033Y122831D01*
X311953Y122751D01*
X311870Y122674D01*
X311784Y122599D01*
X311696Y122528D01*
X311606Y122460D01*
X311513Y122395D01*
X311418Y122333D01*
X311321Y122275D01*
X311222Y122220D01*
X311121Y122169D01*
X311018Y122121D01*
X310914Y122076D01*
X310808Y122036D01*
X310701Y121999D01*
X310593Y121966D01*
X310483Y121936D01*
X310373Y121911D01*
X310262Y121889D01*
X310150Y121872D01*
X310037Y121858D01*
X309924Y121848D01*
X309811Y121842D01*
X309698Y121840D01*
X309698Y121841D02*
X306453Y121841D01*
X310347Y121841D02*
X312944Y116648D01*
X317315Y115350D02*
X322508Y115350D01*
X330467Y116648D02*
X330566Y116650D01*
X330666Y116656D01*
X330765Y116665D01*
X330863Y116678D01*
X330961Y116695D01*
X331059Y116716D01*
X331155Y116741D01*
X331250Y116769D01*
X331344Y116801D01*
X331437Y116836D01*
X331529Y116875D01*
X331619Y116918D01*
X331707Y116963D01*
X331794Y117013D01*
X331878Y117065D01*
X331961Y117121D01*
X332041Y117179D01*
X332119Y117241D01*
X332194Y117306D01*
X332267Y117374D01*
X332337Y117444D01*
X332405Y117517D01*
X332470Y117592D01*
X332532Y117670D01*
X332590Y117750D01*
X332646Y117833D01*
X332698Y117917D01*
X332748Y118004D01*
X332793Y118092D01*
X332836Y118182D01*
X332875Y118274D01*
X332910Y118367D01*
X332942Y118461D01*
X332970Y118556D01*
X332995Y118652D01*
X333016Y118750D01*
X333033Y118848D01*
X333046Y118946D01*
X333055Y119045D01*
X333061Y119145D01*
X333063Y119244D01*
X330467Y116648D02*
X330323Y116650D01*
X330178Y116656D01*
X330034Y116665D01*
X329891Y116678D01*
X329747Y116695D01*
X329604Y116716D01*
X329462Y116741D01*
X329321Y116769D01*
X329180Y116801D01*
X329040Y116837D01*
X328901Y116876D01*
X328763Y116919D01*
X328627Y116966D01*
X328491Y117016D01*
X328357Y117070D01*
X328225Y117127D01*
X328094Y117188D01*
X327965Y117252D01*
X327837Y117320D01*
X327711Y117390D01*
X327587Y117465D01*
X327466Y117542D01*
X327346Y117623D01*
X327228Y117706D01*
X327113Y117793D01*
X327000Y117883D01*
X326889Y117976D01*
X326781Y118071D01*
X326675Y118170D01*
X326572Y118271D01*
X326897Y125736D02*
X326899Y125835D01*
X326905Y125935D01*
X326914Y126034D01*
X326927Y126132D01*
X326944Y126230D01*
X326965Y126328D01*
X326990Y126424D01*
X327018Y126519D01*
X327050Y126613D01*
X327085Y126706D01*
X327124Y126798D01*
X327167Y126888D01*
X327212Y126976D01*
X327262Y127063D01*
X327314Y127147D01*
X327370Y127230D01*
X327428Y127310D01*
X327490Y127388D01*
X327555Y127463D01*
X327623Y127536D01*
X327693Y127606D01*
X327766Y127674D01*
X327841Y127739D01*
X327919Y127801D01*
X327999Y127859D01*
X328082Y127915D01*
X328166Y127967D01*
X328253Y128017D01*
X328341Y128062D01*
X328431Y128105D01*
X328523Y128144D01*
X328616Y128179D01*
X328710Y128211D01*
X328805Y128239D01*
X328902Y128264D01*
X328999Y128285D01*
X329097Y128302D01*
X329195Y128315D01*
X329294Y128324D01*
X329394Y128330D01*
X329493Y128332D01*
X329629Y128330D01*
X329765Y128324D01*
X329901Y128315D01*
X330037Y128302D01*
X330172Y128284D01*
X330306Y128264D01*
X330440Y128239D01*
X330574Y128211D01*
X330706Y128178D01*
X330837Y128143D01*
X330968Y128103D01*
X331097Y128060D01*
X331225Y128014D01*
X331351Y127963D01*
X331477Y127910D01*
X331600Y127852D01*
X331722Y127792D01*
X331842Y127728D01*
X331961Y127660D01*
X332077Y127590D01*
X332191Y127516D01*
X332304Y127439D01*
X332414Y127358D01*
X328194Y123464D02*
X328108Y123517D01*
X328024Y123574D01*
X327942Y123633D01*
X327862Y123696D01*
X327785Y123762D01*
X327710Y123830D01*
X327638Y123902D01*
X327569Y123976D01*
X327503Y124053D01*
X327440Y124132D01*
X327380Y124214D01*
X327323Y124298D01*
X327269Y124384D01*
X327219Y124472D01*
X327172Y124562D01*
X327128Y124653D01*
X327089Y124747D01*
X327052Y124841D01*
X327020Y124937D01*
X326991Y125035D01*
X326966Y125133D01*
X326945Y125232D01*
X326927Y125332D01*
X326914Y125432D01*
X326904Y125533D01*
X326898Y125635D01*
X326896Y125736D01*
X331765Y121516D02*
X331851Y121463D01*
X331935Y121406D01*
X332017Y121347D01*
X332097Y121284D01*
X332174Y121218D01*
X332249Y121150D01*
X332321Y121078D01*
X332390Y121004D01*
X332456Y120927D01*
X332519Y120848D01*
X332579Y120766D01*
X332636Y120682D01*
X332690Y120596D01*
X332740Y120508D01*
X332787Y120418D01*
X332831Y120327D01*
X332870Y120233D01*
X332907Y120139D01*
X332939Y120043D01*
X332968Y119945D01*
X332993Y119847D01*
X333014Y119748D01*
X333032Y119648D01*
X333045Y119548D01*
X333055Y119447D01*
X333061Y119345D01*
X333063Y119244D01*
X331765Y121516D02*
X328195Y123464D01*
X337621Y116648D02*
X340866Y116648D01*
X340979Y116650D01*
X341092Y116656D01*
X341205Y116666D01*
X341318Y116680D01*
X341430Y116697D01*
X341541Y116719D01*
X341651Y116744D01*
X341761Y116774D01*
X341869Y116807D01*
X341976Y116844D01*
X342082Y116884D01*
X342186Y116929D01*
X342289Y116977D01*
X342390Y117028D01*
X342489Y117083D01*
X342586Y117141D01*
X342681Y117203D01*
X342774Y117268D01*
X342864Y117336D01*
X342952Y117407D01*
X343038Y117482D01*
X343121Y117559D01*
X343201Y117639D01*
X343278Y117722D01*
X343353Y117808D01*
X343424Y117896D01*
X343492Y117986D01*
X343557Y118079D01*
X343619Y118174D01*
X343677Y118271D01*
X343732Y118370D01*
X343783Y118471D01*
X343831Y118574D01*
X343876Y118678D01*
X343916Y118784D01*
X343953Y118891D01*
X343986Y118999D01*
X344016Y119109D01*
X344041Y119219D01*
X344063Y119330D01*
X344080Y119442D01*
X344094Y119555D01*
X344104Y119668D01*
X344110Y119781D01*
X344112Y119894D01*
X344110Y120007D01*
X344104Y120120D01*
X344094Y120233D01*
X344080Y120346D01*
X344063Y120458D01*
X344041Y120569D01*
X344016Y120679D01*
X343986Y120789D01*
X343953Y120897D01*
X343916Y121004D01*
X343876Y121110D01*
X343831Y121214D01*
X343783Y121317D01*
X343732Y121418D01*
X343677Y121517D01*
X343619Y121614D01*
X343557Y121709D01*
X343492Y121802D01*
X343424Y121892D01*
X343353Y121980D01*
X343278Y122066D01*
X343201Y122149D01*
X343121Y122229D01*
X343038Y122306D01*
X342952Y122381D01*
X342864Y122452D01*
X342774Y122520D01*
X342681Y122585D01*
X342586Y122647D01*
X342489Y122705D01*
X342390Y122760D01*
X342289Y122811D01*
X342186Y122859D01*
X342082Y122904D01*
X341976Y122944D01*
X341869Y122981D01*
X341761Y123014D01*
X341651Y123044D01*
X341541Y123069D01*
X341430Y123091D01*
X341318Y123108D01*
X341205Y123122D01*
X341092Y123132D01*
X340979Y123138D01*
X340866Y123140D01*
X341516Y128332D02*
X337621Y128332D01*
X341516Y128332D02*
X341617Y128330D01*
X341717Y128324D01*
X341817Y128314D01*
X341917Y128301D01*
X342016Y128283D01*
X342115Y128262D01*
X342212Y128237D01*
X342309Y128208D01*
X342404Y128175D01*
X342498Y128139D01*
X342590Y128099D01*
X342681Y128056D01*
X342770Y128009D01*
X342857Y127959D01*
X342943Y127905D01*
X343026Y127848D01*
X343106Y127788D01*
X343185Y127725D01*
X343261Y127658D01*
X343334Y127589D01*
X343404Y127517D01*
X343472Y127443D01*
X343537Y127366D01*
X343598Y127286D01*
X343657Y127204D01*
X343712Y127120D01*
X343764Y127034D01*
X343813Y126946D01*
X343858Y126856D01*
X343900Y126764D01*
X343938Y126671D01*
X343972Y126576D01*
X344003Y126481D01*
X344030Y126384D01*
X344053Y126286D01*
X344073Y126187D01*
X344088Y126087D01*
X344100Y125987D01*
X344108Y125887D01*
X344112Y125786D01*
X344112Y125686D01*
X344108Y125585D01*
X344100Y125485D01*
X344088Y125385D01*
X344073Y125285D01*
X344053Y125186D01*
X344030Y125088D01*
X344003Y124991D01*
X343972Y124896D01*
X343938Y124801D01*
X343900Y124708D01*
X343858Y124616D01*
X343813Y124526D01*
X343764Y124438D01*
X343712Y124352D01*
X343657Y124268D01*
X343598Y124186D01*
X343537Y124106D01*
X343472Y124029D01*
X343404Y123955D01*
X343334Y123883D01*
X343261Y123814D01*
X343185Y123747D01*
X343106Y123684D01*
X343026Y123624D01*
X342943Y123567D01*
X342857Y123513D01*
X342770Y123463D01*
X342681Y123416D01*
X342590Y123373D01*
X342498Y123333D01*
X342404Y123297D01*
X342309Y123264D01*
X342212Y123235D01*
X342115Y123210D01*
X342016Y123189D01*
X341917Y123171D01*
X341817Y123158D01*
X341717Y123148D01*
X341617Y123142D01*
X341516Y123140D01*
X341516Y123139D02*
X338919Y123139D01*
D12*
X427620Y170480D02*
X427620Y173020D01*
X412380Y173020D01*
X412380Y170480D01*
X412380Y109520D02*
X412380Y106980D01*
X427620Y106980D01*
X427620Y109520D01*
D19*
X392060Y127300D02*
X389520Y127300D01*
X392060Y127300D02*
X392060Y152700D01*
X389520Y152700D01*
X447940Y151430D02*
X447940Y127300D01*
X447940Y151430D02*
X450480Y151430D01*
X450480Y127300D02*
X447940Y127300D01*
D12*
X450480Y127300D02*
X450480Y118410D01*
X389520Y152700D02*
X389520Y161590D01*
X389520Y152700D02*
X389520Y127300D01*
X389520Y118410D01*
X450480Y127300D02*
X450480Y151430D01*
X450480Y161590D01*
X430160Y170480D02*
X427620Y170480D01*
X412380Y170480D02*
X409840Y170480D01*
X427620Y109520D02*
X430160Y109520D01*
X412380Y109520D02*
X409840Y109520D01*
X402220Y140000D02*
X402225Y140436D01*
X402241Y140872D01*
X402268Y141308D01*
X402306Y141743D01*
X402354Y142176D01*
X402412Y142609D01*
X402482Y143040D01*
X402562Y143469D01*
X402652Y143896D01*
X402753Y144320D01*
X402864Y144742D01*
X402986Y145161D01*
X403117Y145577D01*
X403259Y145990D01*
X403411Y146399D01*
X403573Y146804D01*
X403745Y147205D01*
X403927Y147602D01*
X404118Y147994D01*
X404319Y148381D01*
X404530Y148764D01*
X404750Y149141D01*
X404979Y149512D01*
X405216Y149878D01*
X405463Y150238D01*
X405719Y150592D01*
X405983Y150939D01*
X406256Y151280D01*
X406537Y151613D01*
X406826Y151940D01*
X407123Y152260D01*
X407428Y152572D01*
X407740Y152877D01*
X408060Y153174D01*
X408387Y153463D01*
X408720Y153744D01*
X409061Y154017D01*
X409408Y154281D01*
X409762Y154537D01*
X410122Y154784D01*
X410488Y155021D01*
X410859Y155250D01*
X411236Y155470D01*
X411619Y155681D01*
X412006Y155882D01*
X412398Y156073D01*
X412795Y156255D01*
X413196Y156427D01*
X413601Y156589D01*
X414010Y156741D01*
X414423Y156883D01*
X414839Y157014D01*
X415258Y157136D01*
X415680Y157247D01*
X416104Y157348D01*
X416531Y157438D01*
X416960Y157518D01*
X417391Y157588D01*
X417824Y157646D01*
X418257Y157694D01*
X418692Y157732D01*
X419128Y157759D01*
X419564Y157775D01*
X420000Y157780D01*
X420436Y157775D01*
X420872Y157759D01*
X421308Y157732D01*
X421743Y157694D01*
X422176Y157646D01*
X422609Y157588D01*
X423040Y157518D01*
X423469Y157438D01*
X423896Y157348D01*
X424320Y157247D01*
X424742Y157136D01*
X425161Y157014D01*
X425577Y156883D01*
X425990Y156741D01*
X426399Y156589D01*
X426804Y156427D01*
X427205Y156255D01*
X427602Y156073D01*
X427994Y155882D01*
X428381Y155681D01*
X428764Y155470D01*
X429141Y155250D01*
X429512Y155021D01*
X429878Y154784D01*
X430238Y154537D01*
X430592Y154281D01*
X430939Y154017D01*
X431280Y153744D01*
X431613Y153463D01*
X431940Y153174D01*
X432260Y152877D01*
X432572Y152572D01*
X432877Y152260D01*
X433174Y151940D01*
X433463Y151613D01*
X433744Y151280D01*
X434017Y150939D01*
X434281Y150592D01*
X434537Y150238D01*
X434784Y149878D01*
X435021Y149512D01*
X435250Y149141D01*
X435470Y148764D01*
X435681Y148381D01*
X435882Y147994D01*
X436073Y147602D01*
X436255Y147205D01*
X436427Y146804D01*
X436589Y146399D01*
X436741Y145990D01*
X436883Y145577D01*
X437014Y145161D01*
X437136Y144742D01*
X437247Y144320D01*
X437348Y143896D01*
X437438Y143469D01*
X437518Y143040D01*
X437588Y142609D01*
X437646Y142176D01*
X437694Y141743D01*
X437732Y141308D01*
X437759Y140872D01*
X437775Y140436D01*
X437780Y140000D01*
X437775Y139564D01*
X437759Y139128D01*
X437732Y138692D01*
X437694Y138257D01*
X437646Y137824D01*
X437588Y137391D01*
X437518Y136960D01*
X437438Y136531D01*
X437348Y136104D01*
X437247Y135680D01*
X437136Y135258D01*
X437014Y134839D01*
X436883Y134423D01*
X436741Y134010D01*
X436589Y133601D01*
X436427Y133196D01*
X436255Y132795D01*
X436073Y132398D01*
X435882Y132006D01*
X435681Y131619D01*
X435470Y131236D01*
X435250Y130859D01*
X435021Y130488D01*
X434784Y130122D01*
X434537Y129762D01*
X434281Y129408D01*
X434017Y129061D01*
X433744Y128720D01*
X433463Y128387D01*
X433174Y128060D01*
X432877Y127740D01*
X432572Y127428D01*
X432260Y127123D01*
X431940Y126826D01*
X431613Y126537D01*
X431280Y126256D01*
X430939Y125983D01*
X430592Y125719D01*
X430238Y125463D01*
X429878Y125216D01*
X429512Y124979D01*
X429141Y124750D01*
X428764Y124530D01*
X428381Y124319D01*
X427994Y124118D01*
X427602Y123927D01*
X427205Y123745D01*
X426804Y123573D01*
X426399Y123411D01*
X425990Y123259D01*
X425577Y123117D01*
X425161Y122986D01*
X424742Y122864D01*
X424320Y122753D01*
X423896Y122652D01*
X423469Y122562D01*
X423040Y122482D01*
X422609Y122412D01*
X422176Y122354D01*
X421743Y122306D01*
X421308Y122268D01*
X420872Y122241D01*
X420436Y122225D01*
X420000Y122220D01*
X419564Y122225D01*
X419128Y122241D01*
X418692Y122268D01*
X418257Y122306D01*
X417824Y122354D01*
X417391Y122412D01*
X416960Y122482D01*
X416531Y122562D01*
X416104Y122652D01*
X415680Y122753D01*
X415258Y122864D01*
X414839Y122986D01*
X414423Y123117D01*
X414010Y123259D01*
X413601Y123411D01*
X413196Y123573D01*
X412795Y123745D01*
X412398Y123927D01*
X412006Y124118D01*
X411619Y124319D01*
X411236Y124530D01*
X410859Y124750D01*
X410488Y124979D01*
X410122Y125216D01*
X409762Y125463D01*
X409408Y125719D01*
X409061Y125983D01*
X408720Y126256D01*
X408387Y126537D01*
X408060Y126826D01*
X407740Y127123D01*
X407428Y127428D01*
X407123Y127740D01*
X406826Y128060D01*
X406537Y128387D01*
X406256Y128720D01*
X405983Y129061D01*
X405719Y129408D01*
X405463Y129762D01*
X405216Y130122D01*
X404979Y130488D01*
X404750Y130859D01*
X404530Y131236D01*
X404319Y131619D01*
X404118Y132006D01*
X403927Y132398D01*
X403745Y132795D01*
X403573Y133196D01*
X403411Y133601D01*
X403259Y134010D01*
X403117Y134423D01*
X402986Y134839D01*
X402864Y135258D01*
X402753Y135680D01*
X402652Y136104D01*
X402562Y136531D01*
X402482Y136960D01*
X402412Y137391D01*
X402354Y137824D01*
X402306Y138257D01*
X402268Y138692D01*
X402241Y139128D01*
X402225Y139564D01*
X402220Y140000D01*
X417460Y140000D02*
X417462Y140100D01*
X417468Y140201D01*
X417478Y140300D01*
X417492Y140400D01*
X417509Y140499D01*
X417531Y140597D01*
X417557Y140694D01*
X417586Y140790D01*
X417619Y140884D01*
X417656Y140978D01*
X417696Y141070D01*
X417740Y141160D01*
X417788Y141248D01*
X417839Y141335D01*
X417893Y141419D01*
X417951Y141501D01*
X418012Y141581D01*
X418076Y141658D01*
X418143Y141733D01*
X418213Y141805D01*
X418286Y141874D01*
X418361Y141940D01*
X418439Y142004D01*
X418519Y142064D01*
X418602Y142121D01*
X418687Y142174D01*
X418774Y142224D01*
X418863Y142271D01*
X418953Y142314D01*
X419045Y142354D01*
X419139Y142390D01*
X419234Y142422D01*
X419330Y142450D01*
X419428Y142475D01*
X419526Y142495D01*
X419625Y142512D01*
X419725Y142525D01*
X419824Y142534D01*
X419925Y142539D01*
X420025Y142540D01*
X420125Y142537D01*
X420226Y142530D01*
X420325Y142519D01*
X420425Y142504D01*
X420523Y142486D01*
X420621Y142463D01*
X420718Y142436D01*
X420813Y142406D01*
X420908Y142372D01*
X421001Y142334D01*
X421092Y142293D01*
X421182Y142248D01*
X421270Y142200D01*
X421356Y142148D01*
X421440Y142093D01*
X421521Y142034D01*
X421600Y141972D01*
X421677Y141908D01*
X421751Y141840D01*
X421822Y141769D01*
X421891Y141696D01*
X421956Y141620D01*
X422019Y141541D01*
X422078Y141460D01*
X422134Y141377D01*
X422187Y141292D01*
X422236Y141204D01*
X422282Y141115D01*
X422324Y141024D01*
X422363Y140931D01*
X422398Y140837D01*
X422429Y140742D01*
X422457Y140645D01*
X422480Y140548D01*
X422500Y140449D01*
X422516Y140350D01*
X422528Y140251D01*
X422536Y140150D01*
X422540Y140050D01*
X422540Y139950D01*
X422536Y139850D01*
X422528Y139749D01*
X422516Y139650D01*
X422500Y139551D01*
X422480Y139452D01*
X422457Y139355D01*
X422429Y139258D01*
X422398Y139163D01*
X422363Y139069D01*
X422324Y138976D01*
X422282Y138885D01*
X422236Y138796D01*
X422187Y138708D01*
X422134Y138623D01*
X422078Y138540D01*
X422019Y138459D01*
X421956Y138380D01*
X421891Y138304D01*
X421822Y138231D01*
X421751Y138160D01*
X421677Y138092D01*
X421600Y138028D01*
X421521Y137966D01*
X421440Y137907D01*
X421356Y137852D01*
X421270Y137800D01*
X421182Y137752D01*
X421092Y137707D01*
X421001Y137666D01*
X420908Y137628D01*
X420813Y137594D01*
X420718Y137564D01*
X420621Y137537D01*
X420523Y137514D01*
X420425Y137496D01*
X420325Y137481D01*
X420226Y137470D01*
X420125Y137463D01*
X420025Y137460D01*
X419925Y137461D01*
X419824Y137466D01*
X419725Y137475D01*
X419625Y137488D01*
X419526Y137505D01*
X419428Y137525D01*
X419330Y137550D01*
X419234Y137578D01*
X419139Y137610D01*
X419045Y137646D01*
X418953Y137686D01*
X418863Y137729D01*
X418774Y137776D01*
X418687Y137826D01*
X418602Y137879D01*
X418519Y137936D01*
X418439Y137996D01*
X418361Y138060D01*
X418286Y138126D01*
X418213Y138195D01*
X418143Y138267D01*
X418076Y138342D01*
X418012Y138419D01*
X417951Y138499D01*
X417893Y138581D01*
X417839Y138665D01*
X417788Y138752D01*
X417740Y138840D01*
X417696Y138930D01*
X417656Y139022D01*
X417619Y139116D01*
X417586Y139210D01*
X417557Y139306D01*
X417531Y139403D01*
X417509Y139501D01*
X417492Y139600D01*
X417478Y139700D01*
X417468Y139799D01*
X417462Y139900D01*
X417460Y140000D01*
D11*
X382535Y113965D02*
X382533Y114065D01*
X382527Y114164D01*
X382517Y114264D01*
X382504Y114362D01*
X382486Y114461D01*
X382465Y114558D01*
X382440Y114654D01*
X382411Y114750D01*
X382378Y114844D01*
X382342Y114937D01*
X382302Y115028D01*
X382258Y115118D01*
X382211Y115206D01*
X382161Y115292D01*
X382107Y115376D01*
X382050Y115458D01*
X381990Y115537D01*
X381926Y115615D01*
X381860Y115689D01*
X381791Y115761D01*
X381719Y115830D01*
X381645Y115896D01*
X381567Y115960D01*
X381488Y116020D01*
X381406Y116077D01*
X381322Y116131D01*
X381236Y116181D01*
X381148Y116228D01*
X381058Y116272D01*
X380967Y116312D01*
X380874Y116348D01*
X380780Y116381D01*
X380684Y116410D01*
X380588Y116435D01*
X380491Y116456D01*
X380392Y116474D01*
X380294Y116487D01*
X380194Y116497D01*
X380095Y116503D01*
X379995Y116505D01*
X382535Y113965D02*
X382533Y113824D01*
X382528Y113683D01*
X382518Y113542D01*
X382505Y113401D01*
X382489Y113261D01*
X382468Y113121D01*
X382444Y112982D01*
X382416Y112843D01*
X382385Y112706D01*
X382350Y112569D01*
X382312Y112433D01*
X382270Y112298D01*
X382224Y112165D01*
X382175Y112032D01*
X382122Y111901D01*
X382066Y111772D01*
X382007Y111643D01*
X381944Y111517D01*
X381878Y111392D01*
X381809Y111269D01*
X381736Y111148D01*
X381660Y111029D01*
X381581Y110911D01*
X381500Y110796D01*
X381415Y110684D01*
X381327Y110573D01*
X381236Y110465D01*
X381143Y110359D01*
X381046Y110256D01*
X380947Y110155D01*
X373645Y110473D02*
X373545Y110475D01*
X373446Y110481D01*
X373346Y110491D01*
X373248Y110504D01*
X373149Y110522D01*
X373052Y110543D01*
X372956Y110568D01*
X372860Y110597D01*
X372766Y110630D01*
X372673Y110666D01*
X372582Y110706D01*
X372492Y110750D01*
X372404Y110797D01*
X372318Y110847D01*
X372234Y110901D01*
X372152Y110958D01*
X372073Y111018D01*
X371995Y111082D01*
X371921Y111148D01*
X371849Y111217D01*
X371780Y111289D01*
X371714Y111363D01*
X371650Y111441D01*
X371590Y111520D01*
X371533Y111602D01*
X371479Y111686D01*
X371429Y111772D01*
X371382Y111860D01*
X371338Y111950D01*
X371298Y112041D01*
X371262Y112134D01*
X371229Y112228D01*
X371200Y112324D01*
X371175Y112420D01*
X371154Y112517D01*
X371136Y112616D01*
X371123Y112714D01*
X371113Y112814D01*
X371107Y112913D01*
X371105Y113013D01*
X371107Y113146D01*
X371112Y113279D01*
X371122Y113412D01*
X371135Y113545D01*
X371152Y113677D01*
X371172Y113809D01*
X371196Y113940D01*
X371224Y114070D01*
X371255Y114200D01*
X371290Y114328D01*
X371329Y114456D01*
X371371Y114582D01*
X371417Y114707D01*
X371466Y114831D01*
X371518Y114954D01*
X371574Y115075D01*
X371634Y115194D01*
X371696Y115312D01*
X371762Y115427D01*
X371831Y115541D01*
X371904Y115653D01*
X371979Y115763D01*
X372058Y115871D01*
X375868Y111742D02*
X375816Y111658D01*
X375761Y111575D01*
X375702Y111495D01*
X375641Y111417D01*
X375577Y111342D01*
X375509Y111269D01*
X375439Y111198D01*
X375367Y111131D01*
X375292Y111066D01*
X375214Y111004D01*
X375134Y110945D01*
X375052Y110889D01*
X374968Y110837D01*
X374882Y110788D01*
X374794Y110742D01*
X374704Y110699D01*
X374613Y110660D01*
X374520Y110625D01*
X374426Y110593D01*
X374331Y110565D01*
X374235Y110540D01*
X374138Y110520D01*
X374040Y110502D01*
X373942Y110489D01*
X373843Y110480D01*
X373744Y110474D01*
X373645Y110472D01*
X377772Y115235D02*
X377824Y115319D01*
X377879Y115402D01*
X377938Y115482D01*
X377999Y115560D01*
X378063Y115635D01*
X378131Y115708D01*
X378201Y115779D01*
X378273Y115846D01*
X378348Y115911D01*
X378426Y115973D01*
X378506Y116032D01*
X378588Y116088D01*
X378672Y116140D01*
X378758Y116189D01*
X378846Y116235D01*
X378936Y116278D01*
X379027Y116317D01*
X379120Y116352D01*
X379214Y116384D01*
X379309Y116412D01*
X379405Y116437D01*
X379502Y116457D01*
X379600Y116475D01*
X379698Y116488D01*
X379797Y116497D01*
X379896Y116503D01*
X379995Y116505D01*
X377773Y115235D02*
X375868Y111743D01*
X373645Y121204D02*
X371105Y124379D01*
X382535Y124379D01*
X382535Y121204D02*
X382535Y127554D01*
D12*
X512380Y109520D02*
X512380Y106980D01*
X527620Y106980D01*
X527620Y109520D01*
X527620Y170480D02*
X527620Y173020D01*
X512380Y173020D01*
X512380Y170480D01*
D19*
X547940Y152700D02*
X550480Y152700D01*
X547940Y152700D02*
X547940Y127300D01*
X550480Y127300D01*
X492060Y128570D02*
X492060Y152700D01*
X492060Y128570D02*
X489520Y128570D01*
X489520Y152700D02*
X492060Y152700D01*
D12*
X489520Y152700D02*
X489520Y161590D01*
X550480Y127300D02*
X550480Y118410D01*
X550480Y127300D02*
X550480Y152700D01*
X550480Y161590D01*
X489520Y152700D02*
X489520Y128570D01*
X489520Y118410D01*
X509840Y109520D02*
X512380Y109520D01*
X527620Y109520D02*
X530160Y109520D01*
X512380Y170480D02*
X509840Y170480D01*
X527620Y170480D02*
X530160Y170480D01*
X502220Y140000D02*
X502225Y140436D01*
X502241Y140872D01*
X502268Y141308D01*
X502306Y141743D01*
X502354Y142176D01*
X502412Y142609D01*
X502482Y143040D01*
X502562Y143469D01*
X502652Y143896D01*
X502753Y144320D01*
X502864Y144742D01*
X502986Y145161D01*
X503117Y145577D01*
X503259Y145990D01*
X503411Y146399D01*
X503573Y146804D01*
X503745Y147205D01*
X503927Y147602D01*
X504118Y147994D01*
X504319Y148381D01*
X504530Y148764D01*
X504750Y149141D01*
X504979Y149512D01*
X505216Y149878D01*
X505463Y150238D01*
X505719Y150592D01*
X505983Y150939D01*
X506256Y151280D01*
X506537Y151613D01*
X506826Y151940D01*
X507123Y152260D01*
X507428Y152572D01*
X507740Y152877D01*
X508060Y153174D01*
X508387Y153463D01*
X508720Y153744D01*
X509061Y154017D01*
X509408Y154281D01*
X509762Y154537D01*
X510122Y154784D01*
X510488Y155021D01*
X510859Y155250D01*
X511236Y155470D01*
X511619Y155681D01*
X512006Y155882D01*
X512398Y156073D01*
X512795Y156255D01*
X513196Y156427D01*
X513601Y156589D01*
X514010Y156741D01*
X514423Y156883D01*
X514839Y157014D01*
X515258Y157136D01*
X515680Y157247D01*
X516104Y157348D01*
X516531Y157438D01*
X516960Y157518D01*
X517391Y157588D01*
X517824Y157646D01*
X518257Y157694D01*
X518692Y157732D01*
X519128Y157759D01*
X519564Y157775D01*
X520000Y157780D01*
X520436Y157775D01*
X520872Y157759D01*
X521308Y157732D01*
X521743Y157694D01*
X522176Y157646D01*
X522609Y157588D01*
X523040Y157518D01*
X523469Y157438D01*
X523896Y157348D01*
X524320Y157247D01*
X524742Y157136D01*
X525161Y157014D01*
X525577Y156883D01*
X525990Y156741D01*
X526399Y156589D01*
X526804Y156427D01*
X527205Y156255D01*
X527602Y156073D01*
X527994Y155882D01*
X528381Y155681D01*
X528764Y155470D01*
X529141Y155250D01*
X529512Y155021D01*
X529878Y154784D01*
X530238Y154537D01*
X530592Y154281D01*
X530939Y154017D01*
X531280Y153744D01*
X531613Y153463D01*
X531940Y153174D01*
X532260Y152877D01*
X532572Y152572D01*
X532877Y152260D01*
X533174Y151940D01*
X533463Y151613D01*
X533744Y151280D01*
X534017Y150939D01*
X534281Y150592D01*
X534537Y150238D01*
X534784Y149878D01*
X535021Y149512D01*
X535250Y149141D01*
X535470Y148764D01*
X535681Y148381D01*
X535882Y147994D01*
X536073Y147602D01*
X536255Y147205D01*
X536427Y146804D01*
X536589Y146399D01*
X536741Y145990D01*
X536883Y145577D01*
X537014Y145161D01*
X537136Y144742D01*
X537247Y144320D01*
X537348Y143896D01*
X537438Y143469D01*
X537518Y143040D01*
X537588Y142609D01*
X537646Y142176D01*
X537694Y141743D01*
X537732Y141308D01*
X537759Y140872D01*
X537775Y140436D01*
X537780Y140000D01*
X537775Y139564D01*
X537759Y139128D01*
X537732Y138692D01*
X537694Y138257D01*
X537646Y137824D01*
X537588Y137391D01*
X537518Y136960D01*
X537438Y136531D01*
X537348Y136104D01*
X537247Y135680D01*
X537136Y135258D01*
X537014Y134839D01*
X536883Y134423D01*
X536741Y134010D01*
X536589Y133601D01*
X536427Y133196D01*
X536255Y132795D01*
X536073Y132398D01*
X535882Y132006D01*
X535681Y131619D01*
X535470Y131236D01*
X535250Y130859D01*
X535021Y130488D01*
X534784Y130122D01*
X534537Y129762D01*
X534281Y129408D01*
X534017Y129061D01*
X533744Y128720D01*
X533463Y128387D01*
X533174Y128060D01*
X532877Y127740D01*
X532572Y127428D01*
X532260Y127123D01*
X531940Y126826D01*
X531613Y126537D01*
X531280Y126256D01*
X530939Y125983D01*
X530592Y125719D01*
X530238Y125463D01*
X529878Y125216D01*
X529512Y124979D01*
X529141Y124750D01*
X528764Y124530D01*
X528381Y124319D01*
X527994Y124118D01*
X527602Y123927D01*
X527205Y123745D01*
X526804Y123573D01*
X526399Y123411D01*
X525990Y123259D01*
X525577Y123117D01*
X525161Y122986D01*
X524742Y122864D01*
X524320Y122753D01*
X523896Y122652D01*
X523469Y122562D01*
X523040Y122482D01*
X522609Y122412D01*
X522176Y122354D01*
X521743Y122306D01*
X521308Y122268D01*
X520872Y122241D01*
X520436Y122225D01*
X520000Y122220D01*
X519564Y122225D01*
X519128Y122241D01*
X518692Y122268D01*
X518257Y122306D01*
X517824Y122354D01*
X517391Y122412D01*
X516960Y122482D01*
X516531Y122562D01*
X516104Y122652D01*
X515680Y122753D01*
X515258Y122864D01*
X514839Y122986D01*
X514423Y123117D01*
X514010Y123259D01*
X513601Y123411D01*
X513196Y123573D01*
X512795Y123745D01*
X512398Y123927D01*
X512006Y124118D01*
X511619Y124319D01*
X511236Y124530D01*
X510859Y124750D01*
X510488Y124979D01*
X510122Y125216D01*
X509762Y125463D01*
X509408Y125719D01*
X509061Y125983D01*
X508720Y126256D01*
X508387Y126537D01*
X508060Y126826D01*
X507740Y127123D01*
X507428Y127428D01*
X507123Y127740D01*
X506826Y128060D01*
X506537Y128387D01*
X506256Y128720D01*
X505983Y129061D01*
X505719Y129408D01*
X505463Y129762D01*
X505216Y130122D01*
X504979Y130488D01*
X504750Y130859D01*
X504530Y131236D01*
X504319Y131619D01*
X504118Y132006D01*
X503927Y132398D01*
X503745Y132795D01*
X503573Y133196D01*
X503411Y133601D01*
X503259Y134010D01*
X503117Y134423D01*
X502986Y134839D01*
X502864Y135258D01*
X502753Y135680D01*
X502652Y136104D01*
X502562Y136531D01*
X502482Y136960D01*
X502412Y137391D01*
X502354Y137824D01*
X502306Y138257D01*
X502268Y138692D01*
X502241Y139128D01*
X502225Y139564D01*
X502220Y140000D01*
X517460Y140000D02*
X517462Y140100D01*
X517468Y140201D01*
X517478Y140300D01*
X517492Y140400D01*
X517509Y140499D01*
X517531Y140597D01*
X517557Y140694D01*
X517586Y140790D01*
X517619Y140884D01*
X517656Y140978D01*
X517696Y141070D01*
X517740Y141160D01*
X517788Y141248D01*
X517839Y141335D01*
X517893Y141419D01*
X517951Y141501D01*
X518012Y141581D01*
X518076Y141658D01*
X518143Y141733D01*
X518213Y141805D01*
X518286Y141874D01*
X518361Y141940D01*
X518439Y142004D01*
X518519Y142064D01*
X518602Y142121D01*
X518687Y142174D01*
X518774Y142224D01*
X518863Y142271D01*
X518953Y142314D01*
X519045Y142354D01*
X519139Y142390D01*
X519234Y142422D01*
X519330Y142450D01*
X519428Y142475D01*
X519526Y142495D01*
X519625Y142512D01*
X519725Y142525D01*
X519824Y142534D01*
X519925Y142539D01*
X520025Y142540D01*
X520125Y142537D01*
X520226Y142530D01*
X520325Y142519D01*
X520425Y142504D01*
X520523Y142486D01*
X520621Y142463D01*
X520718Y142436D01*
X520813Y142406D01*
X520908Y142372D01*
X521001Y142334D01*
X521092Y142293D01*
X521182Y142248D01*
X521270Y142200D01*
X521356Y142148D01*
X521440Y142093D01*
X521521Y142034D01*
X521600Y141972D01*
X521677Y141908D01*
X521751Y141840D01*
X521822Y141769D01*
X521891Y141696D01*
X521956Y141620D01*
X522019Y141541D01*
X522078Y141460D01*
X522134Y141377D01*
X522187Y141292D01*
X522236Y141204D01*
X522282Y141115D01*
X522324Y141024D01*
X522363Y140931D01*
X522398Y140837D01*
X522429Y140742D01*
X522457Y140645D01*
X522480Y140548D01*
X522500Y140449D01*
X522516Y140350D01*
X522528Y140251D01*
X522536Y140150D01*
X522540Y140050D01*
X522540Y139950D01*
X522536Y139850D01*
X522528Y139749D01*
X522516Y139650D01*
X522500Y139551D01*
X522480Y139452D01*
X522457Y139355D01*
X522429Y139258D01*
X522398Y139163D01*
X522363Y139069D01*
X522324Y138976D01*
X522282Y138885D01*
X522236Y138796D01*
X522187Y138708D01*
X522134Y138623D01*
X522078Y138540D01*
X522019Y138459D01*
X521956Y138380D01*
X521891Y138304D01*
X521822Y138231D01*
X521751Y138160D01*
X521677Y138092D01*
X521600Y138028D01*
X521521Y137966D01*
X521440Y137907D01*
X521356Y137852D01*
X521270Y137800D01*
X521182Y137752D01*
X521092Y137707D01*
X521001Y137666D01*
X520908Y137628D01*
X520813Y137594D01*
X520718Y137564D01*
X520621Y137537D01*
X520523Y137514D01*
X520425Y137496D01*
X520325Y137481D01*
X520226Y137470D01*
X520125Y137463D01*
X520025Y137460D01*
X519925Y137461D01*
X519824Y137466D01*
X519725Y137475D01*
X519625Y137488D01*
X519526Y137505D01*
X519428Y137525D01*
X519330Y137550D01*
X519234Y137578D01*
X519139Y137610D01*
X519045Y137646D01*
X518953Y137686D01*
X518863Y137729D01*
X518774Y137776D01*
X518687Y137826D01*
X518602Y137879D01*
X518519Y137936D01*
X518439Y137996D01*
X518361Y138060D01*
X518286Y138126D01*
X518213Y138195D01*
X518143Y138267D01*
X518076Y138342D01*
X518012Y138419D01*
X517951Y138499D01*
X517893Y138581D01*
X517839Y138665D01*
X517788Y138752D01*
X517740Y138840D01*
X517696Y138930D01*
X517656Y139022D01*
X517619Y139116D01*
X517586Y139210D01*
X517557Y139306D01*
X517531Y139403D01*
X517509Y139501D01*
X517492Y139600D01*
X517478Y139700D01*
X517468Y139799D01*
X517462Y139900D01*
X517460Y140000D01*
D11*
X566355Y158796D02*
X566455Y158794D01*
X566554Y158788D01*
X566654Y158778D01*
X566752Y158765D01*
X566851Y158747D01*
X566948Y158726D01*
X567044Y158701D01*
X567140Y158672D01*
X567234Y158639D01*
X567327Y158603D01*
X567418Y158563D01*
X567508Y158519D01*
X567596Y158472D01*
X567682Y158422D01*
X567766Y158368D01*
X567848Y158311D01*
X567927Y158251D01*
X568005Y158187D01*
X568079Y158121D01*
X568151Y158052D01*
X568220Y157980D01*
X568286Y157906D01*
X568350Y157828D01*
X568410Y157749D01*
X568467Y157667D01*
X568521Y157583D01*
X568571Y157497D01*
X568618Y157409D01*
X568662Y157319D01*
X568702Y157228D01*
X568738Y157135D01*
X568771Y157041D01*
X568800Y156945D01*
X568825Y156849D01*
X568846Y156752D01*
X568864Y156653D01*
X568877Y156555D01*
X568887Y156455D01*
X568893Y156356D01*
X568895Y156256D01*
X568893Y156115D01*
X568888Y155974D01*
X568878Y155833D01*
X568865Y155692D01*
X568849Y155552D01*
X568828Y155412D01*
X568804Y155273D01*
X568776Y155134D01*
X568745Y154997D01*
X568710Y154860D01*
X568672Y154724D01*
X568630Y154589D01*
X568584Y154456D01*
X568535Y154323D01*
X568482Y154192D01*
X568426Y154063D01*
X568367Y153934D01*
X568304Y153808D01*
X568238Y153683D01*
X568169Y153560D01*
X568096Y153439D01*
X568020Y153320D01*
X567941Y153202D01*
X567860Y153087D01*
X567775Y152975D01*
X567687Y152864D01*
X567596Y152756D01*
X567503Y152650D01*
X567406Y152547D01*
X567307Y152446D01*
X560005Y152764D02*
X559905Y152766D01*
X559806Y152772D01*
X559706Y152782D01*
X559608Y152795D01*
X559509Y152813D01*
X559412Y152834D01*
X559316Y152859D01*
X559220Y152888D01*
X559126Y152921D01*
X559033Y152957D01*
X558942Y152997D01*
X558852Y153041D01*
X558764Y153088D01*
X558678Y153138D01*
X558594Y153192D01*
X558512Y153249D01*
X558433Y153309D01*
X558355Y153373D01*
X558281Y153439D01*
X558209Y153508D01*
X558140Y153580D01*
X558074Y153654D01*
X558010Y153732D01*
X557950Y153811D01*
X557893Y153893D01*
X557839Y153977D01*
X557789Y154063D01*
X557742Y154151D01*
X557698Y154241D01*
X557658Y154332D01*
X557622Y154425D01*
X557589Y154519D01*
X557560Y154615D01*
X557535Y154711D01*
X557514Y154808D01*
X557496Y154907D01*
X557483Y155005D01*
X557473Y155105D01*
X557467Y155204D01*
X557465Y155304D01*
X557467Y155437D01*
X557472Y155570D01*
X557482Y155703D01*
X557495Y155836D01*
X557512Y155968D01*
X557532Y156100D01*
X557556Y156231D01*
X557584Y156361D01*
X557615Y156491D01*
X557650Y156619D01*
X557689Y156747D01*
X557731Y156873D01*
X557777Y156998D01*
X557826Y157122D01*
X557878Y157245D01*
X557934Y157366D01*
X557994Y157485D01*
X558056Y157603D01*
X558122Y157718D01*
X558191Y157832D01*
X558264Y157944D01*
X558339Y158054D01*
X558418Y158162D01*
X562228Y154033D02*
X562176Y153949D01*
X562121Y153866D01*
X562062Y153786D01*
X562001Y153708D01*
X561937Y153633D01*
X561869Y153560D01*
X561799Y153489D01*
X561727Y153422D01*
X561652Y153357D01*
X561574Y153295D01*
X561494Y153236D01*
X561412Y153180D01*
X561328Y153128D01*
X561242Y153079D01*
X561154Y153033D01*
X561064Y152990D01*
X560973Y152951D01*
X560880Y152916D01*
X560786Y152884D01*
X560691Y152856D01*
X560595Y152831D01*
X560498Y152811D01*
X560400Y152793D01*
X560302Y152780D01*
X560203Y152771D01*
X560104Y152765D01*
X560005Y152763D01*
X564132Y157526D02*
X564184Y157610D01*
X564239Y157693D01*
X564298Y157773D01*
X564359Y157851D01*
X564423Y157926D01*
X564491Y157999D01*
X564561Y158070D01*
X564633Y158137D01*
X564708Y158202D01*
X564786Y158264D01*
X564866Y158323D01*
X564948Y158379D01*
X565032Y158431D01*
X565118Y158480D01*
X565206Y158526D01*
X565296Y158569D01*
X565387Y158608D01*
X565480Y158643D01*
X565574Y158675D01*
X565669Y158703D01*
X565765Y158728D01*
X565862Y158748D01*
X565960Y158766D01*
X566058Y158779D01*
X566157Y158788D01*
X566256Y158794D01*
X566355Y158796D01*
X564133Y157526D02*
X562228Y154034D01*
X557465Y166988D02*
X557467Y167092D01*
X557473Y167197D01*
X557482Y167301D01*
X557495Y167404D01*
X557513Y167507D01*
X557533Y167609D01*
X557558Y167711D01*
X557586Y167811D01*
X557618Y167911D01*
X557654Y168009D01*
X557693Y168106D01*
X557735Y168201D01*
X557781Y168295D01*
X557831Y168387D01*
X557883Y168477D01*
X557939Y168565D01*
X557999Y168651D01*
X558061Y168735D01*
X558126Y168816D01*
X558194Y168895D01*
X558266Y168972D01*
X558339Y169045D01*
X558416Y169117D01*
X558495Y169185D01*
X558576Y169250D01*
X558660Y169312D01*
X558746Y169372D01*
X558834Y169428D01*
X558924Y169480D01*
X559016Y169530D01*
X559110Y169576D01*
X559205Y169618D01*
X559302Y169657D01*
X559400Y169693D01*
X559500Y169725D01*
X559600Y169753D01*
X559702Y169778D01*
X559804Y169798D01*
X559907Y169816D01*
X560010Y169829D01*
X560114Y169838D01*
X560219Y169844D01*
X560323Y169846D01*
X557465Y166988D02*
X557467Y166870D01*
X557473Y166751D01*
X557482Y166633D01*
X557495Y166516D01*
X557513Y166399D01*
X557533Y166282D01*
X557558Y166166D01*
X557586Y166051D01*
X557619Y165938D01*
X557654Y165825D01*
X557694Y165713D01*
X557736Y165603D01*
X557783Y165494D01*
X557833Y165386D01*
X557886Y165281D01*
X557943Y165177D01*
X558003Y165075D01*
X558066Y164975D01*
X558133Y164877D01*
X558202Y164781D01*
X558275Y164688D01*
X558351Y164597D01*
X558429Y164508D01*
X558511Y164422D01*
X558595Y164339D01*
X558681Y164258D01*
X558771Y164181D01*
X558862Y164106D01*
X558956Y164034D01*
X559053Y163965D01*
X559151Y163900D01*
X559252Y163837D01*
X559355Y163778D01*
X559459Y163722D01*
X559565Y163670D01*
X559673Y163621D01*
X559782Y163576D01*
X559893Y163534D01*
X560005Y163496D01*
X562545Y168893D02*
X562470Y168969D01*
X562391Y169044D01*
X562310Y169115D01*
X562226Y169184D01*
X562140Y169249D01*
X562052Y169311D01*
X561962Y169371D01*
X561870Y169427D01*
X561775Y169480D01*
X561679Y169529D01*
X561581Y169575D01*
X561482Y169618D01*
X561381Y169657D01*
X561279Y169692D01*
X561176Y169724D01*
X561072Y169752D01*
X560967Y169777D01*
X560860Y169798D01*
X560754Y169815D01*
X560647Y169828D01*
X560539Y169837D01*
X560431Y169843D01*
X560323Y169845D01*
X562545Y168893D02*
X568895Y163495D01*
X568895Y169845D01*
D12*
X268380Y109520D02*
X268380Y106980D01*
X283620Y106980D01*
X283620Y109520D01*
X283620Y170480D02*
X283620Y173020D01*
X268380Y173020D01*
X268380Y170480D01*
D19*
X303940Y152700D02*
X306480Y152700D01*
X303940Y152700D02*
X303940Y127300D01*
X306480Y127300D01*
X248060Y128570D02*
X248060Y152700D01*
X248060Y128570D02*
X245520Y128570D01*
X245520Y152700D02*
X248060Y152700D01*
D12*
X245520Y152700D02*
X245520Y161590D01*
X306480Y127300D02*
X306480Y118410D01*
X306480Y127300D02*
X306480Y152700D01*
X306480Y161590D01*
X245520Y152700D02*
X245520Y128570D01*
X245520Y118410D01*
X265840Y109520D02*
X268380Y109520D01*
X283620Y109520D02*
X286160Y109520D01*
X268380Y170480D02*
X265840Y170480D01*
X283620Y170480D02*
X286160Y170480D01*
X258220Y140000D02*
X258225Y140436D01*
X258241Y140872D01*
X258268Y141308D01*
X258306Y141743D01*
X258354Y142176D01*
X258412Y142609D01*
X258482Y143040D01*
X258562Y143469D01*
X258652Y143896D01*
X258753Y144320D01*
X258864Y144742D01*
X258986Y145161D01*
X259117Y145577D01*
X259259Y145990D01*
X259411Y146399D01*
X259573Y146804D01*
X259745Y147205D01*
X259927Y147602D01*
X260118Y147994D01*
X260319Y148381D01*
X260530Y148764D01*
X260750Y149141D01*
X260979Y149512D01*
X261216Y149878D01*
X261463Y150238D01*
X261719Y150592D01*
X261983Y150939D01*
X262256Y151280D01*
X262537Y151613D01*
X262826Y151940D01*
X263123Y152260D01*
X263428Y152572D01*
X263740Y152877D01*
X264060Y153174D01*
X264387Y153463D01*
X264720Y153744D01*
X265061Y154017D01*
X265408Y154281D01*
X265762Y154537D01*
X266122Y154784D01*
X266488Y155021D01*
X266859Y155250D01*
X267236Y155470D01*
X267619Y155681D01*
X268006Y155882D01*
X268398Y156073D01*
X268795Y156255D01*
X269196Y156427D01*
X269601Y156589D01*
X270010Y156741D01*
X270423Y156883D01*
X270839Y157014D01*
X271258Y157136D01*
X271680Y157247D01*
X272104Y157348D01*
X272531Y157438D01*
X272960Y157518D01*
X273391Y157588D01*
X273824Y157646D01*
X274257Y157694D01*
X274692Y157732D01*
X275128Y157759D01*
X275564Y157775D01*
X276000Y157780D01*
X276436Y157775D01*
X276872Y157759D01*
X277308Y157732D01*
X277743Y157694D01*
X278176Y157646D01*
X278609Y157588D01*
X279040Y157518D01*
X279469Y157438D01*
X279896Y157348D01*
X280320Y157247D01*
X280742Y157136D01*
X281161Y157014D01*
X281577Y156883D01*
X281990Y156741D01*
X282399Y156589D01*
X282804Y156427D01*
X283205Y156255D01*
X283602Y156073D01*
X283994Y155882D01*
X284381Y155681D01*
X284764Y155470D01*
X285141Y155250D01*
X285512Y155021D01*
X285878Y154784D01*
X286238Y154537D01*
X286592Y154281D01*
X286939Y154017D01*
X287280Y153744D01*
X287613Y153463D01*
X287940Y153174D01*
X288260Y152877D01*
X288572Y152572D01*
X288877Y152260D01*
X289174Y151940D01*
X289463Y151613D01*
X289744Y151280D01*
X290017Y150939D01*
X290281Y150592D01*
X290537Y150238D01*
X290784Y149878D01*
X291021Y149512D01*
X291250Y149141D01*
X291470Y148764D01*
X291681Y148381D01*
X291882Y147994D01*
X292073Y147602D01*
X292255Y147205D01*
X292427Y146804D01*
X292589Y146399D01*
X292741Y145990D01*
X292883Y145577D01*
X293014Y145161D01*
X293136Y144742D01*
X293247Y144320D01*
X293348Y143896D01*
X293438Y143469D01*
X293518Y143040D01*
X293588Y142609D01*
X293646Y142176D01*
X293694Y141743D01*
X293732Y141308D01*
X293759Y140872D01*
X293775Y140436D01*
X293780Y140000D01*
X293775Y139564D01*
X293759Y139128D01*
X293732Y138692D01*
X293694Y138257D01*
X293646Y137824D01*
X293588Y137391D01*
X293518Y136960D01*
X293438Y136531D01*
X293348Y136104D01*
X293247Y135680D01*
X293136Y135258D01*
X293014Y134839D01*
X292883Y134423D01*
X292741Y134010D01*
X292589Y133601D01*
X292427Y133196D01*
X292255Y132795D01*
X292073Y132398D01*
X291882Y132006D01*
X291681Y131619D01*
X291470Y131236D01*
X291250Y130859D01*
X291021Y130488D01*
X290784Y130122D01*
X290537Y129762D01*
X290281Y129408D01*
X290017Y129061D01*
X289744Y128720D01*
X289463Y128387D01*
X289174Y128060D01*
X288877Y127740D01*
X288572Y127428D01*
X288260Y127123D01*
X287940Y126826D01*
X287613Y126537D01*
X287280Y126256D01*
X286939Y125983D01*
X286592Y125719D01*
X286238Y125463D01*
X285878Y125216D01*
X285512Y124979D01*
X285141Y124750D01*
X284764Y124530D01*
X284381Y124319D01*
X283994Y124118D01*
X283602Y123927D01*
X283205Y123745D01*
X282804Y123573D01*
X282399Y123411D01*
X281990Y123259D01*
X281577Y123117D01*
X281161Y122986D01*
X280742Y122864D01*
X280320Y122753D01*
X279896Y122652D01*
X279469Y122562D01*
X279040Y122482D01*
X278609Y122412D01*
X278176Y122354D01*
X277743Y122306D01*
X277308Y122268D01*
X276872Y122241D01*
X276436Y122225D01*
X276000Y122220D01*
X275564Y122225D01*
X275128Y122241D01*
X274692Y122268D01*
X274257Y122306D01*
X273824Y122354D01*
X273391Y122412D01*
X272960Y122482D01*
X272531Y122562D01*
X272104Y122652D01*
X271680Y122753D01*
X271258Y122864D01*
X270839Y122986D01*
X270423Y123117D01*
X270010Y123259D01*
X269601Y123411D01*
X269196Y123573D01*
X268795Y123745D01*
X268398Y123927D01*
X268006Y124118D01*
X267619Y124319D01*
X267236Y124530D01*
X266859Y124750D01*
X266488Y124979D01*
X266122Y125216D01*
X265762Y125463D01*
X265408Y125719D01*
X265061Y125983D01*
X264720Y126256D01*
X264387Y126537D01*
X264060Y126826D01*
X263740Y127123D01*
X263428Y127428D01*
X263123Y127740D01*
X262826Y128060D01*
X262537Y128387D01*
X262256Y128720D01*
X261983Y129061D01*
X261719Y129408D01*
X261463Y129762D01*
X261216Y130122D01*
X260979Y130488D01*
X260750Y130859D01*
X260530Y131236D01*
X260319Y131619D01*
X260118Y132006D01*
X259927Y132398D01*
X259745Y132795D01*
X259573Y133196D01*
X259411Y133601D01*
X259259Y134010D01*
X259117Y134423D01*
X258986Y134839D01*
X258864Y135258D01*
X258753Y135680D01*
X258652Y136104D01*
X258562Y136531D01*
X258482Y136960D01*
X258412Y137391D01*
X258354Y137824D01*
X258306Y138257D01*
X258268Y138692D01*
X258241Y139128D01*
X258225Y139564D01*
X258220Y140000D01*
X273460Y140000D02*
X273462Y140100D01*
X273468Y140201D01*
X273478Y140300D01*
X273492Y140400D01*
X273509Y140499D01*
X273531Y140597D01*
X273557Y140694D01*
X273586Y140790D01*
X273619Y140884D01*
X273656Y140978D01*
X273696Y141070D01*
X273740Y141160D01*
X273788Y141248D01*
X273839Y141335D01*
X273893Y141419D01*
X273951Y141501D01*
X274012Y141581D01*
X274076Y141658D01*
X274143Y141733D01*
X274213Y141805D01*
X274286Y141874D01*
X274361Y141940D01*
X274439Y142004D01*
X274519Y142064D01*
X274602Y142121D01*
X274687Y142174D01*
X274774Y142224D01*
X274863Y142271D01*
X274953Y142314D01*
X275045Y142354D01*
X275139Y142390D01*
X275234Y142422D01*
X275330Y142450D01*
X275428Y142475D01*
X275526Y142495D01*
X275625Y142512D01*
X275725Y142525D01*
X275824Y142534D01*
X275925Y142539D01*
X276025Y142540D01*
X276125Y142537D01*
X276226Y142530D01*
X276325Y142519D01*
X276425Y142504D01*
X276523Y142486D01*
X276621Y142463D01*
X276718Y142436D01*
X276813Y142406D01*
X276908Y142372D01*
X277001Y142334D01*
X277092Y142293D01*
X277182Y142248D01*
X277270Y142200D01*
X277356Y142148D01*
X277440Y142093D01*
X277521Y142034D01*
X277600Y141972D01*
X277677Y141908D01*
X277751Y141840D01*
X277822Y141769D01*
X277891Y141696D01*
X277956Y141620D01*
X278019Y141541D01*
X278078Y141460D01*
X278134Y141377D01*
X278187Y141292D01*
X278236Y141204D01*
X278282Y141115D01*
X278324Y141024D01*
X278363Y140931D01*
X278398Y140837D01*
X278429Y140742D01*
X278457Y140645D01*
X278480Y140548D01*
X278500Y140449D01*
X278516Y140350D01*
X278528Y140251D01*
X278536Y140150D01*
X278540Y140050D01*
X278540Y139950D01*
X278536Y139850D01*
X278528Y139749D01*
X278516Y139650D01*
X278500Y139551D01*
X278480Y139452D01*
X278457Y139355D01*
X278429Y139258D01*
X278398Y139163D01*
X278363Y139069D01*
X278324Y138976D01*
X278282Y138885D01*
X278236Y138796D01*
X278187Y138708D01*
X278134Y138623D01*
X278078Y138540D01*
X278019Y138459D01*
X277956Y138380D01*
X277891Y138304D01*
X277822Y138231D01*
X277751Y138160D01*
X277677Y138092D01*
X277600Y138028D01*
X277521Y137966D01*
X277440Y137907D01*
X277356Y137852D01*
X277270Y137800D01*
X277182Y137752D01*
X277092Y137707D01*
X277001Y137666D01*
X276908Y137628D01*
X276813Y137594D01*
X276718Y137564D01*
X276621Y137537D01*
X276523Y137514D01*
X276425Y137496D01*
X276325Y137481D01*
X276226Y137470D01*
X276125Y137463D01*
X276025Y137460D01*
X275925Y137461D01*
X275824Y137466D01*
X275725Y137475D01*
X275625Y137488D01*
X275526Y137505D01*
X275428Y137525D01*
X275330Y137550D01*
X275234Y137578D01*
X275139Y137610D01*
X275045Y137646D01*
X274953Y137686D01*
X274863Y137729D01*
X274774Y137776D01*
X274687Y137826D01*
X274602Y137879D01*
X274519Y137936D01*
X274439Y137996D01*
X274361Y138060D01*
X274286Y138126D01*
X274213Y138195D01*
X274143Y138267D01*
X274076Y138342D01*
X274012Y138419D01*
X273951Y138499D01*
X273893Y138581D01*
X273839Y138665D01*
X273788Y138752D01*
X273740Y138840D01*
X273696Y138930D01*
X273656Y139022D01*
X273619Y139116D01*
X273586Y139210D01*
X273557Y139306D01*
X273531Y139403D01*
X273509Y139501D01*
X273492Y139600D01*
X273478Y139700D01*
X273468Y139799D01*
X273462Y139900D01*
X273460Y140000D01*
D11*
X313465Y142242D02*
X324895Y142242D01*
X313465Y142242D02*
X313465Y145417D01*
X313467Y145528D01*
X313473Y145638D01*
X313482Y145749D01*
X313496Y145859D01*
X313513Y145968D01*
X313534Y146077D01*
X313559Y146185D01*
X313588Y146292D01*
X313620Y146398D01*
X313656Y146503D01*
X313696Y146606D01*
X313739Y146708D01*
X313786Y146809D01*
X313837Y146908D01*
X313890Y147005D01*
X313947Y147099D01*
X314008Y147192D01*
X314071Y147283D01*
X314138Y147372D01*
X314208Y147458D01*
X314281Y147541D01*
X314356Y147623D01*
X314434Y147701D01*
X314516Y147776D01*
X314599Y147849D01*
X314685Y147919D01*
X314774Y147986D01*
X314865Y148049D01*
X314958Y148110D01*
X315053Y148167D01*
X315149Y148220D01*
X315248Y148271D01*
X315349Y148318D01*
X315451Y148361D01*
X315554Y148401D01*
X315659Y148437D01*
X315765Y148469D01*
X315872Y148498D01*
X315980Y148523D01*
X316089Y148544D01*
X316198Y148561D01*
X316308Y148575D01*
X316419Y148584D01*
X316529Y148590D01*
X316640Y148592D01*
X316751Y148590D01*
X316861Y148584D01*
X316972Y148575D01*
X317082Y148561D01*
X317191Y148544D01*
X317300Y148523D01*
X317408Y148498D01*
X317515Y148469D01*
X317621Y148437D01*
X317726Y148401D01*
X317829Y148361D01*
X317931Y148318D01*
X318032Y148271D01*
X318131Y148220D01*
X318228Y148167D01*
X318322Y148110D01*
X318415Y148049D01*
X318506Y147986D01*
X318595Y147919D01*
X318681Y147849D01*
X318764Y147776D01*
X318846Y147701D01*
X318924Y147623D01*
X318999Y147541D01*
X319072Y147458D01*
X319142Y147372D01*
X319209Y147283D01*
X319272Y147192D01*
X319333Y147099D01*
X319390Y147005D01*
X319443Y146908D01*
X319494Y146809D01*
X319541Y146708D01*
X319584Y146606D01*
X319624Y146503D01*
X319660Y146398D01*
X319692Y146292D01*
X319721Y146185D01*
X319746Y146077D01*
X319767Y145968D01*
X319784Y145859D01*
X319798Y145749D01*
X319807Y145638D01*
X319813Y145528D01*
X319815Y145417D01*
X319815Y142242D01*
X319815Y146052D02*
X324895Y148592D01*
X324895Y157018D02*
X324893Y157118D01*
X324887Y157217D01*
X324877Y157317D01*
X324864Y157415D01*
X324846Y157514D01*
X324825Y157611D01*
X324800Y157707D01*
X324771Y157803D01*
X324738Y157897D01*
X324702Y157990D01*
X324662Y158081D01*
X324618Y158171D01*
X324571Y158259D01*
X324521Y158345D01*
X324467Y158429D01*
X324410Y158511D01*
X324350Y158590D01*
X324286Y158668D01*
X324220Y158742D01*
X324151Y158814D01*
X324079Y158883D01*
X324005Y158949D01*
X323927Y159013D01*
X323848Y159073D01*
X323766Y159130D01*
X323682Y159184D01*
X323596Y159234D01*
X323508Y159281D01*
X323418Y159325D01*
X323327Y159365D01*
X323234Y159401D01*
X323140Y159434D01*
X323044Y159463D01*
X322948Y159488D01*
X322851Y159509D01*
X322752Y159527D01*
X322654Y159540D01*
X322554Y159550D01*
X322455Y159556D01*
X322355Y159558D01*
X324895Y157018D02*
X324893Y156877D01*
X324888Y156736D01*
X324878Y156595D01*
X324865Y156454D01*
X324849Y156314D01*
X324828Y156174D01*
X324804Y156035D01*
X324776Y155896D01*
X324745Y155759D01*
X324710Y155622D01*
X324672Y155486D01*
X324630Y155351D01*
X324584Y155218D01*
X324535Y155085D01*
X324482Y154954D01*
X324426Y154825D01*
X324367Y154696D01*
X324304Y154570D01*
X324238Y154445D01*
X324169Y154322D01*
X324096Y154201D01*
X324020Y154082D01*
X323941Y153964D01*
X323860Y153849D01*
X323775Y153737D01*
X323687Y153626D01*
X323596Y153518D01*
X323503Y153412D01*
X323406Y153309D01*
X323307Y153208D01*
X316005Y153526D02*
X315905Y153528D01*
X315806Y153534D01*
X315706Y153544D01*
X315608Y153557D01*
X315509Y153575D01*
X315412Y153596D01*
X315316Y153621D01*
X315220Y153650D01*
X315126Y153683D01*
X315033Y153719D01*
X314942Y153759D01*
X314852Y153803D01*
X314764Y153850D01*
X314678Y153900D01*
X314594Y153954D01*
X314512Y154011D01*
X314433Y154071D01*
X314355Y154135D01*
X314281Y154201D01*
X314209Y154270D01*
X314140Y154342D01*
X314074Y154416D01*
X314010Y154494D01*
X313950Y154573D01*
X313893Y154655D01*
X313839Y154739D01*
X313789Y154825D01*
X313742Y154913D01*
X313698Y155003D01*
X313658Y155094D01*
X313622Y155187D01*
X313589Y155281D01*
X313560Y155377D01*
X313535Y155473D01*
X313514Y155570D01*
X313496Y155669D01*
X313483Y155767D01*
X313473Y155867D01*
X313467Y155966D01*
X313465Y156066D01*
X313467Y156199D01*
X313472Y156332D01*
X313482Y156465D01*
X313495Y156598D01*
X313512Y156730D01*
X313532Y156862D01*
X313556Y156993D01*
X313584Y157123D01*
X313615Y157253D01*
X313650Y157381D01*
X313689Y157509D01*
X313731Y157635D01*
X313777Y157760D01*
X313826Y157884D01*
X313878Y158007D01*
X313934Y158128D01*
X313994Y158247D01*
X314056Y158365D01*
X314122Y158480D01*
X314191Y158594D01*
X314264Y158706D01*
X314339Y158816D01*
X314418Y158924D01*
X318228Y154795D02*
X318176Y154711D01*
X318121Y154628D01*
X318062Y154548D01*
X318001Y154470D01*
X317937Y154395D01*
X317869Y154322D01*
X317799Y154251D01*
X317727Y154184D01*
X317652Y154119D01*
X317574Y154057D01*
X317494Y153998D01*
X317412Y153942D01*
X317328Y153890D01*
X317242Y153841D01*
X317154Y153795D01*
X317064Y153752D01*
X316973Y153713D01*
X316880Y153678D01*
X316786Y153646D01*
X316691Y153618D01*
X316595Y153593D01*
X316498Y153573D01*
X316400Y153555D01*
X316302Y153542D01*
X316203Y153533D01*
X316104Y153527D01*
X316005Y153525D01*
X320132Y158288D02*
X320184Y158372D01*
X320239Y158455D01*
X320298Y158535D01*
X320359Y158613D01*
X320423Y158688D01*
X320491Y158761D01*
X320561Y158832D01*
X320633Y158899D01*
X320708Y158964D01*
X320786Y159026D01*
X320866Y159085D01*
X320948Y159141D01*
X321032Y159193D01*
X321118Y159242D01*
X321206Y159288D01*
X321296Y159331D01*
X321387Y159370D01*
X321480Y159405D01*
X321574Y159437D01*
X321669Y159465D01*
X321765Y159490D01*
X321862Y159510D01*
X321960Y159528D01*
X322058Y159541D01*
X322157Y159550D01*
X322256Y159556D01*
X322355Y159558D01*
X320133Y158288D02*
X318228Y154796D01*
X313465Y166670D02*
X324895Y166670D01*
X313465Y163495D02*
X313465Y169845D01*
D14*
X910590Y642366D02*
X943610Y642366D01*
X943610Y576834D01*
X910590Y576834D01*
X910590Y642366D01*
D20*
X880830Y601472D02*
X878078Y601472D01*
X880830Y601472D02*
X880894Y601474D01*
X880958Y601480D01*
X881021Y601489D01*
X881083Y601503D01*
X881145Y601520D01*
X881205Y601541D01*
X881264Y601565D01*
X881322Y601593D01*
X881377Y601625D01*
X881431Y601659D01*
X881482Y601697D01*
X881532Y601738D01*
X881578Y601782D01*
X881622Y601828D01*
X881663Y601878D01*
X881701Y601929D01*
X881735Y601983D01*
X881767Y602038D01*
X881795Y602096D01*
X881819Y602155D01*
X881840Y602215D01*
X881857Y602277D01*
X881871Y602339D01*
X881880Y602402D01*
X881886Y602466D01*
X881888Y602530D01*
X881886Y602594D01*
X881880Y602658D01*
X881871Y602721D01*
X881857Y602783D01*
X881840Y602845D01*
X881819Y602905D01*
X881795Y602964D01*
X881767Y603022D01*
X881735Y603077D01*
X881701Y603131D01*
X881663Y603182D01*
X881622Y603232D01*
X881578Y603278D01*
X881532Y603322D01*
X881482Y603363D01*
X881431Y603401D01*
X881377Y603435D01*
X881322Y603467D01*
X881264Y603495D01*
X881205Y603519D01*
X881145Y603540D01*
X881083Y603557D01*
X881021Y603571D01*
X880958Y603580D01*
X880894Y603586D01*
X880830Y603588D01*
X880830Y603589D02*
X878078Y603589D01*
X878925Y605252D02*
X878078Y606310D01*
X881888Y606310D01*
X881888Y605252D02*
X881888Y607368D01*
D11*
X253500Y676000D02*
X253500Y744000D01*
X253500Y676000D02*
X201500Y676000D01*
X201500Y744000D01*
X253500Y744000D01*
D12*
X279480Y402550D02*
X279480Y237450D01*
X273130Y231100D02*
X224870Y231100D01*
X224870Y408900D02*
X273130Y408900D01*
X218520Y402550D02*
X218520Y237450D01*
X279480Y402550D02*
X279478Y402708D01*
X279472Y402867D01*
X279462Y403025D01*
X279448Y403182D01*
X279431Y403340D01*
X279409Y403496D01*
X279384Y403653D01*
X279354Y403808D01*
X279321Y403963D01*
X279284Y404117D01*
X279243Y404270D01*
X279198Y404422D01*
X279149Y404572D01*
X279097Y404722D01*
X279041Y404870D01*
X278981Y405017D01*
X278918Y405162D01*
X278851Y405305D01*
X278781Y405447D01*
X278707Y405587D01*
X278629Y405725D01*
X278548Y405861D01*
X278464Y405995D01*
X278377Y406127D01*
X278286Y406257D01*
X278192Y406384D01*
X278095Y406509D01*
X277994Y406632D01*
X277891Y406752D01*
X277785Y406869D01*
X277676Y406984D01*
X277564Y407096D01*
X277449Y407205D01*
X277332Y407311D01*
X277212Y407414D01*
X277089Y407515D01*
X276964Y407612D01*
X276837Y407706D01*
X276707Y407797D01*
X276575Y407884D01*
X276441Y407968D01*
X276305Y408049D01*
X276167Y408127D01*
X276027Y408201D01*
X275885Y408271D01*
X275742Y408338D01*
X275597Y408401D01*
X275450Y408461D01*
X275302Y408517D01*
X275152Y408569D01*
X275002Y408618D01*
X274850Y408663D01*
X274697Y408704D01*
X274543Y408741D01*
X274388Y408774D01*
X274233Y408804D01*
X274076Y408829D01*
X273920Y408851D01*
X273762Y408868D01*
X273605Y408882D01*
X273447Y408892D01*
X273288Y408898D01*
X273130Y408900D01*
X279480Y237450D02*
X279478Y237292D01*
X279472Y237133D01*
X279462Y236975D01*
X279448Y236818D01*
X279431Y236660D01*
X279409Y236504D01*
X279384Y236347D01*
X279354Y236192D01*
X279321Y236037D01*
X279284Y235883D01*
X279243Y235730D01*
X279198Y235578D01*
X279149Y235428D01*
X279097Y235278D01*
X279041Y235130D01*
X278981Y234983D01*
X278918Y234838D01*
X278851Y234695D01*
X278781Y234553D01*
X278707Y234413D01*
X278629Y234275D01*
X278548Y234139D01*
X278464Y234005D01*
X278377Y233873D01*
X278286Y233743D01*
X278192Y233616D01*
X278095Y233491D01*
X277994Y233368D01*
X277891Y233248D01*
X277785Y233131D01*
X277676Y233016D01*
X277564Y232904D01*
X277449Y232795D01*
X277332Y232689D01*
X277212Y232586D01*
X277089Y232485D01*
X276964Y232388D01*
X276837Y232294D01*
X276707Y232203D01*
X276575Y232116D01*
X276441Y232032D01*
X276305Y231951D01*
X276167Y231873D01*
X276027Y231799D01*
X275885Y231729D01*
X275742Y231662D01*
X275597Y231599D01*
X275450Y231539D01*
X275302Y231483D01*
X275152Y231431D01*
X275002Y231382D01*
X274850Y231337D01*
X274697Y231296D01*
X274543Y231259D01*
X274388Y231226D01*
X274233Y231196D01*
X274076Y231171D01*
X273920Y231149D01*
X273762Y231132D01*
X273605Y231118D01*
X273447Y231108D01*
X273288Y231102D01*
X273130Y231100D01*
X224870Y231100D02*
X224712Y231102D01*
X224553Y231108D01*
X224395Y231118D01*
X224238Y231132D01*
X224080Y231149D01*
X223924Y231171D01*
X223767Y231196D01*
X223612Y231226D01*
X223457Y231259D01*
X223303Y231296D01*
X223150Y231337D01*
X222998Y231382D01*
X222848Y231431D01*
X222698Y231483D01*
X222550Y231539D01*
X222403Y231599D01*
X222258Y231662D01*
X222115Y231729D01*
X221973Y231799D01*
X221833Y231873D01*
X221695Y231951D01*
X221559Y232032D01*
X221425Y232116D01*
X221293Y232203D01*
X221163Y232294D01*
X221036Y232388D01*
X220911Y232485D01*
X220788Y232586D01*
X220668Y232689D01*
X220551Y232795D01*
X220436Y232904D01*
X220324Y233016D01*
X220215Y233131D01*
X220109Y233248D01*
X220006Y233368D01*
X219905Y233491D01*
X219808Y233616D01*
X219714Y233743D01*
X219623Y233873D01*
X219536Y234005D01*
X219452Y234139D01*
X219371Y234275D01*
X219293Y234413D01*
X219219Y234553D01*
X219149Y234695D01*
X219082Y234838D01*
X219019Y234983D01*
X218959Y235130D01*
X218903Y235278D01*
X218851Y235428D01*
X218802Y235578D01*
X218757Y235730D01*
X218716Y235883D01*
X218679Y236037D01*
X218646Y236192D01*
X218616Y236347D01*
X218591Y236504D01*
X218569Y236660D01*
X218552Y236818D01*
X218538Y236975D01*
X218528Y237133D01*
X218522Y237292D01*
X218520Y237450D01*
X218520Y402550D02*
X218522Y402708D01*
X218528Y402867D01*
X218538Y403025D01*
X218552Y403182D01*
X218569Y403340D01*
X218591Y403496D01*
X218616Y403653D01*
X218646Y403808D01*
X218679Y403963D01*
X218716Y404117D01*
X218757Y404270D01*
X218802Y404422D01*
X218851Y404572D01*
X218903Y404722D01*
X218959Y404870D01*
X219019Y405017D01*
X219082Y405162D01*
X219149Y405305D01*
X219219Y405447D01*
X219293Y405587D01*
X219371Y405725D01*
X219452Y405861D01*
X219536Y405995D01*
X219623Y406127D01*
X219714Y406257D01*
X219808Y406384D01*
X219905Y406509D01*
X220006Y406632D01*
X220109Y406752D01*
X220215Y406869D01*
X220324Y406984D01*
X220436Y407096D01*
X220551Y407205D01*
X220668Y407311D01*
X220788Y407414D01*
X220911Y407515D01*
X221036Y407612D01*
X221163Y407706D01*
X221293Y407797D01*
X221425Y407884D01*
X221559Y407968D01*
X221695Y408049D01*
X221833Y408127D01*
X221973Y408201D01*
X222115Y408271D01*
X222258Y408338D01*
X222403Y408401D01*
X222550Y408461D01*
X222698Y408517D01*
X222848Y408569D01*
X222998Y408618D01*
X223150Y408663D01*
X223303Y408704D01*
X223457Y408741D01*
X223612Y408774D01*
X223767Y408804D01*
X223924Y408829D01*
X224080Y408851D01*
X224238Y408868D01*
X224395Y408882D01*
X224553Y408892D01*
X224712Y408898D01*
X224870Y408900D01*
D11*
X283925Y396200D02*
X286465Y393025D01*
X283925Y396200D02*
X295355Y396200D01*
X295355Y393025D02*
X295355Y399375D01*
X202645Y237450D02*
X205185Y234275D01*
X202645Y237450D02*
X214075Y237450D01*
X214075Y234275D02*
X214075Y240625D01*
X211535Y245705D02*
X202645Y248245D01*
X211535Y245705D02*
X211535Y252055D01*
X208995Y250150D02*
X214075Y250150D01*
X295355Y345146D02*
X295353Y345246D01*
X295347Y345345D01*
X295337Y345445D01*
X295324Y345543D01*
X295306Y345642D01*
X295285Y345739D01*
X295260Y345835D01*
X295231Y345931D01*
X295198Y346025D01*
X295162Y346118D01*
X295122Y346209D01*
X295078Y346299D01*
X295031Y346387D01*
X294981Y346473D01*
X294927Y346557D01*
X294870Y346639D01*
X294810Y346718D01*
X294746Y346796D01*
X294680Y346870D01*
X294611Y346942D01*
X294539Y347011D01*
X294465Y347077D01*
X294387Y347141D01*
X294308Y347201D01*
X294226Y347258D01*
X294142Y347312D01*
X294056Y347362D01*
X293968Y347409D01*
X293878Y347453D01*
X293787Y347493D01*
X293694Y347529D01*
X293600Y347562D01*
X293504Y347591D01*
X293408Y347616D01*
X293311Y347637D01*
X293212Y347655D01*
X293114Y347668D01*
X293014Y347678D01*
X292915Y347684D01*
X292815Y347686D01*
X295355Y345146D02*
X295353Y345005D01*
X295348Y344864D01*
X295338Y344723D01*
X295325Y344582D01*
X295309Y344442D01*
X295288Y344302D01*
X295264Y344163D01*
X295236Y344024D01*
X295205Y343887D01*
X295170Y343750D01*
X295132Y343614D01*
X295090Y343479D01*
X295044Y343346D01*
X294995Y343213D01*
X294942Y343082D01*
X294886Y342953D01*
X294827Y342824D01*
X294764Y342698D01*
X294698Y342573D01*
X294629Y342450D01*
X294556Y342329D01*
X294480Y342210D01*
X294401Y342092D01*
X294320Y341977D01*
X294235Y341865D01*
X294147Y341754D01*
X294056Y341646D01*
X293963Y341540D01*
X293866Y341437D01*
X293767Y341336D01*
X286465Y341654D02*
X286365Y341656D01*
X286266Y341662D01*
X286166Y341672D01*
X286068Y341685D01*
X285969Y341703D01*
X285872Y341724D01*
X285776Y341749D01*
X285680Y341778D01*
X285586Y341811D01*
X285493Y341847D01*
X285402Y341887D01*
X285312Y341931D01*
X285224Y341978D01*
X285138Y342028D01*
X285054Y342082D01*
X284972Y342139D01*
X284893Y342199D01*
X284815Y342263D01*
X284741Y342329D01*
X284669Y342398D01*
X284600Y342470D01*
X284534Y342544D01*
X284470Y342622D01*
X284410Y342701D01*
X284353Y342783D01*
X284299Y342867D01*
X284249Y342953D01*
X284202Y343041D01*
X284158Y343131D01*
X284118Y343222D01*
X284082Y343315D01*
X284049Y343409D01*
X284020Y343505D01*
X283995Y343601D01*
X283974Y343698D01*
X283956Y343797D01*
X283943Y343895D01*
X283933Y343995D01*
X283927Y344094D01*
X283925Y344194D01*
X283927Y344327D01*
X283932Y344460D01*
X283942Y344593D01*
X283955Y344726D01*
X283972Y344858D01*
X283992Y344990D01*
X284016Y345121D01*
X284044Y345251D01*
X284075Y345381D01*
X284110Y345509D01*
X284149Y345637D01*
X284191Y345763D01*
X284237Y345888D01*
X284286Y346012D01*
X284338Y346135D01*
X284394Y346256D01*
X284454Y346375D01*
X284516Y346493D01*
X284582Y346608D01*
X284651Y346722D01*
X284724Y346834D01*
X284799Y346944D01*
X284878Y347052D01*
X288688Y342923D02*
X288636Y342839D01*
X288581Y342756D01*
X288522Y342676D01*
X288461Y342598D01*
X288397Y342523D01*
X288329Y342450D01*
X288259Y342379D01*
X288187Y342312D01*
X288112Y342247D01*
X288034Y342185D01*
X287954Y342126D01*
X287872Y342070D01*
X287788Y342018D01*
X287702Y341969D01*
X287614Y341923D01*
X287524Y341880D01*
X287433Y341841D01*
X287340Y341806D01*
X287246Y341774D01*
X287151Y341746D01*
X287055Y341721D01*
X286958Y341701D01*
X286860Y341683D01*
X286762Y341670D01*
X286663Y341661D01*
X286564Y341655D01*
X286465Y341653D01*
X290592Y346416D02*
X290644Y346500D01*
X290699Y346583D01*
X290758Y346663D01*
X290819Y346741D01*
X290883Y346816D01*
X290951Y346889D01*
X291021Y346960D01*
X291093Y347027D01*
X291168Y347092D01*
X291246Y347154D01*
X291326Y347213D01*
X291408Y347269D01*
X291492Y347321D01*
X291578Y347370D01*
X291666Y347416D01*
X291756Y347459D01*
X291847Y347498D01*
X291940Y347533D01*
X292034Y347565D01*
X292129Y347593D01*
X292225Y347618D01*
X292322Y347638D01*
X292420Y347656D01*
X292518Y347669D01*
X292617Y347678D01*
X292716Y347684D01*
X292815Y347686D01*
X290593Y346416D02*
X288688Y342924D01*
X283925Y351750D02*
X295355Y355560D01*
X283925Y359370D01*
X283925Y367308D02*
X283927Y367412D01*
X283933Y367517D01*
X283942Y367621D01*
X283955Y367724D01*
X283973Y367827D01*
X283993Y367929D01*
X284018Y368031D01*
X284046Y368131D01*
X284078Y368231D01*
X284114Y368329D01*
X284153Y368426D01*
X284195Y368521D01*
X284241Y368615D01*
X284291Y368707D01*
X284343Y368797D01*
X284399Y368885D01*
X284459Y368971D01*
X284521Y369055D01*
X284586Y369136D01*
X284654Y369215D01*
X284726Y369292D01*
X284799Y369365D01*
X284876Y369437D01*
X284955Y369505D01*
X285036Y369570D01*
X285120Y369632D01*
X285206Y369692D01*
X285294Y369748D01*
X285384Y369800D01*
X285476Y369850D01*
X285570Y369896D01*
X285665Y369938D01*
X285762Y369977D01*
X285860Y370013D01*
X285960Y370045D01*
X286060Y370073D01*
X286162Y370098D01*
X286264Y370118D01*
X286367Y370136D01*
X286470Y370149D01*
X286574Y370158D01*
X286679Y370164D01*
X286783Y370166D01*
X283925Y367308D02*
X283927Y367190D01*
X283933Y367071D01*
X283942Y366953D01*
X283955Y366836D01*
X283973Y366719D01*
X283993Y366602D01*
X284018Y366486D01*
X284046Y366371D01*
X284079Y366258D01*
X284114Y366145D01*
X284154Y366033D01*
X284196Y365923D01*
X284243Y365814D01*
X284293Y365706D01*
X284346Y365601D01*
X284403Y365497D01*
X284463Y365395D01*
X284526Y365295D01*
X284593Y365197D01*
X284662Y365101D01*
X284735Y365008D01*
X284811Y364917D01*
X284889Y364828D01*
X284971Y364742D01*
X285055Y364659D01*
X285141Y364578D01*
X285231Y364501D01*
X285322Y364426D01*
X285416Y364354D01*
X285513Y364285D01*
X285611Y364220D01*
X285712Y364157D01*
X285815Y364098D01*
X285919Y364042D01*
X286025Y363990D01*
X286133Y363941D01*
X286242Y363896D01*
X286353Y363854D01*
X286465Y363816D01*
X289005Y369213D02*
X288930Y369289D01*
X288851Y369364D01*
X288770Y369435D01*
X288686Y369504D01*
X288600Y369569D01*
X288512Y369631D01*
X288422Y369691D01*
X288330Y369747D01*
X288235Y369800D01*
X288139Y369849D01*
X288041Y369895D01*
X287942Y369938D01*
X287841Y369977D01*
X287739Y370012D01*
X287636Y370044D01*
X287532Y370072D01*
X287427Y370097D01*
X287320Y370118D01*
X287214Y370135D01*
X287107Y370148D01*
X286999Y370157D01*
X286891Y370163D01*
X286783Y370165D01*
X289005Y369213D02*
X295355Y363815D01*
X295355Y370165D01*
D17*
X433695Y477000D02*
X434305Y477000D01*
D20*
X444922Y481436D02*
X444922Y482282D01*
X444922Y481436D02*
X444920Y481378D01*
X444914Y481321D01*
X444904Y481264D01*
X444891Y481207D01*
X444873Y481152D01*
X444852Y481099D01*
X444827Y481046D01*
X444799Y480996D01*
X444767Y480948D01*
X444732Y480901D01*
X444694Y480858D01*
X444653Y480817D01*
X444610Y480779D01*
X444563Y480744D01*
X444515Y480712D01*
X444465Y480684D01*
X444412Y480659D01*
X444359Y480638D01*
X444304Y480620D01*
X444247Y480607D01*
X444190Y480597D01*
X444133Y480591D01*
X444075Y480589D01*
X441959Y480589D01*
X441901Y480591D01*
X441844Y480597D01*
X441787Y480607D01*
X441730Y480620D01*
X441675Y480638D01*
X441622Y480659D01*
X441569Y480684D01*
X441519Y480712D01*
X441471Y480744D01*
X441424Y480779D01*
X441381Y480817D01*
X441340Y480858D01*
X441302Y480901D01*
X441267Y480948D01*
X441235Y480996D01*
X441207Y481046D01*
X441182Y481099D01*
X441161Y481152D01*
X441143Y481207D01*
X441130Y481264D01*
X441120Y481321D01*
X441114Y481378D01*
X441112Y481436D01*
X441112Y482282D01*
X441959Y483646D02*
X441112Y484705D01*
X444922Y484705D01*
X444922Y485763D02*
X444922Y483646D01*
D17*
X576695Y474000D02*
X577305Y474000D01*
D20*
X587922Y478436D02*
X587922Y479282D01*
X587922Y478436D02*
X587920Y478378D01*
X587914Y478321D01*
X587904Y478264D01*
X587891Y478207D01*
X587873Y478152D01*
X587852Y478099D01*
X587827Y478046D01*
X587799Y477996D01*
X587767Y477948D01*
X587732Y477901D01*
X587694Y477858D01*
X587653Y477817D01*
X587610Y477779D01*
X587563Y477744D01*
X587515Y477712D01*
X587465Y477684D01*
X587412Y477659D01*
X587359Y477638D01*
X587304Y477620D01*
X587247Y477607D01*
X587190Y477597D01*
X587133Y477591D01*
X587075Y477589D01*
X584959Y477589D01*
X584901Y477591D01*
X584844Y477597D01*
X584787Y477607D01*
X584730Y477620D01*
X584675Y477638D01*
X584622Y477659D01*
X584569Y477684D01*
X584519Y477712D01*
X584471Y477744D01*
X584424Y477779D01*
X584381Y477817D01*
X584340Y477858D01*
X584302Y477901D01*
X584267Y477948D01*
X584235Y477996D01*
X584207Y478046D01*
X584182Y478099D01*
X584161Y478152D01*
X584143Y478207D01*
X584130Y478264D01*
X584120Y478321D01*
X584114Y478378D01*
X584112Y478436D01*
X584112Y479282D01*
X584112Y481811D02*
X584114Y481871D01*
X584120Y481930D01*
X584129Y481990D01*
X584142Y482048D01*
X584159Y482105D01*
X584179Y482162D01*
X584203Y482217D01*
X584230Y482270D01*
X584260Y482322D01*
X584294Y482371D01*
X584331Y482418D01*
X584370Y482463D01*
X584413Y482506D01*
X584458Y482545D01*
X584505Y482582D01*
X584554Y482616D01*
X584606Y482646D01*
X584659Y482673D01*
X584714Y482697D01*
X584771Y482717D01*
X584828Y482734D01*
X584886Y482747D01*
X584946Y482756D01*
X585005Y482762D01*
X585065Y482764D01*
X584112Y481811D02*
X584114Y481744D01*
X584119Y481677D01*
X584128Y481611D01*
X584141Y481545D01*
X584157Y481481D01*
X584177Y481417D01*
X584201Y481354D01*
X584227Y481292D01*
X584257Y481233D01*
X584290Y481175D01*
X584327Y481118D01*
X584366Y481064D01*
X584408Y481012D01*
X584453Y480963D01*
X584501Y480916D01*
X584551Y480872D01*
X584604Y480830D01*
X584659Y480792D01*
X584715Y480756D01*
X584774Y480724D01*
X584834Y480695D01*
X584896Y480669D01*
X584959Y480647D01*
X585806Y482445D02*
X585764Y482487D01*
X585719Y482526D01*
X585673Y482563D01*
X585624Y482597D01*
X585574Y482627D01*
X585522Y482655D01*
X585468Y482680D01*
X585413Y482702D01*
X585357Y482721D01*
X585300Y482736D01*
X585242Y482748D01*
X585183Y482756D01*
X585124Y482761D01*
X585065Y482763D01*
X585805Y482446D02*
X587922Y480646D01*
X587922Y482763D01*
D21*
X997500Y737000D02*
X997500Y750000D01*
X997500Y737000D02*
X997500Y673000D01*
X997500Y660000D01*
X962500Y665000D02*
X962500Y750000D01*
X962500Y665000D02*
X962500Y660000D01*
X962500Y665000D02*
X877500Y665000D01*
X877500Y660000D01*
X997500Y660000D01*
X877500Y665000D02*
X862500Y665000D01*
X857500Y665000D01*
X987500Y673000D02*
X997500Y673000D01*
X977500Y673000D02*
X967500Y673000D01*
X957500Y673000D02*
X947500Y673000D01*
X937500Y673000D02*
X927500Y673000D01*
X917500Y673000D02*
X907500Y673000D01*
X987500Y737000D02*
X997500Y737000D01*
X977500Y737000D02*
X967500Y737000D01*
X957500Y737000D02*
X947500Y737000D01*
X937500Y737000D02*
X927500Y737000D01*
X917500Y737000D02*
X907500Y737000D01*
X907500Y717500D01*
X907500Y710000D01*
X907500Y700000D02*
X907500Y692500D01*
X907500Y673000D01*
X977500Y692500D02*
X977804Y692504D01*
X978109Y692515D01*
X978412Y692533D01*
X978716Y692559D01*
X979018Y692593D01*
X979320Y692633D01*
X979621Y692681D01*
X979920Y692736D01*
X980218Y692799D01*
X980514Y692869D01*
X980809Y692946D01*
X981101Y693030D01*
X981392Y693121D01*
X981680Y693220D01*
X981965Y693325D01*
X982248Y693437D01*
X982529Y693556D01*
X982806Y693682D01*
X983080Y693814D01*
X983350Y693954D01*
X983618Y694099D01*
X983881Y694252D01*
X984141Y694410D01*
X984397Y694575D01*
X984649Y694746D01*
X984896Y694923D01*
X985140Y695106D01*
X985378Y695295D01*
X985612Y695490D01*
X985841Y695690D01*
X986066Y695896D01*
X986285Y696108D01*
X986499Y696324D01*
X986707Y696546D01*
X986911Y696772D01*
X987108Y697004D01*
X987300Y697240D01*
X987486Y697481D01*
X987666Y697727D01*
X987840Y697976D01*
X988008Y698230D01*
X988170Y698488D01*
X988325Y698750D01*
X988474Y699015D01*
X988617Y699284D01*
X988753Y699557D01*
X988882Y699832D01*
X989004Y700111D01*
X989120Y700393D01*
X989229Y700677D01*
X989330Y700964D01*
X989425Y701253D01*
X989513Y701545D01*
X989594Y701838D01*
X989667Y702134D01*
X989733Y702431D01*
X989792Y702730D01*
X989844Y703030D01*
X989888Y703331D01*
X989925Y703633D01*
X989955Y703936D01*
X989977Y704239D01*
X989992Y704543D01*
X989999Y704848D01*
X989999Y705152D01*
X989992Y705457D01*
X989977Y705761D01*
X989955Y706064D01*
X989925Y706367D01*
X989888Y706669D01*
X989844Y706970D01*
X989792Y707270D01*
X989733Y707569D01*
X989667Y707866D01*
X989594Y708162D01*
X989513Y708455D01*
X989425Y708747D01*
X989330Y709036D01*
X989229Y709323D01*
X989120Y709607D01*
X989004Y709889D01*
X988882Y710168D01*
X988753Y710443D01*
X988617Y710716D01*
X988474Y710985D01*
X988325Y711250D01*
X988170Y711512D01*
X988008Y711770D01*
X987840Y712024D01*
X987666Y712273D01*
X987486Y712519D01*
X987300Y712760D01*
X987108Y712996D01*
X986911Y713228D01*
X986707Y713454D01*
X986499Y713676D01*
X986285Y713892D01*
X986066Y714104D01*
X985841Y714310D01*
X985612Y714510D01*
X985378Y714705D01*
X985140Y714894D01*
X984896Y715077D01*
X984649Y715254D01*
X984397Y715425D01*
X984141Y715590D01*
X983881Y715748D01*
X983618Y715901D01*
X983350Y716046D01*
X983080Y716186D01*
X982806Y716318D01*
X982529Y716444D01*
X982248Y716563D01*
X981965Y716675D01*
X981680Y716780D01*
X981392Y716879D01*
X981101Y716970D01*
X980809Y717054D01*
X980514Y717131D01*
X980218Y717201D01*
X979920Y717264D01*
X979621Y717319D01*
X979320Y717367D01*
X979018Y717407D01*
X978716Y717441D01*
X978412Y717467D01*
X978109Y717485D01*
X977804Y717496D01*
X977500Y717500D01*
X862500Y681500D02*
X862500Y665000D01*
X862500Y728500D02*
X862500Y745000D01*
X857500Y745000D02*
X857500Y728500D01*
X857500Y681500D02*
X857500Y665000D01*
X857500Y745000D02*
X862500Y745000D01*
X915600Y750000D02*
X997500Y750000D01*
X877500Y732300D02*
X877500Y665000D01*
D10*
X979328Y653692D02*
X979328Y644604D01*
X979327Y644604D02*
X979325Y644505D01*
X979319Y644405D01*
X979310Y644306D01*
X979297Y644208D01*
X979280Y644110D01*
X979259Y644012D01*
X979234Y643916D01*
X979206Y643821D01*
X979174Y643727D01*
X979139Y643634D01*
X979100Y643542D01*
X979057Y643452D01*
X979012Y643364D01*
X978962Y643277D01*
X978910Y643193D01*
X978854Y643110D01*
X978796Y643030D01*
X978734Y642952D01*
X978669Y642877D01*
X978601Y642804D01*
X978531Y642734D01*
X978458Y642666D01*
X978383Y642601D01*
X978305Y642539D01*
X978225Y642481D01*
X978142Y642425D01*
X978058Y642373D01*
X977971Y642323D01*
X977883Y642278D01*
X977793Y642235D01*
X977701Y642196D01*
X977608Y642161D01*
X977514Y642129D01*
X977419Y642101D01*
X977323Y642076D01*
X977225Y642055D01*
X977127Y642038D01*
X977029Y642025D01*
X976930Y642016D01*
X976830Y642010D01*
X976731Y642008D01*
X975433Y642008D01*
X984601Y651096D02*
X987846Y653692D01*
X987846Y642008D01*
X984601Y642008D02*
X991092Y642008D01*
D11*
X998000Y439000D02*
X998000Y119000D01*
X998000Y439000D02*
X578000Y439000D01*
X578000Y119000D01*
X998000Y119000D01*
X578000Y119000D02*
X458000Y119000D01*
X458000Y439000D01*
X578000Y439000D01*
M02*
