G04 EAGLE Gerber RS-274X export*
G75*
%MOMM*%
%FSLAX34Y34*%
%LPD*%
%INSilkscreen Bottom*%
%IPPOS*%
%AMOC8*
5,1,8,0,0,1.08239X$1,22.5*%
G01*
%ADD10C,0.127000*%
%ADD11R,0.650000X1.400000*%
%ADD12C,0.101600*%


D10*
X750796Y722249D02*
X751868Y722249D01*
X751933Y722251D01*
X751997Y722257D01*
X752061Y722267D01*
X752125Y722280D01*
X752187Y722298D01*
X752248Y722319D01*
X752308Y722343D01*
X752366Y722372D01*
X752423Y722404D01*
X752477Y722439D01*
X752529Y722477D01*
X752579Y722519D01*
X752626Y722563D01*
X752670Y722610D01*
X752712Y722660D01*
X752750Y722712D01*
X752785Y722766D01*
X752817Y722823D01*
X752846Y722881D01*
X752870Y722941D01*
X752891Y723002D01*
X752909Y723064D01*
X752922Y723128D01*
X752932Y723192D01*
X752938Y723256D01*
X752940Y723321D01*
X752941Y723321D02*
X752941Y726003D01*
X752940Y726003D02*
X752938Y726068D01*
X752932Y726132D01*
X752922Y726196D01*
X752909Y726260D01*
X752891Y726322D01*
X752870Y726383D01*
X752846Y726443D01*
X752817Y726501D01*
X752785Y726558D01*
X752750Y726612D01*
X752712Y726664D01*
X752670Y726714D01*
X752626Y726761D01*
X752579Y726805D01*
X752529Y726847D01*
X752477Y726885D01*
X752423Y726920D01*
X752366Y726952D01*
X752308Y726981D01*
X752248Y727005D01*
X752187Y727026D01*
X752125Y727044D01*
X752061Y727057D01*
X751997Y727067D01*
X751933Y727073D01*
X751868Y727075D01*
X750796Y727075D01*
X747268Y727075D02*
X748340Y723321D01*
X745659Y723321D01*
X746463Y724394D02*
X746463Y722249D01*
D11*
X741986Y660415D03*
X756718Y660415D03*
D12*
X756412Y671068D02*
X756412Y682752D01*
X756412Y671068D02*
X751219Y671068D01*
D11*
X754014Y697485D03*
X739282Y697485D03*
D12*
X757435Y686832D02*
X757435Y675148D01*
X757435Y686832D02*
X754190Y686832D01*
X754077Y686830D01*
X753964Y686824D01*
X753851Y686814D01*
X753738Y686800D01*
X753626Y686783D01*
X753515Y686761D01*
X753405Y686736D01*
X753295Y686706D01*
X753187Y686673D01*
X753080Y686636D01*
X752974Y686596D01*
X752870Y686551D01*
X752767Y686503D01*
X752666Y686452D01*
X752567Y686397D01*
X752470Y686339D01*
X752375Y686277D01*
X752282Y686212D01*
X752192Y686144D01*
X752104Y686073D01*
X752018Y685998D01*
X751935Y685921D01*
X751855Y685841D01*
X751778Y685758D01*
X751703Y685672D01*
X751632Y685584D01*
X751564Y685494D01*
X751499Y685401D01*
X751437Y685306D01*
X751379Y685209D01*
X751324Y685110D01*
X751273Y685009D01*
X751225Y684906D01*
X751180Y684802D01*
X751140Y684696D01*
X751103Y684589D01*
X751070Y684481D01*
X751040Y684371D01*
X751015Y684261D01*
X750993Y684150D01*
X750976Y684038D01*
X750962Y683925D01*
X750952Y683812D01*
X750946Y683699D01*
X750944Y683586D01*
X750946Y683473D01*
X750952Y683360D01*
X750962Y683247D01*
X750976Y683134D01*
X750993Y683022D01*
X751015Y682911D01*
X751040Y682801D01*
X751070Y682691D01*
X751103Y682583D01*
X751140Y682476D01*
X751180Y682370D01*
X751225Y682266D01*
X751273Y682163D01*
X751324Y682062D01*
X751379Y681963D01*
X751437Y681866D01*
X751499Y681771D01*
X751564Y681678D01*
X751632Y681588D01*
X751703Y681500D01*
X751778Y681414D01*
X751855Y681331D01*
X751935Y681251D01*
X752018Y681174D01*
X752104Y681099D01*
X752192Y681028D01*
X752282Y680960D01*
X752375Y680895D01*
X752470Y680833D01*
X752567Y680775D01*
X752666Y680720D01*
X752767Y680669D01*
X752870Y680621D01*
X752974Y680576D01*
X753080Y680536D01*
X753187Y680499D01*
X753295Y680466D01*
X753405Y680436D01*
X753515Y680411D01*
X753626Y680389D01*
X753738Y680372D01*
X753851Y680358D01*
X753964Y680348D01*
X754077Y680342D01*
X754190Y680340D01*
X754190Y680341D02*
X757435Y680341D01*
X753541Y680341D02*
X750944Y675148D01*
X746079Y681639D02*
X742184Y681639D01*
X742085Y681637D01*
X741985Y681631D01*
X741886Y681622D01*
X741788Y681609D01*
X741690Y681592D01*
X741592Y681571D01*
X741496Y681546D01*
X741401Y681518D01*
X741307Y681486D01*
X741214Y681451D01*
X741122Y681412D01*
X741032Y681369D01*
X740944Y681324D01*
X740857Y681274D01*
X740773Y681222D01*
X740690Y681166D01*
X740610Y681108D01*
X740532Y681046D01*
X740457Y680981D01*
X740384Y680913D01*
X740314Y680843D01*
X740246Y680770D01*
X740181Y680695D01*
X740119Y680617D01*
X740061Y680537D01*
X740005Y680454D01*
X739953Y680370D01*
X739903Y680283D01*
X739858Y680195D01*
X739815Y680105D01*
X739776Y680013D01*
X739741Y679920D01*
X739709Y679826D01*
X739681Y679731D01*
X739656Y679635D01*
X739635Y679537D01*
X739618Y679439D01*
X739605Y679341D01*
X739596Y679242D01*
X739590Y679142D01*
X739588Y679043D01*
X739588Y678394D01*
X739590Y678281D01*
X739596Y678168D01*
X739606Y678055D01*
X739620Y677942D01*
X739637Y677830D01*
X739659Y677719D01*
X739684Y677609D01*
X739714Y677499D01*
X739747Y677391D01*
X739784Y677284D01*
X739824Y677178D01*
X739869Y677074D01*
X739917Y676971D01*
X739968Y676870D01*
X740023Y676771D01*
X740081Y676674D01*
X740143Y676579D01*
X740208Y676486D01*
X740276Y676396D01*
X740347Y676308D01*
X740422Y676222D01*
X740499Y676139D01*
X740579Y676059D01*
X740662Y675982D01*
X740748Y675907D01*
X740836Y675836D01*
X740926Y675768D01*
X741019Y675703D01*
X741114Y675641D01*
X741211Y675583D01*
X741310Y675528D01*
X741411Y675477D01*
X741514Y675429D01*
X741618Y675384D01*
X741724Y675344D01*
X741831Y675307D01*
X741939Y675274D01*
X742049Y675244D01*
X742159Y675219D01*
X742270Y675197D01*
X742382Y675180D01*
X742495Y675166D01*
X742608Y675156D01*
X742721Y675150D01*
X742834Y675148D01*
X742947Y675150D01*
X743060Y675156D01*
X743173Y675166D01*
X743286Y675180D01*
X743398Y675197D01*
X743509Y675219D01*
X743619Y675244D01*
X743729Y675274D01*
X743837Y675307D01*
X743944Y675344D01*
X744050Y675384D01*
X744154Y675429D01*
X744257Y675477D01*
X744358Y675528D01*
X744457Y675583D01*
X744554Y675641D01*
X744649Y675703D01*
X744742Y675768D01*
X744832Y675836D01*
X744920Y675907D01*
X745006Y675982D01*
X745089Y676059D01*
X745169Y676139D01*
X745246Y676222D01*
X745321Y676308D01*
X745392Y676396D01*
X745460Y676486D01*
X745525Y676579D01*
X745587Y676674D01*
X745645Y676771D01*
X745700Y676870D01*
X745751Y676971D01*
X745799Y677074D01*
X745844Y677178D01*
X745884Y677284D01*
X745921Y677391D01*
X745954Y677499D01*
X745984Y677609D01*
X746009Y677719D01*
X746031Y677830D01*
X746048Y677942D01*
X746062Y678055D01*
X746072Y678168D01*
X746078Y678281D01*
X746080Y678394D01*
X746079Y678394D02*
X746079Y681639D01*
X746077Y681782D01*
X746071Y681925D01*
X746061Y682068D01*
X746047Y682210D01*
X746030Y682352D01*
X746008Y682494D01*
X745983Y682635D01*
X745953Y682775D01*
X745920Y682914D01*
X745883Y683052D01*
X745842Y683189D01*
X745798Y683325D01*
X745749Y683460D01*
X745697Y683593D01*
X745642Y683725D01*
X745582Y683855D01*
X745519Y683984D01*
X745453Y684111D01*
X745383Y684236D01*
X745310Y684358D01*
X745233Y684479D01*
X745153Y684598D01*
X745070Y684714D01*
X744984Y684829D01*
X744895Y684940D01*
X744802Y685050D01*
X744707Y685156D01*
X744608Y685260D01*
X744507Y685361D01*
X744403Y685460D01*
X744297Y685555D01*
X744187Y685648D01*
X744076Y685737D01*
X743961Y685823D01*
X743845Y685906D01*
X743726Y685986D01*
X743605Y686063D01*
X743483Y686136D01*
X743358Y686206D01*
X743231Y686272D01*
X743102Y686335D01*
X742972Y686395D01*
X742840Y686450D01*
X742707Y686502D01*
X742572Y686551D01*
X742436Y686595D01*
X742299Y686636D01*
X742161Y686673D01*
X742022Y686706D01*
X741882Y686736D01*
X741741Y686761D01*
X741599Y686783D01*
X741457Y686800D01*
X741315Y686814D01*
X741172Y686824D01*
X741029Y686830D01*
X740886Y686832D01*
M02*
