G04 EAGLE Gerber RS-274X export*
G75*
%MOMM*%
%FSLAX34Y34*%
%LPD*%
%INSoldermask Top*%
%IPPOS*%
%AMOC8*
5,1,8,0,0,1.08239X$1,22.5*%
G01*
%ADD10C,3.003200*%
%ADD11R,2.803200X2.603200*%
%ADD12R,1.003200X1.403200*%
%ADD13C,1.524000*%
%ADD14R,2.082800X2.082800*%
%ADD15C,2.082800*%
%ADD16R,1.803200X2.006200*%
%ADD17C,1.524000*%
%ADD18R,1.303200X1.603200*%
%ADD19C,1.727200*%
%ADD20R,2.438400X1.422400*%
%ADD21R,2.403200X3.803200*%
%ADD22C,1.511200*%
%ADD23C,1.625600*%
%ADD24P,1.759533X8X292.500000*%
%ADD25R,1.103200X0.903200*%
%ADD26C,2.387600*%
%ADD27R,1.625600X1.625600*%
%ADD28C,0.959600*%


D10*
X222000Y92000D03*
X973000Y92000D03*
D11*
X730000Y673100D03*
X794000Y673100D03*
D12*
X732900Y736600D03*
X714900Y736600D03*
X765700Y736600D03*
X783700Y736600D03*
D11*
X794000Y596900D03*
X730000Y596900D03*
D13*
X292100Y590804D02*
X292100Y577596D01*
X317500Y577596D02*
X317500Y590804D01*
X342900Y590804D02*
X342900Y577596D01*
X368300Y577596D02*
X368300Y590804D01*
X393700Y590804D02*
X393700Y577596D01*
X419100Y577596D02*
X419100Y590804D01*
X444500Y590804D02*
X444500Y577596D01*
X469900Y577596D02*
X469900Y590804D01*
X495300Y590804D02*
X495300Y577596D01*
X520700Y577596D02*
X520700Y590804D01*
X546100Y590804D02*
X546100Y577596D01*
X571500Y577596D02*
X571500Y590804D01*
X596900Y590804D02*
X596900Y577596D01*
X622300Y577596D02*
X622300Y590804D01*
X622300Y653796D02*
X622300Y667004D01*
X596900Y667004D02*
X596900Y653796D01*
X571500Y653796D02*
X571500Y667004D01*
X546100Y667004D02*
X546100Y653796D01*
X520700Y653796D02*
X520700Y667004D01*
X495300Y667004D02*
X495300Y653796D01*
X469900Y653796D02*
X469900Y667004D01*
X444500Y667004D02*
X444500Y653796D01*
X419100Y653796D02*
X419100Y667004D01*
X393700Y667004D02*
X393700Y653796D01*
X368300Y653796D02*
X368300Y667004D01*
X342900Y667004D02*
X342900Y653796D01*
X317500Y653796D02*
X317500Y667004D01*
X292100Y667004D02*
X292100Y653796D01*
D14*
X276900Y777300D03*
D15*
X302300Y777300D03*
X327700Y777300D03*
X353100Y777300D03*
X378500Y777300D03*
X403900Y777300D03*
X429300Y777300D03*
X454700Y777300D03*
X480100Y777300D03*
X505500Y777300D03*
X530900Y777300D03*
X556300Y777300D03*
X581700Y777300D03*
X607100Y777300D03*
X632500Y777300D03*
X657900Y777300D03*
D10*
X221900Y777300D03*
X221900Y467300D03*
X971900Y777300D03*
X971900Y467300D03*
D16*
X757620Y769300D03*
X729180Y769300D03*
D17*
X532130Y469900D03*
X483870Y469900D03*
D18*
X815500Y736600D03*
X835500Y736600D03*
X816500Y769300D03*
X836500Y769300D03*
X352000Y179000D03*
X332000Y179000D03*
X352000Y100000D03*
X332000Y100000D03*
X352000Y139000D03*
X332000Y139000D03*
D19*
X397394Y115108D02*
X397394Y99868D01*
X442606Y99868D02*
X442606Y115108D01*
X397394Y164892D02*
X397394Y180132D01*
X442606Y180132D02*
X442606Y164892D01*
X542606Y164892D02*
X542606Y180132D01*
X497394Y180132D02*
X497394Y164892D01*
X542606Y115108D02*
X542606Y99868D01*
X497394Y99868D02*
X497394Y115108D01*
X298606Y164892D02*
X298606Y180132D01*
X253394Y180132D02*
X253394Y164892D01*
X298606Y115108D02*
X298606Y99868D01*
X253394Y99868D02*
X253394Y115108D01*
D20*
X958088Y586486D03*
X958088Y609600D03*
X958088Y632714D03*
D21*
X896110Y609600D03*
D22*
X215000Y735000D03*
X215000Y685000D03*
X240000Y710000D03*
D23*
X261700Y396200D03*
D24*
X236300Y396200D03*
X261700Y370800D03*
X236300Y370800D03*
X261700Y345400D03*
X236300Y345400D03*
X261700Y320000D03*
X236300Y320000D03*
X261700Y294600D03*
X236300Y294600D03*
X261700Y269200D03*
X236300Y269200D03*
X261700Y243800D03*
X236300Y243800D03*
D25*
X434000Y483500D03*
X434000Y470500D03*
X577000Y480500D03*
X577000Y467500D03*
D26*
X879078Y753000D02*
X900922Y753000D01*
X920000Y715922D02*
X920000Y694078D01*
X860000Y694078D02*
X860000Y715922D01*
D23*
X485100Y270900D03*
X485100Y296300D03*
X485100Y321700D03*
D10*
X963000Y154000D03*
X963000Y404000D03*
X613000Y404000D03*
X613000Y154000D03*
D27*
X485100Y245500D03*
D28*
X732900Y718900D03*
X922100Y635000D03*
X700000Y770000D03*
X438000Y247000D03*
X310000Y269000D03*
X978000Y587000D03*
X774000Y649000D03*
X814000Y649000D03*
X782500Y510000D03*
X330000Y287000D03*
X650000Y700000D03*
X535000Y725000D03*
X625000Y730000D03*
X560000Y735000D03*
X571500Y715000D03*
X610000Y715000D03*
X474000Y714000D03*
X277000Y616500D03*
X457000Y627000D03*
X252000Y623500D03*
X464000Y688000D03*
X381000Y688000D03*
X298000Y688000D03*
X665000Y745000D03*
X301000Y741000D03*
X719000Y697000D03*
X432000Y622000D03*
X409000Y297000D03*
X841000Y656000D03*
X448000Y469000D03*
X296000Y415000D03*
X219000Y258000D03*
X291000Y211000D03*
X366000Y152000D03*
X407000Y511000D03*
X406000Y612000D03*
X420000Y139000D03*
X371000Y107000D03*
M02*
